# This file uses meters as units for non-parametric coordinates.

v -0.837715 -0.346466 -6.625633
v -0.837715 -1.070694 -14.386734
v -0.837715 -5.868851 -14.386734
v -0.837715 -0.084717 -10.681686
v -0.837715 -2.177673 -16.711624
v -0.837715 -4.955627 -16.422386
v -0.837715 -4.305359 -6.625633
v -0.221809 -2.873886 -1.913406
v -0.837715 -6.203156 -10.581116
v -0.837715 -2.594025 -4.859833
v -0.557602 -0.503708 -2.979958
v -0.557602 1.298813 -1.317101
v -0.557602 3.063126 4.820313
v -0.557602 6.247971 16.808212
v -0.221806 5.463638 20.899330
v -0.837715 -4.386322 -14.651138
v -0.837715 -5.012589 -13.255165
v -0.837715 -2.481308 -14.849495
v -0.837715 -1.722183 -13.255165
v -0.837715 -5.241837 -10.645409
v -0.837715 -3.940399 -7.932884
v -0.837715 -1.046036 -10.714378
v -0.837715 -1.225525 -7.932884
v -0.837715 -2.766830 -6.721962
v 0.024761 5.463638 20.899330
v 0.024757 -2.873886 -1.913406
v 0.024765 1.298813 -1.317101
v 0.024757 3.063126 4.820313
v 0.024757 6.247971 16.808212
v 0.304871 -2.594025 -4.859833
v 0.304871 -0.346466 -6.625632
v 0.024765 -0.503708 -2.979958
v 0.304871 -4.955627 -16.422386
v 0.304871 -5.868851 -14.386733
v 0.304871 -4.386322 -14.651137
v 0.304871 -5.012589 -13.255164
v 0.304871 -2.177673 -16.711624
v 0.304871 -2.481308 -14.849494
v 0.304871 -1.070694 -14.386733
v 0.304871 -1.722183 -13.255164
v 0.304871 -6.203156 -10.581115
v 0.304871 -4.305359 -6.625632
v 0.304871 -5.241837 -10.645408
v 0.304871 -3.940399 -7.932883
v 0.304871 -0.084717 -10.681685
v 0.304871 -1.046036 -10.714377
v 0.304871 -1.225525 -7.932883
v 0.304871 -2.766830 -6.721961
v -0.557602 -1.013702 -1.647575
v -0.249725 9.966248 -14.386734
v -0.249725 8.747452 -6.883072
v -0.249725 10.846146 -11.211128
v -0.249725 3.868469 -6.625633
v -0.249725 6.310913 -14.138649
v -0.249725 3.699112 -9.889656
v -0.249725 6.385849 -5.791794
v -0.249725 5.149551 -8.085991
v -0.249725 5.043930 -10.121681
v -0.249725 6.672836 -12.771645
v -0.249725 8.952560 -12.926376
v -0.249725 9.501328 -10.945831
v -0.249725 8.210800 -7.932755
v -0.249725 6.737930 -7.252159
v 0.019882 2.322266 -1.913406
v 0.019882 0.587036 -3.500793
v 0.019882 -3.150497 7.469903
v 0.019882 -0.324524 8.536446
v 0.019882 -4.591995 18.403076
v 0.019882 -3.245819 20.545692
v 0.560143 0.587036 -3.500793
v 0.560143 2.322266 -1.913406
v 0.829750 3.868469 -6.625633
v 0.829750 6.385849 -5.791794
v 0.829750 3.699112 -9.889656
v 0.829750 5.043930 -10.121681
v 0.829750 5.149551 -8.085991
v 0.829750 6.310913 -14.138649
v 0.829750 6.672836 -12.771645
v 0.829750 9.966248 -14.386734
v 0.829750 8.952560 -12.926376
v 0.829750 10.846146 -11.211128
v 0.829750 9.501328 -10.945831
v 0.829750 8.747452 -6.883072
v 0.829750 8.210800 -7.932755
v 0.829750 6.737930 -7.252159
v 0.252419 -0.324524 8.536446
v 0.560143 -3.150497 7.469902
v 0.252419 -3.245819 20.545692
v 0.560139 -4.591995 18.403076
v 0.252419 2.082260 -0.965782
v 0.560143 -1.801849 -1.467163
v 0.019882 -1.801849 -1.467163
v 0.019882 2.082260 -0.965782
v 0.560143 0.352005 -1.189133
v 0.560143 -1.947617 7.923874
v 0.019882 0.216660 -1.206604
v 0.019882 -2.015976 7.898079
v -0.794968 -0.121338 1.092560
v -0.794968 0.623718 0.347496
v -0.794968 -0.866394 0.347496
v -0.794968 -0.121338 -0.397560
v 0.837715 -0.866394 0.347496
v 0.837715 -0.121338 -0.397560
v 0.837715 -0.121338 1.092560
v 0.837715 0.623718 0.347496
vt 0.092192 0.329295
vt 0.092192 0.329295
vt 0.092192 0.329295
vt 0.092192 0.329295
vt 0.092192 0.329295
vt 0.008194 0.421922
vt 0.008194 0.421922
vt 0.008194 0.421922
vt 0.008194 0.421922
vt 0.092192 0.329295
vt 0.008209 0.421922
vt 0.008209 0.421922
vt 0.008209 0.421922
vt 0.008194 0.421922
vt 0.008209 0.421922
vt 0.008209 0.421922
vt 0.008209 0.421922
vt 0.008194 0.421922
vt 0.008194 0.421922
vt 0.008194 0.421922
vt 0.008194 0.421922
vt 0.008194 0.421922
vt 0.008194 0.421922
vt 0.008194 0.421922
vt 0.008194 0.421922
vt 0.008194 0.421922
vt 0.093338 0.373711
vt 0.093338 0.373711
vt 0.093338 0.373711
vt 0.093338 0.373711
vt 0.008194 0.421921
vt 0.008194 0.421921
vt 0.008194 0.421921
vt 0.008194 0.421921
vt 0.092192 0.329295
vt 0.092192 0.329295
vt 0.092192 0.329295
vt 0.092192 0.329295
vt 0.008209 0.421921
vt 0.008194 0.421921
vt 0.008209 0.421921
vt 0.008209 0.421921
vt 0.008209 0.421921
vt 0.008209 0.421921
vt 0.008194 0.421921
vt 0.008209 0.421921
vt 0.008194 0.421921
vt 0.008194 0.421921
vt 0.008194 0.421921
vt 0.008194 0.421921
vt 0.008194 0.421921
vt 0.008194 0.421921
vt 0.008194 0.421921
vt 0.008194 0.421921
vt 0.092192 0.329295
vt 0.092192 0.329295
vt 0.092192 0.329295
vt 0.092192 0.329295
vt 0.092192 0.329295
vt 0.092192 0.329295
vt 0.092192 0.329295
vt 0.092192 0.329295
vt 0.005859 0.419972
vt 0.005859 0.419972
vt 0.005859 0.419972
vt 0.005859 0.419972
vt 0.005859 0.419972
vt 0.005859 0.419972
vt 0.005859 0.419972
vt 0.005859 0.419972
vt 0.005859 0.419972
vt 0.005859 0.419972
vt 0.005859 0.419972
vt 0.005859 0.419972
vt 0.005859 0.419972
vt 0.005859 0.419972
vt 0.005859 0.419972
vt 0.005859 0.419972
vt 0.092192 0.329295
vt 0.092192 0.329295
vt 0.092192 0.329295
vt 0.092192 0.329295
vt 0.092192 0.329295
vt 0.092192 0.329295
vt 0.092192 0.329295
vt 0.092192 0.329295
vt 0.005859 0.419972
vt 0.005859 0.419972
vt 0.005859 0.419972
vt 0.005859 0.419972
vt 0.005859 0.419972
vt 0.005859 0.419972
vt 0.005859 0.419972
vt 0.005859 0.419972
vt 0.005859 0.419972
vt 0.005859 0.419972
vt 0.005859 0.419972
vt 0.005859 0.419972
vt 0.005859 0.419972
vt 0.005859 0.419972
vt 0.005859 0.419972
vt 0.005859 0.419972
vt 0.092192 0.329295
vt 0.092192 0.329295
vt 0.092192 0.329295
vt 0.092192 0.329295
vt 0.092192 0.329295
vt 0.090820 0.379599
vt 0.090820 0.379599
vt 0.090820 0.379599
vt 0.090820 0.379599
vt 0.092192 0.329295
vt 0.092192 0.329295
vt 0.092192 0.329295
vt 0.092192 0.329295
vt 0.090820 0.379599
vt 0.090820 0.379599
vt 0.090820 0.379599
vt 0.092192 0.329295
vt 0.092192 0.329295
vt 0.092192 0.329295
vt 0.092192 0.329295
vt 0.092192 0.329295
vt 0.090820 0.379599
vt 0.090820 0.379599
vt 0.090820 0.379599
vt 0.090820 0.379599
vt 0.090820 0.379599
vt 0.092192 0.329295
vt 0.092192 0.329295
vt 0.092192 0.329295
vt 0.092192 0.329295
vt 0.092192 0.329295
vt 0.079881 0.304739
vt 0.079881 0.304739
vt 0.079881 0.304739
vt 0.079881 0.304739
vt 0.079881 0.304739
vt 0.079881 0.304739
vt 0.079881 0.304739
vt 0.079881 0.304739
vt 0.079881 0.304739
vt 0.079881 0.304739
vt 0.079881 0.304739
vt 0.079881 0.304739
vt 0.079881 0.304739
vt 0.079881 0.304739
vn 0.999905 0.007217 0.011770
vn 1.000000 -0.000002 0.000001
vn 1.000000 -0.000000 0.000000
vn 1.000000 -0.000002 0.000001
vn 1.000000 0.000010 -0.000002
vn 1.000000 -0.000000 0.000000
vn 1.000000 -0.000000 0.000000
vn 1.000000 0.000010 -0.000002
vn 1.000000 0.000002 -0.000001
vn 0.999905 0.007217 0.011770
vn 0.994644 0.054043 0.088112
vn 0.994644 0.054043 0.088112
vn 0.997215 0.038996 0.063580
vn 0.999905 0.007217 0.011770
vn 0.997215 0.038996 0.063580
vn 1.000000 -0.000002 0.000001
vn 1.000000 -0.000000 0.000000
vn 1.000000 -0.000000 0.000000
vn 1.000000 -0.000000 0.000000
vn 1.000000 -0.000000 0.000000
vn 1.000000 0.000000 0.000000
vn 1.000000 0.000000 0.000000
vn 1.000000 0.000000 0.000000
vn 1.000000 0.000000 0.000000
vn 1.000000 0.000000 0.000000
vn 1.000000 0.000000 0.000000
vn 1.000000 0.000000 0.000000
vn 1.000000 0.000000 0.000000
vn 1.000000 -0.000000 0.000000
vn 1.000000 -0.000000 0.000000
vn 1.000000 -0.000000 0.000000
vn 1.000000 -0.000000 0.000000
vn 1.000000 -0.000000 0.000000
vn 1.000000 -0.000000 0.000000
vn 1.000000 -0.000000 0.000000
vn 1.000000 -0.000000 0.000000
vn 1.000000 0.000000 0.000000
vn 1.000000 0.000000 0.000000
vn 1.000000 0.000000 0.000000
vn 1.000000 0.000000 0.000000
vn 1.000000 -0.000000 0.000000
vn 1.000000 -0.000000 0.000000
vn 1.000000 -0.000000 0.000000
vn 1.000000 -0.000000 0.000000
vn 1.000000 0.000000 0.000000
vn 1.000000 0.000000 0.000000
vn 1.000000 0.000000 0.000000
vn 1.000000 0.000000 0.000000
vn 1.000000 0.000000 0.000000
vn 1.000000 0.000000 0.000000
vn 1.000000 0.000000 0.000000
vn 1.000000 0.000000 0.000000
vn -0.984943 -0.161713 0.061126
vn -0.985577 -0.158299 0.059836
vn -0.991077 -0.126019 0.043414
vn -0.988342 -0.135815 0.068806
vn -0.988342 -0.135815 0.068806
vn -0.995857 -0.013248 0.089968
vn -0.990731 0.011001 0.135393
vn -0.990731 0.011001 0.135393
vn -0.988342 -0.135815 0.068806
vn -0.991077 -0.126019 0.043414
vn -0.999995 -0.003102 -0.001187
vn -0.995857 -0.013248 0.089968
vn -1.000000 0.000000 0.000000
vn -1.000000 0.000000 0.000000
vn -1.000000 0.000000 0.000000
vn -1.000000 0.000000 0.000000
vn -1.000000 -0.000000 0.000000
vn -1.000000 -0.000000 0.000000
vn -1.000000 -0.000000 0.000000
vn -1.000000 -0.000000 0.000000
vn -1.000000 0.000000 0.000000
vn -1.000000 0.000000 0.000000
vn -1.000000 0.000000 0.000000
vn -1.000000 0.000000 0.000000
vn -1.000000 0.000000 0.000000
vn -1.000000 0.000000 0.000000
vn -1.000000 0.000000 0.000000
vn -1.000000 0.000000 0.000000
vn -1.000000 -0.000000 0.000000
vn -1.000000 -0.000000 0.000000
vn -1.000000 -0.000000 0.000000
vn -1.000000 -0.000000 0.000000
vn -1.000000 0.000000 0.000000
vn -1.000000 0.000000 0.000000
vn -1.000000 0.000000 0.000000
vn -1.000000 0.000000 0.000000
vn -1.000000 0.000000 0.000000
vn -1.000000 0.000000 0.000000
vn -1.000000 0.000000 0.000000
vn -1.000000 0.000000 0.000000
vn -1.000000 0.000000 0.000000
vn -1.000000 0.000000 0.000000
vn -1.000000 0.000000 0.000000
vn -1.000000 0.000000 0.000000
vn -1.000000 0.000000 0.000000
vn -1.000000 0.000000 0.000000
vn -1.000000 0.000000 0.000000
vn -1.000000 0.000000 0.000000
vn 0.000000 -0.939237 0.343269
vn 0.000000 -0.974284 0.225323
vn 0.000000 -0.972977 0.230900
vn 0.000000 -0.939237 0.343269
vn 0.000000 0.961077 -0.276279
vn 0.000000 0.964684 -0.263409
vn 0.000000 0.964684 -0.263409
vn 0.000000 0.961077 -0.276279
vn 0.000000 0.964684 -0.263409
vn 0.000000 0.984182 -0.177162
vn 0.000000 0.984814 -0.173613
vn 0.000000 0.964684 -0.263409
vn 0.000000 0.984182 -0.177162
vn 0.000000 0.982114 0.188287
vn 0.000000 0.982114 0.188287
vn 0.000000 0.984814 -0.173613
vn 0.000000 -0.974284 0.225323
vn 0.000000 -0.995519 -0.094558
vn 0.000000 -0.995519 -0.094558
vn 0.000000 -0.972977 0.230900
vn -0.000000 0.998428 0.056050
vn -0.000000 0.999071 0.043091
vn -0.000000 0.999071 0.043091
vn -0.000000 0.998428 0.056050
vn 0.000000 0.678058 -0.735008
vn 0.000000 0.678058 -0.735008
vn 0.000000 0.678058 -0.735008
vn 0.000000 0.678058 -0.735008
vn 0.000000 -0.977945 -0.208861
vn 0.000000 -0.912394 -0.409313
vn 0.000000 -0.912394 -0.409313
vn 0.000000 -0.977945 -0.208861
vn 0.000000 0.912391 0.409320
vn -0.000000 0.977945 0.208862
vn -0.000000 0.977945 0.208862
vn 0.000000 0.912391 0.409320
vn 0.000000 -0.103559 -0.994623
vn 0.000000 -0.103559 -0.994623
vn 0.000000 -0.103559 -0.994623
vn 0.000000 -0.103559 -0.994623
vn -0.000001 0.103564 0.994623
vn -0.000001 0.103564 0.994623
vn -0.000001 0.103564 0.994623
vn -0.000001 0.103564 0.994623
vn 0.000000 0.902877 -0.429898
vn 0.000000 0.944711 -0.327904
vn 0.000000 0.944711 -0.327904
vn 0.000000 0.902877 -0.429898
vn -0.000000 -0.944711 0.327903
vn -0.000000 -0.902878 0.429897
vn -0.000000 -0.902878 0.429897
vn -0.000000 -0.944711 0.327903
vn -0.000000 -0.845777 0.533537
vn -0.000000 -0.901597 0.432576
vn -0.000000 -0.901597 0.432576
vn -0.000000 -0.845776 0.533537
vn 0.000000 0.901598 -0.432576
vn 0.000000 0.845777 -0.533537
vn 0.000000 0.845777 -0.533537
vn 0.000000 0.901598 -0.432576
vn 0.000000 -0.996164 -0.087508
vn 0.000000 -0.977945 -0.208861
vn 0.000000 -0.977945 -0.208861
vn 0.000000 -0.996164 -0.087508
vn -0.000000 0.977945 0.208862
vn -0.000000 0.996164 0.087506
vn -0.000000 0.996164 0.087506
vn -0.000000 0.977945 0.208862
vn 0.000000 0.944711 -0.327904
vn 0.000000 0.995674 -0.092912
vn 0.000000 0.995674 -0.092911
vn 0.000000 0.944711 -0.327904
vn 0.000000 -0.995674 0.092913
vn -0.000000 -0.944711 0.327903
vn -0.000000 -0.944711 0.327903
vn 0.000000 -0.995674 0.092913
vn 0.000000 0.995674 -0.092912
vn -0.000000 0.998428 0.056050
vn -0.000000 0.998428 0.056050
vn 0.000000 0.995674 -0.092911
vn 0.000000 -0.997924 -0.064396
vn 0.000000 -0.995674 0.092913
vn 0.000000 -0.995674 0.092913
vn 0.000000 -0.997924 -0.064396
vn 0.000000 -0.617789 -0.786344
vn 0.000000 -0.617789 -0.786344
vn 0.000000 -0.617789 -0.786344
vn 0.000000 -0.617789 -0.786344
vn -0.000000 -0.718095 0.695945
vn -0.000000 -0.845777 0.533537
vn -0.000000 -0.845776 0.533537
vn -0.000000 -0.718095 0.695945
vn 0.000000 0.845777 -0.533537
vn 0.000000 0.718096 -0.695944
vn 0.000000 0.718096 -0.695944
vn 0.000000 0.845777 -0.533537
vn -0.991077 -0.126019 0.043414
vn -0.985577 -0.158299 0.059836
vn -1.000000 0.000000 0.000000
vn -0.999995 -0.003102 -0.001187
vn 0.998465 -0.027405 0.048134
vn 0.998465 -0.027405 0.048134
vn 0.998465 -0.027405 0.048134
vn 0.998465 -0.027405 0.048134
vn 1.000000 -0.000000 0.000000
vn 1.000000 -0.000000 0.000000
vn 1.000000 -0.000000 0.000000
vn 1.000000 -0.000000 0.000000
vn 1.000000 0.000000 0.000000
vn 1.000000 0.000000 0.000000
vn 1.000000 0.000000 0.000000
vn 1.000000 0.000000 0.000000
vn 1.000000 0.000000 0.000000
vn 1.000000 0.000000 0.000000
vn 1.000000 0.000000 0.000000
vn 1.000000 0.000000 0.000000
vn 1.000000 0.000000 0.000000
vn 1.000000 0.000000 0.000000
vn 1.000000 0.000000 0.000000
vn 1.000000 0.000000 0.000000
vn 1.000000 -0.000000 0.000000
vn 1.000000 -0.000000 0.000000
vn 1.000000 -0.000000 0.000000
vn 1.000000 -0.000000 0.000000
vn 1.000000 0.000000 0.000000
vn 1.000000 0.000000 0.000000
vn 1.000000 0.000000 0.000000
vn 1.000000 0.000000 0.000000
vn 1.000000 0.000000 0.000000
vn 1.000000 0.000000 0.000000
vn 1.000000 0.000000 0.000000
vn 1.000000 0.000000 0.000000
vn 1.000000 0.000000 0.000000
vn 1.000000 -0.000000 0.000000
vn 0.996150 0.084384 0.023749
vn 1.000000 -0.000000 0.000000
vn 0.995065 0.034236 0.093132
vn 0.996150 0.084384 0.023749
vn 0.995065 0.034236 0.093132
vn 0.984027 0.167706 0.059716
vn 0.996150 0.084384 0.023749
vn 1.000000 -0.000000 0.000000
vn 0.992268 0.120478 0.029817
vn 0.985728 0.163414 0.040443
vn -0.998465 -0.027405 0.048134
vn -0.998465 -0.027405 0.048134
vn -0.998465 -0.027405 0.048134
vn -0.998465 -0.027405 0.048134
vn -1.000000 0.000000 0.000000
vn -1.000000 0.000000 0.000000
vn -1.000000 0.000000 0.000000
vn -1.000000 0.000000 0.000000
vn -1.000000 0.000000 0.000000
vn -1.000000 0.000000 0.000000
vn -1.000000 0.000000 0.000000
vn -1.000000 0.000000 0.000000
vn -1.000000 0.000000 0.000000
vn -1.000000 0.000000 0.000000
vn -1.000000 0.000000 0.000000
vn -1.000000 0.000000 0.000000
vn -1.000000 -0.000000 0.000000
vn -1.000000 -0.000000 0.000000
vn -1.000000 -0.000000 0.000000
vn -1.000000 -0.000000 0.000000
vn -1.000000 0.000000 0.000000
vn -1.000000 0.000000 0.000000
vn -1.000000 0.000000 0.000000
vn -1.000000 0.000000 0.000000
vn -1.000000 -0.000000 0.000000
vn -1.000000 -0.000000 0.000000
vn -1.000000 -0.000000 0.000000
vn -1.000000 -0.000000 0.000000
vn -1.000000 0.000000 0.000000
vn -1.000000 0.000000 0.000000
vn -1.000000 0.000000 0.000000
vn -1.000000 0.000000 0.000000
vn -1.000000 -0.000000 0.000000
vn -1.000000 0.000000 0.000000
vn -1.000000 0.000000 0.000000
vn -1.000000 0.000000 0.000000
vn -1.000000 0.000000 0.000000
vn -1.000000 0.000000 0.000000
vn -1.000000 0.000000 0.000000
vn -1.000000 0.000000 0.000000
vn -1.000000 0.000000 0.000000
vn -1.000000 0.000000 0.000000
vn -1.000000 0.000000 0.000000
vn -1.000000 0.000000 0.000000
vn -1.000000 0.000000 0.000000
vn 0.000000 -0.689616 -0.724175
vn 0.000000 -0.689616 -0.724175
vn 0.000000 -0.689616 -0.724175
vn 0.000000 -0.689616 -0.724175
vn 0.000000 0.592633 0.805473
vn 0.000000 0.718865 0.695150
vn 0.000000 0.713721 0.700430
vn 0.000000 0.592633 0.805473
vn 0.000000 -0.998657 0.051816
vn 0.000000 -0.998657 0.051816
vn 0.000000 -0.998657 0.051816
vn 0.000000 -0.998657 0.051816
vn 0.000000 0.998657 -0.051815
vn 0.000000 0.998657 -0.051815
vn 0.000000 0.998657 -0.051815
vn 0.000000 0.998657 -0.051815
vn 0.000000 -0.851923 -0.523666
vn 0.000000 -0.851923 -0.523666
vn 0.000000 -0.851923 -0.523666
vn 0.000000 -0.851923 -0.523666
vn 0.000000 0.851922 0.523668
vn 0.000000 0.851922 0.523668
vn 0.000000 0.851922 0.523668
vn 0.000000 0.851922 0.523668
vn 0.000000 -0.067714 -0.997705
vn 0.000000 -0.067714 -0.997705
vn 0.000000 -0.067714 -0.997705
vn 0.000000 -0.067714 -0.997705
vn 0.000000 0.067717 0.997705
vn 0.000000 0.067717 0.997705
vn 0.000000 0.067717 0.997705
vn 0.000000 0.067717 0.997705
vn 0.000000 0.963691 -0.267020
vn 0.000000 0.963691 -0.267020
vn 0.000000 0.963691 -0.267020
vn 0.000000 0.963691 -0.267020
vn 0.000000 -0.963691 0.267018
vn 0.000000 -0.963691 0.267018
vn 0.000000 -0.963691 0.267018
vn 0.000000 -0.963691 0.267018
vn 0.000000 0.899794 0.436314
vn 0.000000 0.899794 0.436314
vn 0.000000 0.899794 0.436314
vn 0.000000 0.899794 0.436314
vn 0.000000 -0.919232 -0.393716
vn 0.000000 -0.919232 -0.393716
vn 0.000000 -0.919232 -0.393716
vn 0.000000 -0.919232 -0.393716
vn 0.000000 0.419472 0.907768
vn 0.000000 0.592633 0.805473
vn 0.000000 0.592633 0.805473
vn 0.000000 0.419472 0.907768
vn 0.000000 0.049994 -0.998750
vn 0.000000 -0.419469 -0.907770
vn 0.000000 -0.419469 -0.907770
vn 0.000000 0.049994 -0.998750
vn 0.000000 0.464805 -0.885413
vn 0.000000 0.049994 -0.998750
vn 0.000000 0.049994 -0.998750
vn 0.000000 0.464805 -0.885413
vn 0.000000 0.718865 0.695150
vn 0.000000 0.969389 0.245531
vn 0.000000 0.969389 0.245530
vn 0.000000 0.713721 0.700430
vn -0.000000 -0.946575 -0.322482
vn 0.000000 -0.648218 -0.761455
vn 0.000000 -0.648218 -0.761455
vn -0.000000 -0.946575 -0.322482
vn 0.000000 0.970669 0.240421
vn 0.000000 0.971665 0.236361
vn 0.000000 0.971665 0.236361
vn 0.000000 0.970669 0.240421
vn 0.000000 -0.846745 0.531998
vn 0.000000 -0.846745 0.531998
vn 0.000000 -0.846745 0.531998
vn 0.000000 -0.846745 0.531998
vn 0.000000 -0.991420 -0.130715
vn -0.000000 -0.990285 -0.139054
vn -0.000000 -0.990285 -0.139054
vn 0.000000 -0.991420 -0.130715
vn 1.000000 0.000000 0.000000
vn 0.996150 0.084384 0.023749
vn 0.995275 0.094131 0.023799
vn 1.000000 0.000000 0.000000
vn -0.000000 -0.990285 -0.139054
vn -0.000000 -0.946575 -0.322482
vn -0.000000 -0.946575 -0.322482
vn -0.000000 -0.990285 -0.139054
vn -1.000000 0.000000 0.000000
vn -1.000000 0.000000 0.000000
vn -1.000000 0.000000 0.000000
vn -1.000000 0.000000 0.000000
vn 0.000000 0.969389 0.245530
vn 0.000000 0.969389 0.245531
vn 0.000000 0.970669 0.240421
vn 0.000000 0.970669 0.240421
vn 0.995275 0.094131 0.023799
vn 0.996150 0.084384 0.023749
vn 0.984027 0.167706 0.059716
vn 0.984511 0.169977 0.042974
vn 0.985728 0.163414 0.040443
vn 0.992268 0.120478 0.029817
vn 0.985256 0.166076 0.041102
vn 0.985256 0.166076 0.041102
vn -1.000000 0.000000 0.000000
vn -1.000000 0.000000 0.000000
vn -1.000000 -0.000000 0.000000
vn -1.000000 -0.000000 0.000000
vn -1.000000 0.000000 0.000000
vn -1.000000 0.000000 0.000000
vn -1.000000 0.000000 0.000000
vn -1.000000 0.000000 0.000000
vn -1.000000 0.000000 0.000000
vn -1.000000 0.000000 0.000000
vn -1.000000 0.000000 0.000000
vn 0.000000 -0.707107 -0.707107
vn 0.000000 -0.707107 -0.707107
vn 0.000000 -0.707107 -0.707107
vn 0.000000 -0.707107 -0.707107
vn 1.000000 0.000000 0.000000
vn 1.000000 0.000000 0.000000
vn 1.000000 0.000000 0.000000
vn 1.000000 0.000000 0.000000
vn 0.000000 0.707111 0.707103
vn 0.000000 0.707111 0.707103
vn 0.000000 0.707111 0.707103
vn 0.000000 0.707111 0.707103
vn 0.000000 0.707107 -0.707107
vn 0.000000 0.707107 -0.707107
vn 0.000000 0.707107 -0.707107
vn 0.000000 0.707107 -0.707107
vn 0.000000 -0.707111 0.707103
vn 0.000000 -0.707111 0.707103
vn 0.000000 -0.707111 0.707103
vn 0.000000 -0.707111 0.707103
s off
f 26/1/1 27/2/2 25/3/3
f 27/2/4 28/4/5 25/3/6
f 25/3/7 28/4/8 29/5/9
f 26/6/10 30/7/11 31/8/12 32/9/13
f 26/1/14 32/10/15 27/2/16
f 34/11/17 33/12/18 35/13/19 36/14/20
f 33/12/21 37/15/22 38/16/23 35/13/24
f 37/15/25 39/17/26 40/18/27 38/16/28
f 42/19/29 41/20/30 43/21/31 44/22/32
f 41/20/33 34/11/34 36/14/35 43/21/36
f 39/17/37 45/23/38 46/24/39 40/18/40
f 45/23/41 31/8/42 47/25/43 46/24/44
f 31/8/45 30/7/46 48/26/47 47/25/48
f 30/7/49 42/19/50 44/22/51 48/26/52
f 15/27/53 14/28/54 49/29/55 8/30/56
f 8/31/57 11/32/58 1/33/59 10/34/60
f 8/35/61 49/36/62 12/37/63 11/38/64
f 3/39/65 17/40/66 16/41/67 6/42/68
f 6/42/69 16/41/70 18/43/71 5/44/72
f 5/44/73 18/43/74 19/45/75 2/46/76
f 7/47/77 21/48/78 20/49/79 9/50/80
f 9/50/81 20/49/82 17/40/83 3/39/84
f 2/46/85 19/45/86 22/51/87 4/52/88
f 4/52/89 22/51/90 23/53/91 1/33/92
f 1/33/93 23/53/94 24/54/95 10/34/96
f 10/34/97 24/54/98 21/48/99 7/47/100
f 15/55/101 8/56/102 26/1/103 25/3/104
f 12/57/105 13/58/106 28/4/107 27/2/108
f 13/58/109 14/59/110 29/5/111 28/4/112
f 14/59/113 15/55/114 25/3/115 29/5/116
f 8/31/117 10/34/118 30/7/119 26/6/120
f 1/33/121 11/32/122 32/9/123 31/8/124
f 11/60/125 12/57/126 27/2/127 32/10/128
f 3/39/129 6/42/130 33/12/131 34/11/132
f 16/41/133 17/40/134 36/14/135 35/13/136
f 6/42/137 5/44/138 37/15/139 33/12/140
f 18/43/141 16/41/142 35/13/143 38/16/144
f 5/44/145 2/46/146 39/17/147 37/15/148
f 19/45/149 18/43/150 38/16/151 40/18/152
f 7/47/153 9/50/154 41/20/155 42/19/156
f 20/49/157 21/48/158 44/22/159 43/21/160
f 9/50/161 3/39/162 34/11/163 41/20/164
f 17/40/165 20/49/166 43/21/167 36/14/168
f 2/46/169 4/52/170 45/23/171 39/17/172
f 22/51/173 19/45/174 40/18/175 46/24/176
f 4/52/177 1/33/178 31/8/179 45/23/180
f 23/53/181 22/51/182 46/24/183 47/25/184
f 24/54/185 23/53/186 47/25/187 48/26/188
f 10/34/189 7/47/190 42/19/191 30/7/192
f 21/48/193 24/54/194 48/26/195 44/22/196
f 49/36/197 14/61/198 13/62/199 12/37/200
f 71/63/201 70/64/202 72/65/203 73/66/204
f 72/65/205 74/67/206 75/68/207 76/69/208
f 74/67/209 77/70/210 78/71/211 75/68/212
f 77/70/213 79/72/214 80/73/215 78/71/216
f 79/72/217 81/74/218 82/75/219 80/73/220
f 81/74/221 83/76/222 84/77/223 82/75/224
f 83/76/225 73/66/226 85/78/227 84/77/228
f 73/66/229 72/65/230 76/69/231 85/78/232
f 91/79/233 70/80/234 94/81/235
f 70/80/236 71/82/237 94/81/238
f 71/82/239 90/83/240 94/81/241
f 87/84/242 95/85/243 89/86/244
f 64/87/245 56/88/246 53/89/247 65/90/248
f 53/89/249 57/91/250 58/92/251 55/93/252
f 55/93/253 58/92/254 59/94/255 54/95/256
f 54/95/257 59/94/258 60/96/259 50/97/260
f 50/97/261 60/96/262 61/98/263 52/99/264
f 52/99/265 61/98/266 62/100/267 51/101/268
f 51/101/269 62/100/270 63/102/271 56/88/272
f 56/88/273 63/102/274 57/91/275 53/89/276
f 92/103/277 96/104/278 65/105/279
f 96/104/280 93/106/281 65/105/282
f 65/105/283 93/106/284 64/107/285
f 97/108/286 68/109/287 69/110/288 67/111/289
f 65/90/290 53/89/291 72/65/292 70/64/293
f 56/88/294 64/87/295 71/63/296 73/66/297
f 53/89/298 55/93/299 74/67/300 72/65/301
f 58/92/302 57/91/303 76/69/304 75/68/305
f 55/93/306 54/95/307 77/70/308 74/67/309
f 59/94/310 58/92/311 75/68/312 78/71/313
f 54/95/314 50/97/315 79/72/316 77/70/317
f 60/96/318 59/94/319 78/71/320 80/73/321
f 50/97/322 52/99/323 81/74/324 79/72/325
f 61/98/326 60/96/327 80/73/328 82/75/329
f 52/99/330 51/101/331 83/76/332 81/74/333
f 62/100/334 61/98/335 82/75/336 84/77/337
f 51/101/338 56/88/339 73/66/340 83/76/341
f 63/102/342 62/100/343 84/77/344 85/78/345
f 57/91/346 63/102/347 85/78/348 76/69/349
f 64/112/350 93/113/351 90/83/352 71/82/353
f 92/114/354 65/115/355 70/80/356 91/79/357
f 67/111/358 69/110/359 88/116/360 86/117/361
f 69/110/362 68/109/363 89/118/364 88/116/365
f 68/119/366 66/120/367 87/84/368 89/86/369
f 91/79/370 94/81/371 95/121/372 87/122/373
f 66/123/374 92/114/375 91/79/376 87/122/377
f 93/124/378 96/125/379 97/108/380 67/111/381
f 90/126/382 93/124/383 67/111/384 86/117/385
f 95/127/386 94/128/387 90/126/388 86/117/389
f 89/118/390 95/127/391 86/117/392 88/116/393
f 97/129/394 96/104/395 92/103/396 66/130/397
f 66/131/398 68/132/399 97/133/400
f 98/134/401 99/135/402 101/136/403 100/137/404
f 100/137/405 101/136/406 103/138/407 102/139/408
f 102/139/409 103/138/410 105/140/411 104/141/412
f 104/141/413 105/140/414 99/142/415 98/143/416
f 99/135/417 105/144/418 103/145/419 101/136/420
f 104/146/421 98/134/422 100/137/423 102/147/424
