# This file uses meters as units for non-parametric coordinates.

v -1.012329 -25.577820 2.120002
v -2.784393 -25.453842 2.838085
v -3.039871 -25.197159 4.719591
v -1.523285 -25.064438 5.883014
v 0.248779 -25.188400 5.164930
v 0.808319 -23.836418 3.246693
v 3.701538 23.748032 -0.757026
v 2.030731 24.170746 0.080188
v 1.846085 24.018234 1.981207
v 2.773315 22.705566 3.145223
v 5.003067 23.020325 2.207787
v 5.187698 23.172836 0.306774
v -1.267807 -25.321121 4.001508
v 3.516891 23.595535 1.143990
v -1.192795 -3.779526 3.024056
v -2.709381 -3.912247 1.860633
v -2.453903 -4.168930 -0.020873
v -0.681839 -4.292892 -0.738956
v 0.834747 -4.160172 0.424466
v 0.579285 -3.903488 2.305973
v 0.151596 3.557983 0.075238
v -1.607422 3.741882 -0.661850
v -1.944290 3.227585 -2.476578
v -0.522156 2.529404 -3.554218
v 1.236832 2.345505 -2.817125
v 1.573715 2.859802 -1.002397
vt 0.078906 0.303285
vt 0.078906 0.303285
vt 0.078906 0.303285
vt 0.078906 0.303285
vt 0.078906 0.303285
vt 0.078906 0.303285
vt 0.078906 0.303285
vt 0.078906 0.303285
vt 0.078906 0.303285
vt 0.078906 0.303285
vt 0.078906 0.303285
vt 0.078906 0.303285
vt 0.078906 0.303285
vt 0.078906 0.303285
vt 0.078906 0.303285
vt 0.078906 0.303285
vt 0.078906 0.303285
vt 0.078906 0.303285
vt 0.078906 0.303285
vt 0.078906 0.303285
vt 0.078906 0.303285
vt 0.078906 0.303285
vt 0.078906 0.303285
vt 0.078906 0.303285
vt 0.078906 0.303285
vt 0.078906 0.303285
vt 0.078906 0.303285
vt 0.078906 0.303285
vt 0.078906 0.303285
vt 0.078906 0.303285
vt 0.078906 0.303285
vt 0.078906 0.303285
vt 0.078906 0.303285
vt 0.078906 0.303285
vt 0.078906 0.303285
vt 0.078906 0.303285
vt 0.078906 0.303285
vt 0.078906 0.303285
vt 0.078906 0.303285
vt 0.078906 0.303285
vt 0.078906 0.303285
vt 0.078906 0.303285
vn -0.380006 -0.117338 -0.917511
vn -0.380006 -0.117338 -0.917511
vn -0.417153 -0.156254 -0.895304
vn -0.421205 -0.160558 -0.892641
vn -0.990951 -0.002638 -0.134195
vn -0.990951 -0.002638 -0.134195
vn -0.994481 0.023701 -0.102201
vn -0.994986 0.029021 -0.095710
vn -0.610947 0.114700 0.783319
vn -0.610947 0.114700 0.783319
vn -0.576118 0.184391 0.796297
vn -0.575367 0.185807 0.796511
vn 0.380005 0.117338 0.917512
vn 0.380005 0.117338 0.917512
vn 0.423901 0.162683 0.890978
vn 0.415301 0.153697 0.896606
vn 0.976256 0.021391 0.215562
vn 0.976256 0.021391 0.215562
vn 0.988315 -0.016771 0.151497
vn 0.985551 -0.006247 0.169267
vn 0.605027 -0.114554 -0.787921
vn 0.605027 -0.114554 -0.787921
vn 0.572633 -0.185383 -0.798576
vn 0.577770 -0.174722 -0.797279
vn -0.015388 -0.990982 0.133108
vn 0.403233 -0.897770 0.177237
vn 0.245943 -0.968601 0.036403
vn -0.015385 -0.990983 0.133105
vn -0.015388 -0.990982 0.133108
vn 0.245943 -0.968601 0.036403
vn -0.015385 -0.990982 0.133106
vn -0.015385 -0.990983 0.133105
vn 0.245943 -0.968601 0.036403
vn 0.273063 -0.928950 -0.249979
vn -0.015385 -0.990982 0.133106
vn 0.245943 -0.968601 0.036403
vn 0.544534 -0.828350 -0.131601
vn 0.273063 -0.928950 -0.249979
vn 0.245943 -0.968601 0.036403
vn 0.403233 -0.897770 0.177237
vn 0.544534 -0.828350 -0.131601
vn 0.245943 -0.968601 0.036403
vn 0.292903 0.950393 0.104690
vn 0.292905 0.950393 0.104694
vn 0.266459 0.931769 0.246590
vn 0.292905 0.950393 0.104694
vn 0.387539 0.856473 0.340980
vn 0.266459 0.931769 0.246590
vn 0.387539 0.856473 0.340980
vn 0.245549 0.848591 0.468614
vn 0.266459 0.931769 0.246590
vn 0.245549 0.848591 0.468614
vn 0.155145 0.943338 0.293333
vn 0.266459 0.931769 0.246590
vn 0.155145 0.943338 0.293333
vn 0.292900 0.950394 0.104693
vn 0.266459 0.931769 0.246590
vn 0.292900 0.950394 0.104693
vn 0.292903 0.950393 0.104690
vn 0.266459 0.931769 0.246590
vn -0.575367 0.185807 0.796511
vn -0.576118 0.184391 0.796297
vn -0.560134 0.093374 0.823123
vn -0.559587 0.095440 0.823258
vn -0.994986 0.029021 -0.095710
vn -0.994481 0.023701 -0.102201
vn -0.987209 0.158437 0.017761
vn -0.988377 0.151256 0.015264
vn -0.421205 -0.160558 -0.892641
vn -0.417153 -0.156254 -0.895304
vn -0.485346 0.099335 -0.868661
vn -0.494386 0.051449 -0.867719
vn 0.577770 -0.174722 -0.797279
vn 0.572633 -0.185383 -0.798576
vn 0.490412 -0.071842 -0.868525
vn 0.490235 -0.079935 -0.867917
vn 0.985551 -0.006247 0.169267
vn 0.988315 -0.016771 0.151497
vn 0.988162 -0.152550 -0.016262
vn 0.987329 -0.157662 -0.017998
vn 0.415301 0.153697 0.896606
vn 0.423901 0.162683 0.890978
vn 0.488540 -0.065760 0.870060
vn 0.480527 -0.105198 0.870647
vn -0.559587 0.095440 0.823258
vn -0.560134 0.093374 0.823123
vn -0.587348 -0.026709 0.808894
vn -0.587348 -0.026709 0.808894
vn -0.988377 0.151256 0.015264
vn -0.987209 0.158437 0.017761
vn -0.984388 0.174461 0.023341
vn -0.984388 0.174461 0.023341
vn -0.494386 0.051449 -0.867719
vn -0.485346 0.099335 -0.868661
vn -0.462476 0.199631 -0.863866
vn -0.462476 0.199631 -0.863866
vn 0.490235 -0.079935 -0.867917
vn 0.490412 -0.071842 -0.868525
vn 0.489956 0.027445 -0.871315
vn 0.489956 0.027445 -0.871315
vn 0.987329 -0.157662 -0.017998
vn 0.988162 -0.152550 -0.016262
vn 0.984528 -0.173652 -0.023433
vn 0.984528 -0.173652 -0.023433
vn 0.480527 -0.105198 0.870647
vn 0.488540 -0.065760 0.870060
vn 0.455649 -0.208408 0.865419
vn 0.455649 -0.208408 0.865419
s off
f 1/1/1 2/2/2 17/3/3 18/4/4
f 2/2/5 3/5/6 16/6/7 17/3/8
f 3/5/9 4/7/10 15/8/11 16/6/12
f 4/7/13 5/9/14 20/10/15 15/8/16
f 5/9/17 6/11/18 19/12/19 20/10/20
f 6/11/21 1/13/22 18/14/23 19/12/24
f 2/15/25 1/16/26 13/17/27
f 3/18/28 2/15/29 13/17/30
f 4/19/31 3/18/32 13/17/33
f 5/20/34 4/19/35 13/17/36
f 6/21/37 5/20/38 13/17/39
f 1/16/40 6/21/41 13/17/42
f 7/22/43 8/23/44 14/24/45
f 8/23/46 9/25/47 14/24/48
f 9/25/49 10/26/50 14/24/51
f 10/26/52 11/27/53 14/24/54
f 11/27/55 12/28/56 14/24/57
f 12/28/58 7/22/59 14/24/60
f 16/6/61 15/8/62 21/29/63 22/30/64
f 17/3/65 16/6/66 22/30/67 23/31/68
f 18/4/69 17/3/70 23/31/71 24/32/72
f 19/12/73 18/14/74 24/33/75 25/34/76
f 20/10/77 19/12/78 25/34/79 26/35/80
f 15/8/81 20/10/82 26/35/83 21/29/84
f 22/30/85 21/29/86 10/36/87 9/37/88
f 23/31/89 22/30/90 9/37/91 8/38/92
f 24/32/93 23/31/94 8/38/95 7/39/96
f 25/34/97 24/33/98 7/40/99 12/41/100
f 26/35/101 25/34/102 12/41/103 11/42/104
f 21/29/105 26/35/106 11/42/107 10/36/108
