# This file uses meters as units for non-parametric coordinates.

v 1.185013 -14.945892 5.188779
v 6.595161 -15.449203 3.197699
v -3.199974 -16.266731 1.261813
v 7.513092 -2.242802 -4.415022
v 6.845520 -1.487808 4.544988
v 0.875465 -2.545708 7.051122
v -5.227089 -3.461124 3.777078
v -6.214165 -3.705997 -4.906444
v 0.331512 -3.424809 -7.683990
v 0.952667 -17.923336 3.820901
v 5.527786 -18.703491 1.150936
v -2.896767 -18.464203 0.597443
v 6.017990 -18.082748 -5.373539
v -3.657806 -17.927040 -5.028788
v 7.158615 16.603989 -3.983242
v 7.572472 13.185455 4.178927
v -1.483727 13.350677 8.998870
v -7.119728 8.348038 6.685172
v -7.572472 11.488152 -6.220574
v -1.220657 11.461929 -8.998870
v -1.646957 19.933380 0.172361
v 1.514015 -20.194092 -1.166049
v 1.429520 -17.108852 -5.679317
v -3.305817 15.854584 -1.666838
v -3.116287 15.106339 1.783634
v -1.631271 16.195717 2.860451
v 1.300179 16.103760 1.384414
v 0.675568 17.259163 -1.032483
v -1.565285 15.812714 -2.478953
v -1.856392 19.921837 -2.042549
v -3.328178 19.937157 -1.304569
v -3.158226 19.803444 1.595406
v -1.916214 20.005478 2.459997
v 0.611908 19.977577 1.294137
v 0.074799 20.194092 -0.788599
vt 0.020393 0.187959
vt 0.020393 0.187959
vt 0.020393 0.187959
vt 0.020393 0.187959
vt 0.020393 0.187959
vt 0.020393 0.187959
vt 0.020393 0.187959
vt 0.020393 0.187959
vt 0.020393 0.187959
vt 0.020393 0.187959
vt 0.020393 0.187959
vt 0.020393 0.187959
vt 0.020393 0.187959
vt 0.020393 0.187959
vt 0.020393 0.187959
vt 0.020393 0.187959
vt 0.020393 0.187959
vt 0.020393 0.187959
vt 0.020393 0.187959
vt 0.020393 0.187959
vt 0.020393 0.187959
vt 0.020393 0.187959
vt 0.020393 0.187959
vt 0.020393 0.187959
vt 0.020393 0.187959
vt 0.020393 0.187959
vt 0.020393 0.187959
vt 0.020393 0.187959
vt 0.020393 0.187959
vt 0.020393 0.187959
vt 0.020393 0.187959
vt 0.020393 0.187959
vt 0.020393 0.187959
vt 0.020393 0.187959
vt 0.020393 0.187959
vn -0.977228 -0.177131 0.116833
vn -0.977228 -0.177131 0.116833
vn -0.977228 -0.177131 0.116833
vn -0.977228 -0.177131 0.116833
vn 0.998074 -0.059749 0.016695
vn 0.998074 -0.059749 0.016695
vn 0.998074 -0.059749 0.016695
vn 0.998074 -0.059749 0.016695
vn 0.369925 -0.111469 0.922350
vn 0.369925 -0.111469 0.922350
vn 0.369925 -0.111469 0.922350
vn 0.369925 -0.111469 0.922350
vn 0.412018 0.016239 -0.911031
vn 0.412018 0.016239 -0.911031
vn 0.412018 0.016239 -0.911031
vn -0.527198 -0.192611 0.827625
vn -0.527198 -0.192611 0.827625
vn -0.527198 -0.192611 0.827625
vn -0.527198 -0.192611 0.827625
vn 0.407529 -0.407295 0.817332
vn 0.407529 -0.407295 0.817331
vn 0.407529 -0.407295 0.817332
vn -0.587447 -0.299539 0.751786
vn -0.587447 -0.299539 0.751786
vn -0.587447 -0.299539 0.751786
vn -0.387625 -0.061766 -0.919746
vn -0.387625 -0.061766 -0.919746
vn -0.387625 -0.061766 -0.919746
vn 0.035772 -0.142047 -0.989213
vn 0.035772 -0.142047 -0.989213
vn 0.035772 -0.142047 -0.989213
vn 0.941941 -0.333502 0.039041
vn 0.941941 -0.333502 0.039041
vn 0.941941 -0.333502 0.039041
vn 0.236021 -0.571649 0.785819
vn 0.236021 -0.571649 0.785819
vn 0.236021 -0.571649 0.785819
vn -0.581579 -0.307895 0.752972
vn -0.581579 -0.307895 0.752972
vn -0.581579 -0.307895 0.752972
vn -0.978556 -0.170129 0.116123
vn -0.978556 -0.170129 0.116123
vn -0.978556 -0.170129 0.116123
vn 0.999852 -0.011136 0.013083
vn 0.999852 -0.011136 0.013083
vn 0.999852 -0.011136 0.013083
vn 0.999852 -0.011136 0.013083
vn 0.439228 -0.023015 0.898081
vn 0.439228 -0.023015 0.898081
vn 0.439228 -0.023015 0.898081
vn 0.439228 -0.023015 0.898081
vn -0.330874 -0.211946 0.919566
vn -0.330874 -0.211946 0.919566
vn -0.330874 -0.211946 0.919566
vn -0.330874 -0.211946 0.919566
vn -0.991251 -0.122272 0.049711
vn -0.991251 -0.122272 0.049711
vn -0.991251 -0.122272 0.049711
vn -0.991251 -0.122272 0.049711
vn -0.390916 -0.117607 -0.912882
vn -0.390916 -0.117607 -0.912882
vn -0.390916 -0.117607 -0.912882
vn -0.390916 -0.117607 -0.912882
vn 0.468874 0.003379 -0.883259
vn 0.468874 0.003379 -0.883259
vn 0.468874 0.003379 -0.883259
vn 0.468874 0.003379 -0.883259
vn 0.494697 0.145384 -0.856819
vn 0.494697 0.145384 -0.856819
vn 0.494697 0.145384 -0.856819
vn 0.494697 0.145384 -0.856819
vn 0.007443 0.999955 -0.005914
vn 0.007443 0.999955 -0.005914
vn 0.007443 0.999955 -0.005914
vn -0.040256 0.998018 0.048374
vn -0.040256 0.998018 0.048374
vn -0.040256 0.998018 0.048374
vn -0.128845 0.990579 -0.046384
vn -0.128845 0.990579 -0.046384
vn -0.128845 0.990579 -0.046384
vn -0.003697 0.999483 -0.031935
vn -0.003697 0.999483 -0.031935
vn -0.003697 0.999483 -0.031935
vn -0.080754 0.989036 0.123641
vn -0.080754 0.989036 0.123641
vn -0.080754 0.989036 0.123641
vn -0.198103 -0.900276 0.387632
vn -0.198103 -0.900276 0.387632
vn -0.198103 -0.900276 0.387632
vn -0.377733 -0.925166 -0.037235
vn -0.377733 -0.925166 -0.037235
vn -0.377733 -0.925166 -0.037235
vn -0.136690 -0.818986 -0.557295
vn -0.136690 -0.818986 -0.557295
vn -0.136690 -0.818986 -0.557295
vn 0.377550 -0.924072 -0.059550
vn 0.377550 -0.924072 -0.059550
vn 0.377550 -0.924072 -0.059550
vn 0.091945 -0.902295 0.421200
vn 0.091945 -0.902295 0.421200
vn 0.091945 -0.902295 0.421200
vn 0.060315 -0.823515 -0.564079
vn 0.060315 -0.823515 -0.564079
vn 0.060315 -0.823515 -0.564079
vn -0.101248 -0.152154 -0.983157
vn -0.101248 -0.152154 -0.983157
vn -0.101248 -0.152154 -0.983157
vn -0.788072 0.591212 0.171495
vn -0.788072 0.591212 0.171495
vn -0.788072 0.591212 0.171495
vn -0.788072 0.591212 0.171495
vn -0.699096 0.642178 0.314441
vn -0.699096 0.642178 0.314441
vn -0.699096 0.642178 0.314441
vn -0.699096 0.642178 0.314441
vn 0.231432 0.884766 0.404509
vn 0.231432 0.884766 0.404509
vn 0.231432 0.884766 0.404509
vn 0.231432 0.884766 0.404509
vn 0.255541 0.896293 0.362434
vn 0.255541 0.896293 0.362434
vn 0.255541 0.896293 0.362434
vn 0.255541 0.896293 0.362434
vn -0.169374 0.815630 -0.553228
vn -0.169374 0.815630 -0.553228
vn -0.169374 0.815630 -0.553228
vn -0.169374 0.815630 -0.553228
vn -0.236364 0.802421 -0.547954
vn -0.236364 0.802421 -0.547954
vn -0.236364 0.802421 -0.547953
vn -0.236364 0.802421 -0.547953
vn -0.432468 0.071086 -0.898843
vn -0.432468 0.071086 -0.898843
vn -0.432468 0.071086 -0.898843
vn -0.432468 0.071086 -0.898843
vn -0.998432 -0.008410 0.055351
vn -0.998432 -0.008410 0.055351
vn -0.998432 -0.008410 0.055351
vn -0.998432 -0.008410 0.055351
vn -0.590011 0.033154 0.806714
vn -0.590011 0.033154 0.806714
vn -0.590011 0.033154 0.806714
vn -0.590011 0.033154 0.806714
vn 0.434830 0.112142 0.893503
vn 0.434830 0.112142 0.893503
vn 0.434830 0.112142 0.893503
vn 0.434830 0.112142 0.893503
vn 0.963500 0.186739 -0.191822
vn 0.963500 0.186739 -0.191822
vn 0.963500 0.186739 -0.191822
vn 0.963500 0.186739 -0.191822
vn -0.145039 0.989389 0.008557
vn -0.145039 0.989389 0.008557
vn -0.145039 0.989389 0.008557
s off
f 7/1/1 8/2/2 14/3/3 3/4/4
f 13/5/5 4/6/6 5/7/7 2/8/8
f 2/8/9 5/7/10 6/9/11 1/10/12
f 9/11/13 4/6/14 13/5/15
f 6/9/16 7/1/17 3/4/18 1/10/19
f 11/12/20 1/10/21 10/13/22
f 12/14/23 10/13/24 1/10/25
f 8/2/26 9/11/27 14/3/28
f 9/11/29 13/5/30 23/23/31
f 13/5/32 2/8/33 11/12/34
f 11/12/35 2/8/36 1/10/37
f 3/4/38 12/14/39 1/10/40
f 14/3/41 12/14/42 3/4/43
f 5/7/44 4/6/45 15/15/46 16/16/47
f 6/9/48 5/7/49 16/16/50 17/17/51
f 17/17/52 18/18/53 7/1/54 6/9/55
f 19/19/56 8/2/57 7/1/58 18/18/59
f 19/19/60 20/20/61 9/11/62 8/2/63
f 20/20/64 15/15/65 4/6/66 9/11/67
f 28/28/68 29/29/69 30/30/70 35/35/71
f 30/30/72 31/31/73 21/21/74
f 31/31/75 32/32/76 21/21/77
f 32/32/78 33/33/79 21/21/80
f 33/33/81 34/34/82 21/21/83
f 34/34/84 35/35/85 21/21/86
f 10/13/87 12/14/88 22/22/89
f 12/14/90 14/3/91 22/22/92
f 22/22/93 23/23/94 13/5/95
f 13/5/96 11/12/97 22/22/98
f 11/12/99 10/13/100 22/22/101
f 14/3/102 23/23/103 22/22/104
f 9/11/105 23/23/106 14/3/107
f 19/19/108 18/18/109 25/25/110 24/24/111
f 18/18/112 17/17/113 26/26/114 25/25/115
f 17/17/116 16/16/117 27/27/118 26/26/119
f 16/16/120 15/15/121 28/28/122 27/27/123
f 15/15/124 20/20/125 29/29/126 28/28/127
f 20/20/128 19/19/129 24/24/130 29/29/131
f 29/29/132 24/24/133 31/31/134 30/30/135
f 24/24/136 25/25/137 32/32/138 31/31/139
f 25/25/140 26/26/141 33/33/142 32/32/143
f 26/26/144 27/27/145 34/34/146 33/33/147
f 27/27/148 28/28/149 35/35/150 34/34/151
f 35/35/152 30/30/153 21/21/154
