# This file uses meters as units for non-parametric coordinates.

v -24.256989 3.166962 -3.078014
v -21.422688 1.598648 0.590452
v -22.818489 -2.919785 2.059757
v -23.628468 -5.118210 -1.493257
v -25.784569 0.652069 -7.899862
v -24.240875 -2.818420 -7.494234
v -18.348423 5.458832 -3.501111
v -18.018833 2.457428 2.171220
v -18.429718 -2.803802 4.265446
v -19.598541 -5.458832 -1.223498
v -19.143463 2.428436 -7.758504
v -19.768341 -3.256989 -6.702310
v 3.600815 2.070847 -2.191153
v 2.927208 0.771866 1.037625
v 2.838554 -1.501648 2.064473
v 3.140121 -2.190155 -0.820256
v 3.279350 0.833878 -4.771756
v 3.067215 -1.341492 -4.350499
v -22.128082 1.782990 -8.220942
v -22.631252 -2.974701 -7.340127
v -18.591095 -0.470734 -7.867795
v -21.629543 -0.702667 -9.447461
v -7.264801 1.573944 1.034003
v -7.464020 -1.888275 2.524781
v -7.142731 -3.580475 -1.331335
v -7.285431 -2.136993 -5.268508
v -6.990997 -0.357819 -5.976133
v -6.788727 1.563263 -5.998927
v -6.744537 3.543854 -2.989799
v 13.861938 3.690170 -0.100246
v 12.066864 -0.260132 7.355838
v 12.589996 1.251328 -7.614832
v 13.711411 -1.330688 -7.034180
v 13.455139 -0.301208 2.881641
v 10.992714 -2.597122 7.632370
v 16.568092 -4.621048 9.447461
v 16.885674 -5.290329 6.837610
v 18.155312 -1.900879 9.049646
v 18.552338 -2.176926 6.789472
v 18.461746 3.208679 0.554613
v 15.630287 0.973557 -8.296875
v 6.550201 -1.967056 -5.911830
v 6.682701 -3.157288 0.790869
v 5.751579 -2.128525 5.077078
v 5.929169 1.357056 3.168870
v 6.548309 3.421997 -2.495701
v 6.668091 1.810501 -6.822102
v 12.729279 2.882584 2.803762
v 17.863853 3.086472 3.114023
v 14.424118 -0.681168 5.095758
v 13.709503 -0.500320 8.335726
v 12.511139 -3.551270 8.863016
v 11.439919 -3.244675 4.554012
v 17.413597 0.217377 3.403270
v 14.584457 -0.276245 -0.824423
v 18.169685 0.511124 0.181146
v 15.537346 -0.740982 -7.463916
v 26.044022 1.377899 1.151816
v 25.508682 1.378494 4.111317
v 21.534538 -0.354721 -9.336009
v 24.229996 -0.584183 3.969738
v 24.834808 -0.668045 0.688722
v 21.053520 -1.747223 -8.903670
v 11.570488 1.338043 4.541066
v 17.941772 -3.542618 9.386432
v 18.651070 2.835571 -0.630100
v 26.060379 1.135651 -0.688951
v 25.480164 -0.631287 -0.509753
v 18.455421 0.847534 -0.358561
v 21.037247 -0.145889 3.764384
v 21.627396 2.451080 3.537166
v 22.322426 2.490158 0.908390
v 22.041275 -0.130096 0.522216
v 18.605812 -1.187653 -8.425344
v 22.901062 -0.016037 -0.402025
v 23.444542 1.841385 -0.594547
v 18.956444 0.315369 -8.947594
v 25.109283 0.221085 4.375010
v 25.768585 0.169159 0.780906
v 13.176285 -0.215393 4.701840
v 13.830666 -4.197495 5.117095
v 11.220650 -1.627792 1.862177
v 13.675026 3.343018 -3.511557
v 18.472115 2.426788 -3.923681
v 22.218834 1.584259 -4.041917
v 25.327087 0.852951 -4.281410
v 24.796036 -0.746445 -4.093364
v 22.027596 -0.163651 -3.884891
v 18.449509 0.277527 -3.659245
v 23.487144 0.277756 -7.386032
v 22.981834 -1.218124 -7.075812
v 20.964455 0.952667 -6.862157
v 17.092422 1.614670 -6.625844
v 13.139389 2.199081 -5.902823
v 20.262909 -0.703873 -6.603460
v 17.402145 -0.283218 -6.149839
v 14.596069 -0.717773 -4.097065
v -26.060371 0.108246 -1.293292
vt 0.020393 0.187959
vt 0.020393 0.187959
vt 0.020393 0.187959
vt 0.020393 0.187959
vt 0.020393 0.187959
vt 0.020393 0.187959
vt 0.020393 0.187959
vt 0.020393 0.187959
vt 0.020393 0.187959
vt 0.020393 0.187959
vt 0.020393 0.187959
vt 0.020393 0.187959
vt 0.020393 0.187959
vt 0.020393 0.187959
vt 0.020393 0.187959
vt 0.020393 0.187959
vt 0.020393 0.187959
vt 0.020393 0.187959
vt 0.020393 0.187959
vt 0.020393 0.187959
vt 0.020393 0.187959
vt 0.020393 0.187959
vt 0.020393 0.187959
vt 0.020393 0.187959
vt 0.020393 0.187959
vt 0.020393 0.187959
vt 0.020393 0.187959
vt 0.020393 0.187959
vt 0.020393 0.187959
vt 0.020393 0.187959
vt 0.020393 0.187959
vt 0.020393 0.187959
vt 0.020393 0.187959
vt 0.020393 0.187959
vt 0.020393 0.187959
vt 0.020393 0.187959
vt 0.020393 0.187959
vt 0.020393 0.187959
vt 0.020393 0.187959
vt 0.020393 0.187959
vt 0.020393 0.187959
vt 0.020393 0.187959
vt 0.020393 0.187959
vt 0.020393 0.187959
vt 0.020393 0.187959
vt 0.020393 0.187959
vt 0.020393 0.187959
vt 0.020393 0.187959
vt 0.020393 0.187959
vt 0.020393 0.187959
vt 0.020393 0.187959
vt 0.020393 0.187959
vt 0.020393 0.187959
vt 0.020393 0.187959
vt 0.020393 0.187959
vt 0.020393 0.187959
vt 0.020393 0.187959
vt 0.020393 0.187959
vt 0.020393 0.187959
vt 0.020393 0.187959
vt 0.020393 0.187959
vt 0.020393 0.187959
vt 0.020393 0.187959
vt 0.020393 0.187959
vt 0.020393 0.187959
vt 0.020393 0.187959
vt 0.020393 0.187959
vt 0.020393 0.187959
vt 0.020393 0.187959
vt 0.020393 0.187959
vt 0.020393 0.187959
vt 0.020393 0.187959
vt 0.020393 0.187959
vt 0.020393 0.187959
vt 0.020393 0.187959
vt 0.020393 0.187959
vt 0.020393 0.187959
vt 0.020393 0.187959
vt 0.020393 0.187959
vt 0.020393 0.187959
vt 0.020393 0.187959
vt 0.020393 0.187959
vt 0.020393 0.187959
vt 0.020393 0.187959
vt 0.020393 0.187959
vt 0.020393 0.187959
vt 0.020393 0.187959
vt 0.020393 0.187959
vt 0.020393 0.187959
vt 0.020393 0.187959
vt 0.020393 0.187959
vt 0.020393 0.187959
vt 0.020393 0.187959
vt 0.020393 0.187959
vt 0.020393 0.187959
vt 0.020393 0.187959
vt 0.020393 0.187959
vt 0.020393 0.187959
vn -0.310291 0.820743 0.479688
vn -0.310291 0.820743 0.479688
vn -0.310291 0.820743 0.479688
vn -0.310291 0.820743 0.479688
vn -0.263618 -0.843130 0.468654
vn -0.263618 -0.843130 0.468654
vn -0.263618 -0.843130 0.468654
vn -0.263618 -0.843130 0.468654
vn -0.362740 0.851239 -0.379226
vn -0.362740 0.851239 -0.379226
vn -0.362740 0.851239 -0.379226
vn -0.362740 0.851239 -0.379226
vn -0.161313 -0.955986 -0.245090
vn -0.161313 -0.955986 -0.245090
vn -0.161313 -0.955986 -0.245090
vn -0.161313 -0.955986 -0.245090
vn -0.224171 0.394713 -0.891038
vn -0.224171 0.394713 -0.891038
vn -0.224171 0.394713 -0.891038
vn -0.333671 0.374317 0.865188
vn -0.333671 0.374317 0.865188
vn -0.333671 0.374317 0.865188
vn -0.333671 0.374317 0.865188
vn 0.055867 0.908508 0.414117
vn 0.055867 0.908507 0.414117
vn 0.055867 0.908508 0.414117
vn 0.055867 0.908508 0.414117
vn 0.105534 -0.934586 0.339723
vn 0.105534 -0.934586 0.339723
vn 0.105534 -0.934586 0.339723
vn 0.105534 -0.934586 0.339723
vn 0.120553 0.858628 -0.498222
vn 0.120553 0.858628 -0.498223
vn 0.120553 0.858628 -0.498223
vn 0.120553 0.858628 -0.498222
vn 0.151171 -0.943324 -0.295444
vn 0.151171 -0.943324 -0.295444
vn 0.151171 -0.943324 -0.295444
vn 0.151171 -0.943324 -0.295444
vn 0.125617 -0.024994 -0.991764
vn 0.125617 -0.024994 -0.991764
vn 0.125617 -0.024994 -0.991764
vn 0.010187 0.400675 0.916164
vn 0.010187 0.400675 0.916164
vn 0.010187 0.400675 0.916164
vn 0.010187 0.400675 0.916164
vn -0.089403 0.819241 -0.566438
vn -0.089403 0.819241 -0.566438
vn -0.089403 0.819241 -0.566438
vn 0.271131 0.281270 -0.920530
vn 0.271131 0.281270 -0.920530
vn 0.271131 0.281270 -0.920530
vn 0.271131 0.281270 -0.920530
vn -0.008473 -0.927930 -0.372660
vn -0.008473 -0.927929 -0.372660
vn -0.008473 -0.927929 -0.372660
vn 0.149132 -0.211732 -0.965883
vn 0.149132 -0.211732 -0.965883
vn 0.149132 -0.211732 -0.965883
vn 0.128810 -0.384822 -0.913958
vn 0.128810 -0.384823 -0.913958
vn 0.128810 -0.384822 -0.913958
vn 0.276056 -0.603120 -0.748358
vn 0.276056 -0.603120 -0.748358
vn 0.276056 -0.603120 -0.748358
vn 0.276056 -0.603120 -0.748358
vn -0.453312 -0.112266 -0.884254
vn -0.453312 -0.112266 -0.884254
vn -0.453312 -0.112266 -0.884254
vn 0.001436 -0.680373 -0.732864
vn 0.001436 -0.680373 -0.732864
vn 0.001436 -0.680373 -0.732864
vn 0.121493 0.370017 0.921047
vn 0.121493 0.370017 0.921047
vn 0.121493 0.370017 0.921047
vn 0.121493 0.370017 0.921047
vn 0.139803 -0.902580 0.407192
vn 0.139803 -0.902580 0.407192
vn 0.139803 -0.902580 0.407192
vn 0.139803 -0.902580 0.407192
vn 0.130221 -0.923151 -0.361712
vn 0.130221 -0.923151 -0.361712
vn 0.130221 -0.923151 -0.361712
vn 0.130221 -0.923151 -0.361712
vn 0.145262 -0.415269 -0.898026
vn 0.145262 -0.415269 -0.898026
vn 0.145262 -0.415269 -0.898026
vn 0.145262 -0.415269 -0.898026
vn 0.151501 0.028733 -0.988039
vn 0.151501 0.028733 -0.988039
vn 0.151501 0.028733 -0.988039
vn 0.151501 0.028733 -0.988039
vn 0.147852 0.806125 -0.572977
vn 0.147852 0.806125 -0.572977
vn 0.147852 0.806125 -0.572977
vn 0.147852 0.806125 -0.572977
vn 0.123138 0.882101 0.454682
vn 0.123138 0.882101 0.454682
vn 0.123138 0.882101 0.454682
vn 0.123138 0.882101 0.454682
vn -0.303405 0.909008 0.285743
vn -0.303405 0.909008 0.285743
vn -0.303405 0.909008 0.285743
vn -0.303405 0.909008 0.285743
vn -0.368280 0.870212 -0.327264
vn -0.368280 0.870212 -0.327264
vn -0.368280 0.870212 -0.327264
vn -0.368280 0.870212 -0.327264
vn -0.468386 -0.132100 -0.873593
vn -0.468386 -0.132100 -0.873593
vn -0.468386 -0.132100 -0.873593
vn -0.468386 -0.132100 -0.873593
vn -0.289720 -0.938281 -0.188920
vn -0.289720 -0.938281 -0.188920
vn -0.289720 -0.938281 -0.188920
vn -0.289720 -0.938281 -0.188920
vn -0.413285 -0.896287 0.160830
vn -0.413285 -0.896287 0.160830
vn -0.413284 -0.896287 0.160830
vn -0.413284 -0.896287 0.160830
vn -0.569219 0.425886 0.703285
vn -0.569219 0.425886 0.703285
vn -0.569219 0.425886 0.703285
vn -0.569219 0.425886 0.703285
vn -0.392376 -0.913198 0.110047
vn -0.392376 -0.913198 0.110047
vn -0.392376 -0.913198 0.110047
vn -0.392376 -0.913198 0.110047
vn -0.075259 0.178670 0.981027
vn -0.075259 0.178670 0.981027
vn -0.075259 0.178670 0.981027
vn 0.087459 0.980705 0.174841
vn 0.087459 0.980705 0.174841
vn 0.087459 0.980705 0.174841
vn 0.087459 0.980705 0.174841
vn 0.173429 0.905119 -0.388178
vn 0.173429 0.905119 -0.388178
vn 0.173429 0.905119 -0.388178
vn 0.173429 0.905119 -0.388178
vn 0.392152 -0.910940 0.128081
vn 0.392152 -0.910940 0.128081
vn 0.392152 -0.910940 0.128081
vn -0.244837 -0.951709 0.185216
vn -0.244837 -0.951709 0.185216
vn -0.244837 -0.951709 0.185216
vn -0.244837 -0.951709 0.185216
vn -0.376797 0.423395 0.823869
vn -0.376797 0.423395 0.823869
vn -0.376797 0.423395 0.823869
vn -0.376797 0.423395 0.823869
vn -0.086534 0.953556 0.288518
vn -0.086534 0.953556 0.288518
vn -0.086534 0.953556 0.288518
vn -0.086534 0.953556 0.288518
vn 0.072155 0.992638 -0.097278
vn 0.072155 0.992638 -0.097278
vn 0.072155 0.992638 -0.097278
vn -0.162984 -0.231350 -0.959121
vn -0.162984 -0.231350 -0.959121
vn -0.162984 -0.231350 -0.959121
vn -0.162984 -0.231350 -0.959121
vn 0.705275 0.650019 0.282954
vn 0.705275 0.650019 0.282954
vn 0.705275 0.650019 0.282954
vn 0.394703 0.918735 -0.011654
vn 0.394703 0.918735 -0.011654
vn 0.394703 0.918735 -0.011654
vn 0.394703 0.918735 -0.011654
vn -0.429368 0.348392 0.833226
vn -0.429368 0.348392 0.833226
vn -0.429368 0.348392 0.833226
vn -0.429368 0.348392 0.833226
vn 0.543429 -0.706158 -0.453901
vn 0.543429 -0.706158 -0.453901
vn 0.543429 -0.706158 -0.453901
vn -0.085021 0.058856 0.994639
vn -0.085021 0.058856 0.994639
vn -0.085021 0.058856 0.994639
vn -0.085021 0.058856 0.994639
vn 0.094495 -0.995518 -0.003737
vn 0.094495 -0.995518 -0.003737
vn 0.094495 -0.995518 -0.003737
vn 0.094495 -0.995518 -0.003737
vn 0.180841 -0.980823 0.072691
vn 0.180841 -0.980823 0.072691
vn 0.180841 -0.980823 0.072691
vn 0.180841 -0.980823 0.072691
vn -0.219025 -0.327953 -0.918953
vn -0.219025 -0.327953 -0.918953
vn -0.219025 -0.327953 -0.918953
vn -0.219025 -0.327953 -0.918953
vn 0.242399 0.967278 0.074939
vn 0.242399 0.967278 0.074939
vn 0.242399 0.967278 0.074939
vn 0.242399 0.967278 0.074939
vn 0.237604 0.916660 -0.321372
vn 0.237604 0.916660 -0.321372
vn 0.237604 0.916660 -0.321372
vn 0.237604 0.916660 -0.321372
vn -0.075620 0.113043 0.990708
vn -0.075620 0.113043 0.990708
vn -0.075620 0.113043 0.990708
vn -0.075620 0.113043 0.990708
vn -0.200654 -0.976026 -0.084326
vn -0.200654 -0.976026 -0.084326
vn -0.200653 -0.976026 -0.084326
vn -0.200653 -0.976026 -0.084326
vn -0.124740 -0.932028 0.340242
vn -0.124740 -0.932028 0.340242
vn -0.124740 -0.932028 0.340242
vn -0.124740 -0.932028 0.340242
vn -0.314887 -0.311960 -0.896397
vn -0.314887 -0.311960 -0.896397
vn -0.314887 -0.311960 -0.896397
vn -0.314887 -0.311960 -0.896397
vn 0.921807 -0.349545 0.167601
vn 0.921807 -0.349546 0.167601
vn 0.921807 -0.349545 0.167601
vn 0.921807 -0.349546 0.167601
vn 0.663633 -0.442191 -0.603373
vn 0.663633 -0.442191 -0.603373
vn 0.663633 -0.442191 -0.603373
vn 0.663633 -0.442191 -0.603373
vn 0.039401 -0.985399 0.165638
vn 0.039401 -0.985399 0.165638
vn 0.039401 -0.985399 0.165638
vn 0.232609 -0.956194 -0.177724
vn 0.232609 -0.956194 -0.177724
vn 0.232609 -0.956194 -0.177724
vn 0.750343 0.123978 0.649319
vn 0.750343 0.123978 0.649319
vn 0.750343 0.123978 0.649319
vn 0.970322 -0.165196 0.176596
vn 0.970322 -0.165196 0.176596
vn 0.970322 -0.165196 0.176596
vn 0.366182 -0.165296 -0.915745
vn 0.366182 -0.165296 -0.915744
vn 0.366182 -0.165296 -0.915745
vn 0.366182 -0.165296 -0.915745
vn -0.079825 0.791417 0.606042
vn -0.079825 0.791417 0.606042
vn -0.079825 0.791417 0.606042
vn -0.051586 0.858589 0.510063
vn -0.051586 0.858589 0.510063
vn -0.051586 0.858589 0.510063
vn 0.814293 -0.561497 0.147135
vn 0.814293 -0.561497 0.147135
vn 0.814293 -0.561497 0.147135
vn 0.743287 0.665280 0.070197
vn 0.743287 0.665280 0.070197
vn 0.743287 0.665280 0.070197
vn -0.067618 0.213445 0.974612
vn -0.067618 0.213445 0.974612
vn -0.067618 0.213445 0.974612
vn -0.072555 0.207839 0.975468
vn -0.072555 0.207839 0.975468
vn -0.072555 0.207839 0.975469
vn 0.544716 -0.797390 0.259720
vn 0.544716 -0.797390 0.259720
vn 0.544716 -0.797390 0.259720
vn 0.841662 -0.537832 -0.048382
vn 0.841662 -0.537832 -0.048382
vn 0.841662 -0.537832 -0.048382
vn 0.114985 0.124072 -0.985589
vn 0.114985 0.124072 -0.985589
vn 0.114985 0.124072 -0.985589
vn 0.114985 0.124072 -0.985588
vn 0.009742 -0.079689 0.996772
vn 0.009742 -0.079689 0.996772
vn 0.009742 -0.079689 0.996772
vn 0.009742 -0.079689 0.996772
vn 0.038546 0.108838 0.993312
vn 0.038546 0.108838 0.993312
vn 0.038546 0.108838 0.993312
vn 0.038546 0.108838 0.993312
vn 0.196638 0.160573 -0.967238
vn 0.196638 0.160573 -0.967238
vn 0.196638 0.160573 -0.967238
vn 0.196638 0.160573 -0.967238
vn -0.112754 0.167889 0.979336
vn -0.112754 0.167889 0.979336
vn -0.112754 0.167889 0.979336
vn -0.112754 0.167889 0.979336
vn 0.342147 0.937195 0.067834
vn 0.342147 0.937195 0.067834
vn 0.342147 0.937195 0.067834
vn 0.342147 0.937195 0.067834
vn 0.093727 0.178289 -0.979504
vn 0.093727 0.178289 -0.979504
vn 0.093727 0.178289 -0.979504
vn 0.093727 0.178289 -0.979504
vn -0.234334 -0.971639 -0.031705
vn -0.234334 -0.971639 -0.031705
vn -0.234334 -0.971639 -0.031705
vn -0.234334 -0.971639 -0.031705
vn -0.189784 -0.908556 0.372167
vn -0.189784 -0.908556 0.372167
vn -0.189784 -0.908556 0.372167
vn -0.189784 -0.908556 0.372167
vn 0.071921 0.074398 0.994632
vn 0.071921 0.074398 0.994632
vn 0.071921 0.074398 0.994632
vn 0.071921 0.074398 0.994632
vn 0.263615 0.920059 -0.289824
vn 0.263615 0.920059 -0.289824
vn 0.263615 0.920059 -0.289824
vn 0.263615 0.920060 -0.289824
vn -0.246750 -0.225064 -0.942582
vn -0.246750 -0.225064 -0.942582
vn -0.246750 -0.225064 -0.942582
vn -0.246750 -0.225064 -0.942582
vn -0.129009 -0.345032 0.929682
vn -0.129009 -0.345032 0.929683
vn -0.129009 -0.345032 0.929683
vn 0.586327 -0.800111 0.126658
vn 0.586327 -0.800111 0.126658
vn 0.586327 -0.800111 0.126658
vn 0.586327 -0.800111 0.126658
vn 0.063069 0.034861 -0.997400
vn 0.063069 0.034861 -0.997400
vn 0.063069 0.034861 -0.997400
vn 0.291190 0.955511 0.046979
vn 0.291190 0.955511 0.046979
vn 0.291190 0.955511 0.046979
vn 0.291190 0.955511 0.046979
vn 0.219502 -0.076686 -0.972593
vn 0.219502 -0.076686 -0.972593
vn 0.219502 -0.076686 -0.972594
vn 0.219502 -0.076686 -0.972594
vn -0.522738 -0.851044 0.049695
vn -0.522738 -0.851044 0.049695
vn -0.522738 -0.851044 0.049695
vn -0.522738 -0.851044 0.049695
vn 0.316650 -0.803525 -0.504064
vn 0.316650 -0.803525 -0.504064
vn 0.316650 -0.803525 -0.504064
vn 0.257938 -0.964006 -0.064509
vn 0.257938 -0.964006 -0.064509
vn 0.257938 -0.964006 -0.064509
vn 0.044914 0.926150 -0.374473
vn 0.044914 0.926149 -0.374473
vn 0.044914 0.926150 -0.374473
vn 0.044914 0.926149 -0.374473
vn 0.242637 0.963053 -0.116860
vn 0.242637 0.963053 -0.116860
vn 0.242637 0.963053 -0.116860
vn 0.242637 0.963053 -0.116860
vn 0.279614 0.950375 -0.136395
vn 0.279614 0.950375 -0.136395
vn 0.279614 0.950375 -0.136395
vn 0.279614 0.950375 -0.136395
vn 0.305650 0.942299 -0.136570
vn 0.305650 0.942299 -0.136570
vn 0.305650 0.942299 -0.136570
vn 0.305650 0.942299 -0.136569
vn 0.902315 -0.394940 -0.172770
vn 0.902315 -0.394940 -0.172770
vn 0.902315 -0.394940 -0.172770
vn 0.902315 -0.394940 -0.172770
vn -0.286536 -0.954655 0.080808
vn -0.286536 -0.954655 0.080808
vn -0.286536 -0.954655 0.080808
vn -0.286536 -0.954655 0.080808
vn -0.229026 -0.965865 0.121046
vn -0.229026 -0.965865 0.121046
vn -0.229027 -0.965865 0.121046
vn -0.229027 -0.965865 0.121046
vn 0.184097 -0.969988 0.158841
vn 0.184097 -0.969988 0.158841
vn 0.184097 -0.969988 0.158841
vn 0.160341 -0.979022 0.125723
vn 0.160341 -0.979022 0.125723
vn 0.160341 -0.979022 0.125723
vn 0.797363 -0.408559 -0.444176
vn 0.797363 -0.408559 -0.444176
vn 0.797363 -0.408559 -0.444176
vn 0.797363 -0.408559 -0.444176
vn 0.221544 0.874920 -0.430620
vn 0.221544 0.874920 -0.430620
vn 0.221544 0.874920 -0.430620
vn 0.221544 0.874920 -0.430620
vn 0.181090 0.893616 -0.410678
vn 0.181090 0.893616 -0.410678
vn 0.181090 0.893616 -0.410678
vn 0.181090 0.893616 -0.410678
vn 0.089450 0.896940 -0.433009
vn 0.089450 0.896940 -0.433009
vn 0.089450 0.896940 -0.433009
vn 0.089450 0.896940 -0.433009
vn 0.080848 0.870645 -0.485222
vn 0.080848 0.870645 -0.485222
vn 0.080848 0.870645 -0.485222
vn -0.227638 -0.937099 0.264623
vn -0.227638 -0.937099 0.264623
vn -0.227638 -0.937099 0.264623
vn -0.227638 -0.937099 0.264623
vn -0.173121 -0.951369 0.254804
vn -0.173121 -0.951370 0.254804
vn -0.173121 -0.951370 0.254804
vn -0.173121 -0.951369 0.254804
vn 0.161932 -0.980315 0.112961
vn 0.161932 -0.980315 0.112961
vn 0.161932 -0.980315 0.112961
vn 0.047851 -0.990535 0.128648
vn 0.047851 -0.990535 0.128648
vn 0.047851 -0.990535 0.128648
vn -0.457136 0.633672 0.624089
vn -0.457136 0.633672 0.624089
vn -0.457136 0.633672 0.624089
vn -0.859840 0.510526 0.006129
vn -0.859840 0.510526 0.006129
vn -0.859840 0.510526 0.006129
vn -0.908182 -0.412362 -0.071857
vn -0.908182 -0.412362 -0.071857
vn -0.908182 -0.412362 -0.071857
vn -0.905546 -0.418752 -0.068067
vn -0.905546 -0.418752 -0.068067
vn -0.905546 -0.418752 -0.068067
vn -0.812465 -0.394470 0.429294
vn -0.812465 -0.394470 0.429294
vn -0.812465 -0.394470 0.429294
vn -0.452234 0.399076 0.797636
vn -0.452234 0.399076 0.797636
vn -0.452234 0.399076 0.797636
s off
f 1/1/1 2/2/2 8/3/3 7/4/4
f 3/5/5 4/6/6 10/7/7 9/8/8
f 5/9/9 1/1/10 7/4/11 19/10/12
f 4/6/13 6/11/14 20/12/15 10/7/16
f 22/13/17 5/9/18 19/10/19
f 2/2/20 3/5/21 9/8/22 8/3/23
f 29/14/24 23/15/25 14/16/26 13/17/27
f 24/18/28 25/19/29 16/20/30 15/21/31
f 28/22/32 29/14/33 13/17/34 17/23/35
f 25/19/36 26/24/37 18/25/38 16/20/39
f 17/23/40 27/26/41 28/22/42
f 23/15/43 24/18/44 15/21/45 14/16/46
f 19/10/47 7/4/48 11/27/49
f 21/28/50 22/13/51 19/10/52 11/27/53
f 10/7/54 20/12/55 12/29/56
f 18/25/57 27/26/58 17/23/59
f 26/24/60 27/26/61 18/25/62
f 20/12/63 22/13/64 21/28/65 12/29/66
f 6/11/67 5/9/68 22/13/69
f 6/11/70 22/13/71 20/12/72
f 8/3/73 9/8/74 24/18/75 23/15/76
f 9/8/77 10/7/78 25/19/79 24/18/80
f 10/7/81 12/29/82 26/24/83 25/19/84
f 12/29/85 21/28/86 27/26/87 26/24/88
f 28/22/89 27/26/90 21/28/91 11/27/92
f 11/27/93 7/4/94 29/14/95 28/22/96
f 7/4/97 8/3/98 23/15/99 29/14/100
f 13/17/101 14/16/102 45/30/103 46/31/104
f 13/17/105 46/31/106 47/32/107 17/23/108
f 18/25/109 17/23/110 47/32/111 42/33/112
f 16/20/113 18/25/114 42/33/115 43/34/116
f 15/21/117 16/20/118 43/34/119 44/35/120
f 14/16/121 15/21/122 44/35/123 45/30/124
f 52/36/125 81/37/126 37/38/127 36/39/128
f 65/40/129 52/36/130 36/39/131
f 30/41/132 48/42/133 49/43/134 40/44/135
f 93/45/136 94/46/137 83/47/138 84/48/139
f 82/49/140 55/50/141 34/51/142
f 44/35/143 43/34/144 53/52/145 35/53/146
f 45/30/147 44/35/148 35/53/149 31/54/150
f 46/31/151 45/30/152 48/42/153 30/41/154
f 83/47/155 46/31/156 30/41/157
f 42/33/158 47/32/159 32/55/160 33/56/161
f 31/54/162 80/57/163 64/58/164
f 39/59/165 50/60/166 51/61/167 38/62/168
f 31/54/169 35/53/170 52/36/171 51/61/172
f 53/52/173 82/49/174 34/51/175
f 49/43/176 48/42/177 34/51/178 54/63/179
f 54/63/180 34/51/181 55/50/182 56/64/183
f 96/65/184 97/66/185 33/56/186 57/67/187
f 57/67/188 33/56/189 32/55/190 41/68/191
f 40/44/192 49/43/193 71/69/194 72/70/195
f 92/71/196 93/45/197 84/48/198 85/72/199
f 49/43/200 54/63/201 70/73/202 71/69/203
f 54/63/204 56/64/205 73/74/206 70/73/207
f 95/75/208 96/65/209 57/67/210 74/76/211
f 57/67/212 41/68/213 77/77/214 74/76/215
f 78/78/216 79/79/217 58/80/218 59/81/219
f 90/82/220 91/83/221 63/84/222 60/85/223
f 97/66/224 42/33/225 33/56/226
f 43/34/227 42/33/228 55/50/229
f 64/58/230 34/51/231 48/42/232
f 65/40/233 39/59/234 38/62/235
f 37/38/236 81/37/237 50/60/238 39/59/239
f 45/30/240 64/58/241 48/42/242
f 31/54/243 64/58/244 45/30/245
f 34/51/246 80/57/247 53/52/248
f 80/57/249 34/51/250 64/58/251
f 51/61/252 65/40/253 38/62/254
f 51/61/255 52/36/256 65/40/257
f 36/39/258 37/38/259 65/40/260
f 65/40/261 37/38/262 39/59/263
f 73/74/264 56/64/265 40/44/266 72/70/267
f 30/41/268 55/50/269 69/86/270 66/87/271
f 66/87/272 69/86/273 75/88/274 76/89/275
f 40/44/276 56/64/277 55/50/278 30/41/279
f 71/69/280 70/73/281 78/78/282 59/81/283
f 72/70/284 71/69/285 59/81/286 58/80/287
f 79/79/288 73/74/289 72/70/290 58/80/291
f 70/73/292 73/74/293 62/90/294 61/91/295
f 91/83/296 95/75/297 74/76/298 63/84/299
f 76/89/300 75/88/301 68/92/302 67/93/303
f 90/82/304 92/71/305 85/72/306 86/94/307
f 74/76/308 77/77/309 60/85/310 63/84/311
f 78/78/312 70/73/313 61/91/314
f 61/91/315 62/90/316 79/79/317 78/78/318
f 62/90/319 73/74/320 79/79/321
f 50/60/322 80/57/323 31/54/324 51/61/325
f 53/52/326 80/57/327 50/60/328 81/37/329
f 53/52/330 81/37/331 52/36/332 35/53/333
f 53/52/334 43/34/335 82/49/336
f 43/34/337 55/50/338 82/49/339
f 47/32/340 46/31/341 83/47/342 94/46/343
f 84/48/344 83/47/345 30/41/346 66/87/347
f 85/72/348 84/48/349 66/87/350 76/89/351
f 86/94/352 85/72/353 76/89/354 67/93/355
f 67/93/356 68/92/357 87/95/358 86/94/359
f 68/92/360 75/88/361 88/96/362 87/95/363
f 75/88/364 69/86/365 89/97/366 88/96/367
f 69/86/368 55/50/369 89/97/370
f 97/66/371 89/97/372 55/50/373
f 86/94/374 87/95/375 91/83/376 90/82/377
f 77/77/378 92/71/379 90/82/380 60/85/381
f 41/68/382 93/45/383 92/71/384 77/77/385
f 32/55/386 94/46/387 93/45/388 41/68/389
f 47/32/390 94/46/391 32/55/392
f 87/95/393 88/96/394 95/75/395 91/83/396
f 88/96/397 89/97/398 96/65/399 95/75/400
f 89/97/401 97/66/402 96/65/403
f 55/50/404 42/33/405 97/66/406
f 2/2/407 1/1/408 98/98/409
f 1/1/410 5/9/411 98/98/412
f 5/9/413 6/11/414 98/98/415
f 6/11/416 4/6/417 98/98/418
f 4/6/419 3/5/420 98/98/421
f 3/5/422 2/2/423 98/98/424
