# This file uses meters as units for non-parametric coordinates.

v -4.753288 20.004658 -8.683020
v -3.359940 20.580105 -2.824853
v -4.837616 17.807617 -2.279797
v -5.200455 15.144547 -9.724257
v -4.152954 -12.439334 -3.045603
v -3.306320 -15.770693 -8.046595
v -3.906815 -22.590939 -10.103336
v -4.005074 -18.336998 6.592685
v -3.939812 -22.590937 6.460413
v -3.793716 -22.590937 11.986750
v -3.861938 -18.979416 12.099384
v -5.476082 7.319088 -10.224277
v 4.408585 -22.590939 -10.348070
v 5.317383 -22.590937 6.215679
v 4.520584 20.364994 -8.723083
v 3.266495 20.812412 -2.609864
v 5.476089 5.807804 -10.268717
v 4.501022 -12.439334 -3.728266
v 5.120804 -19.197559 6.357056
v 5.463470 -22.590937 11.742014
v 5.342377 -19.656429 11.867313
v 4.480286 17.807617 -2.879960
v 5.221756 15.856491 -9.267934
v 3.763000 -15.770693 -8.277941
v 0.016586 15.422752 0.267100
v -0.136078 20.346542 -0.114580
v 0.209930 -10.982450 -2.029020
v -0.702560 -18.245224 6.508193
v -0.894516 -18.795868 12.026567
v 0.179367 -15.770693 -10.014507
v 0.146469 6.311405 -12.099384
v 5.217941 -22.590937 2.454422
v -4.039246 -22.590937 2.699155
v -0.767960 22.590939 -4.383568
vt 0.020393 0.187959
vt 0.020393 0.187959
vt 0.020393 0.187959
vt 0.020393 0.187959
vt 0.020393 0.187959
vt 0.020393 0.187959
vt 0.020393 0.187959
vt 0.020393 0.187959
vt 0.020393 0.187959
vt 0.020393 0.187959
vt 0.020393 0.187959
vt 0.020393 0.187959
vt 0.020393 0.187959
vt 0.020393 0.187959
vt 0.020393 0.187959
vt 0.020393 0.187959
vt 0.020393 0.187959
vt 0.020393 0.187959
vt 0.020393 0.187959
vt 0.020393 0.187959
vt 0.020393 0.187959
vt 0.020393 0.187959
vt 0.020393 0.187959
vt 0.020393 0.187959
vt 0.020393 0.187959
vt 0.020393 0.187959
vt 0.020393 0.187959
vt 0.020393 0.187959
vt 0.020393 0.187959
vt 0.020393 0.187959
vt 0.020393 0.187959
vt 0.020393 0.187959
vt 0.020393 0.187959
vt 0.020393 0.187959
vn -0.992802 0.077231 0.091540
vn -0.992802 0.077231 0.091540
vn -0.992802 0.077231 0.091540
vn -0.997911 0.012782 0.063323
vn -0.997911 0.012782 0.063323
vn -0.997911 0.012782 0.063323
vn -0.948448 0.165092 -0.270540
vn -0.948448 0.165092 -0.270540
vn -0.948448 0.165092 -0.270540
vn -0.999526 -0.017747 0.025170
vn -0.999526 -0.017747 0.025170
vn -0.999526 -0.017747 0.025170
vn -0.999526 -0.017747 0.025170
vn -0.997877 0.007971 0.064639
vn -0.997877 0.007971 0.064639
vn -0.997877 0.007971 0.064639
vn 0.000000 -1.000000 0.000000
vn 0.000000 -1.000000 0.000000
vn 0.000000 -1.000000 0.000000
vn 0.000000 -1.000000 0.000000
vn 0.986934 0.144996 0.070268
vn 0.986934 0.144996 0.070268
vn 0.986934 0.144996 0.070268
vn 0.998192 0.051420 -0.031116
vn 0.998192 0.051420 -0.031116
vn 0.998192 0.051420 -0.031116
vn 0.998192 0.051420 -0.031116
vn 0.000000 -1.000000 -0.000000
vn 0.000000 -1.000000 -0.000000
vn 0.000000 -1.000000 -0.000000
vn 0.000000 -1.000000 -0.000000
vn 0.026416 -0.030663 0.999181
vn 0.026416 -0.030663 0.999181
vn 0.026416 -0.030663 0.999181
vn -0.040928 0.993382 0.107316
vn -0.040928 0.993382 0.107316
vn -0.040928 0.993382 0.107316
vn -0.040928 0.993382 0.107316
vn -0.228866 0.793016 0.564576
vn -0.228866 0.793016 0.564576
vn -0.228866 0.793016 0.564576
vn -0.228866 0.793016 0.564576
vn -0.374619 -0.057618 0.925387
vn -0.374619 -0.057618 0.925387
vn -0.374619 -0.057618 0.925387
vn -0.374619 -0.057618 0.925387
vn 0.985254 0.154142 0.074259
vn 0.985254 0.154142 0.074259
vn 0.985254 0.154142 0.074259
vn 0.993716 0.014092 0.111039
vn 0.993716 0.014092 0.111039
vn 0.993716 0.014092 0.111039
vn 0.682943 -0.166914 0.711146
vn 0.682943 -0.166914 0.711146
vn 0.682943 -0.166914 0.711146
vn 0.682943 -0.166914 0.711146
vn 0.997915 0.058904 -0.026382
vn 0.997915 0.058904 -0.026382
vn 0.997915 0.058904 -0.026382
vn -0.989770 -0.102381 -0.099361
vn -0.989770 -0.102381 -0.099361
vn -0.989770 -0.102381 -0.099361
vn 0.991452 -0.087628 -0.096665
vn 0.991452 -0.087628 -0.096665
vn 0.991452 -0.087628 -0.096665
vn -0.999520 -0.016156 0.026425
vn -0.999520 -0.016156 0.026425
vn -0.999520 -0.016156 0.026425
vn 0.943713 0.174599 -0.280929
vn 0.943713 0.174599 -0.280929
vn 0.943713 0.174599 -0.280929
vn 0.009799 0.128256 -0.991693
vn 0.009799 0.128256 -0.991693
vn 0.009799 0.128256 -0.991693
vn 0.009799 0.128256 -0.991693
vn -0.299201 0.096935 -0.949254
vn -0.299201 0.096935 -0.949254
vn -0.299201 0.096935 -0.949254
vn -0.396452 -0.105390 -0.911986
vn -0.396452 -0.105390 -0.911986
vn -0.396452 -0.105390 -0.911986
vn -0.396452 -0.105390 -0.911986
vn -0.470127 0.292510 -0.832718
vn -0.470127 0.292510 -0.832718
vn -0.470127 0.292510 -0.832718
vn 0.990332 -0.003211 0.138684
vn 0.990332 -0.003211 0.138684
vn 0.990332 -0.003211 0.138684
vn -0.993238 -0.025351 0.113292
vn -0.993238 -0.025351 0.113292
vn -0.993238 -0.025351 0.113292
vn -0.675913 -0.081261 0.732488
vn -0.675913 -0.081261 0.732488
vn -0.675913 -0.081261 0.732488
vn -0.675913 -0.081261 0.732488
vn 0.478850 -0.045113 0.876737
vn 0.478850 -0.045113 0.876737
vn 0.478850 -0.045113 0.876737
vn 0.478850 -0.045113 0.876737
vn 0.287645 0.762944 0.578945
vn 0.287645 0.762944 0.578945
vn 0.287645 0.762944 0.578945
vn 0.287645 0.762944 0.578945
vn 0.150308 0.984560 0.089719
vn 0.150308 0.984560 0.089719
vn 0.150308 0.984560 0.089719
vn 0.150308 0.984560 0.089719
vn 0.416002 0.299947 -0.858472
vn 0.416002 0.299947 -0.858472
vn 0.416002 0.299947 -0.858472
vn 0.364789 -0.100447 -0.925656
vn 0.364789 -0.100447 -0.925656
vn 0.364789 -0.100447 -0.925656
vn 0.364789 -0.100447 -0.925656
vn 0.012344 0.278331 -0.960406
vn 0.012344 0.278331 -0.960406
vn 0.012344 0.278331 -0.960406
vn -0.029405 0.030630 -0.999098
vn -0.029405 0.030630 -0.999098
vn -0.029405 0.030630 -0.999098
vn 0.331763 0.101801 -0.937854
vn 0.331763 0.101801 -0.937854
vn 0.331763 0.101801 -0.937854
vn 0.019734 -0.041839 0.998930
vn 0.019734 -0.041839 0.998930
vn 0.019734 -0.041839 0.998930
vn 0.026416 -0.030663 0.999181
vn 0.026416 -0.030663 0.999181
vn 0.026416 -0.030663 0.999181
vn 0.998148 0.055977 -0.023830
vn 0.998148 0.055977 -0.023830
vn 0.998148 0.055977 -0.023830
vn 0.000000 -1.000000 0.000000
vn 0.000000 -1.000000 0.000000
vn 0.000000 -1.000000 0.000000
vn 0.000000 -1.000000 0.000000
vn -0.999908 -0.003852 0.012984
vn -0.999908 -0.003852 0.012984
vn -0.999908 -0.003852 0.012984
vn -0.999801 -0.017051 -0.010343
vn -0.999801 -0.017051 -0.010343
vn -0.999801 -0.017051 -0.010343
vn 0.997495 0.032039 -0.063061
vn 0.997495 0.032039 -0.063061
vn 0.997495 0.032039 -0.063061
vn -0.588726 0.806040 0.060851
vn -0.588726 0.806039 0.060851
vn -0.588726 0.806040 0.060851
vn -0.341872 0.810007 0.476458
vn -0.341872 0.810007 0.476458
vn -0.341872 0.810007 0.476458
vn 0.197256 0.879460 0.433174
vn 0.197256 0.879460 0.433174
vn 0.197256 0.879460 0.433174
vn 0.397987 0.917276 0.014511
vn 0.397987 0.917276 0.014511
vn 0.397987 0.917276 0.014511
vn -0.035951 0.870727 -0.490450
vn -0.035951 0.870727 -0.490450
vn -0.035951 0.870727 -0.490450
s off
f 1/1/1 3/2/2 2/3/3
f 4/4/4 12/5/5 3/2/6
f 6/6/7 7/7/8 5/8/9
f 9/9/10 10/10/11 11/11/12 8/12/13
f 1/1/14 4/4/15 3/2/16
f 32/13/17 14/14/18 9/9/19 33/15/20
f 23/16/21 15/17/22 22/18/23
f 19/19/24 21/20/25 20/21/26 14/14/27
f 14/14/28 20/21/29 10/10/30 9/9/31
f 29/22/32 11/11/33 10/10/34
f 28/23/35 8/12/36 11/11/37 29/22/38
f 27/24/39 5/8/40 8/12/41 28/23/42
f 25/25/43 3/2/44 5/8/45 27/24/46
f 15/17/47 16/26/48 22/18/49
f 17/27/50 23/16/51 22/18/52
f 22/18/53 16/26/54 26/28/55 25/25/56
f 19/19/57 14/14/58 32/13/59
f 12/5/60 6/6/61 5/8/62
f 24/29/63 17/27/64 18/30/65
f 33/15/66 9/9/67 8/12/68
f 13/31/69 24/29/70 18/30/71
f 15/17/72 23/16/73 4/4/74 1/1/75
f 31/32/76 12/5/77 4/4/78
f 6/6/79 12/5/80 31/32/81 30/33/82
f 7/7/83 6/6/84 30/33/85
f 17/27/86 22/18/87 18/30/88
f 12/5/89 5/8/90 3/2/91
f 26/28/92 2/3/93 3/2/94 25/25/95
f 18/30/96 22/18/97 25/25/98 27/24/99
f 19/19/100 18/30/101 27/24/102 28/23/103
f 21/20/104 19/19/105 28/23/106 29/22/107
f 30/33/108 24/29/109 13/31/110
f 31/32/111 17/27/112 24/29/113 30/33/114
f 23/16/115 31/32/116 4/4/117
f 7/7/118 30/33/119 13/31/120
f 23/16/121 17/27/122 31/32/123
f 20/21/124 21/20/125 29/22/126
f 20/21/127 29/22/128 10/10/129
f 18/30/130 19/19/131 32/13/132
f 7/7/133 13/31/134 32/13/135 33/15/136
f 33/15/137 8/12/138 5/8/139
f 7/7/140 33/15/141 5/8/142
f 13/31/143 18/30/144 32/13/145
f 1/1/146 2/3/147 34/34/148
f 2/3/149 26/28/150 34/34/151
f 26/28/152 16/26/153 34/34/154
f 16/26/155 15/17/156 34/34/157
f 15/17/158 1/1/159 34/34/160
