# Blender v3.1.2 OBJ File: ''
# www.blender.org
mtllib LampExport.mtl
o SM_Prop_LampStanding_01_Mesh
v -0.130070 1.520460 -0.010578
v -0.130070 1.520460 0.010579
v -0.122768 1.542384 -0.010578
v -0.122768 1.542384 0.010579
v 0.122767 1.542384 -0.010578
v 0.122767 1.542384 0.010579
v 0.130068 1.520460 -0.010578
v 0.130068 1.520460 0.010579
v 0.130925 -0.000000 0.075574
v 0.130925 0.000000 -0.075574
v -0.000001 0.000000 -0.151191
v -0.130927 0.000000 -0.075574
v -0.130927 -0.000000 0.075574
v -0.000001 -0.000000 0.151191
v 0.119653 0.037254 0.069080
v 0.119653 0.037254 -0.069080
v -0.000001 0.037254 -0.138149
v -0.119655 0.037254 -0.069080
v -0.119655 0.037254 0.069080
v -0.000001 0.037254 0.138149
v -0.000001 0.000000 0.000000
v 0.035959 0.037254 0.020757
v 0.035959 0.037254 -0.020757
v -0.000001 0.037254 -0.041523
v -0.035960 0.037254 -0.020757
v -0.035960 0.037254 0.020757
v -0.000001 0.037254 0.041523
v 0.035959 0.247907 0.020757
v 0.035959 0.247907 -0.020757
v -0.000001 0.247907 -0.041523
v -0.035960 0.247907 -0.020757
v -0.035960 0.247907 0.020757
v -0.000001 0.247907 0.041523
v 0.021397 0.259634 0.012354
v 0.021397 0.259634 -0.012353
v -0.000001 0.259634 -0.024707
v -0.021398 0.259634 -0.012353
v -0.021398 0.259634 0.012354
v -0.000001 0.259634 0.024707
v 0.021397 1.344860 0.012354
v 0.021397 1.344860 -0.012353
v -0.000001 1.344860 -0.024707
v -0.021398 1.344860 -0.012353
v -0.021398 1.344860 0.012354
v -0.000001 1.344860 0.024707
v 0.034599 1.349481 0.019976
v 0.034599 1.349481 -0.019975
v -0.000001 1.349481 -0.039949
v -0.034600 1.349481 -0.019975
v -0.034600 1.349481 0.019976
v -0.000001 1.349481 0.039949
v 0.058646 1.399992 0.033860
v 0.058646 1.399992 -0.033860
v -0.000001 1.399992 -0.067715
v -0.058647 1.399992 -0.033860
v -0.058647 1.399992 0.033860
v -0.000001 1.399992 0.067715
v 0.058646 1.415011 0.033860
v 0.058646 1.415011 -0.033860
v -0.000001 1.415011 -0.067715
v -0.058647 1.415011 -0.033860
v -0.058647 1.415011 0.033860
v -0.000001 1.415011 0.067715
v 0.032441 1.415011 0.018728
v 0.032441 1.415011 -0.018728
v -0.000001 1.415011 -0.037456
v -0.032441 1.415011 -0.018728
v -0.032441 1.415011 0.018728
v -0.000001 1.415011 0.037456
v 0.032441 1.491131 0.018728
v 0.032441 1.491131 -0.018728
v -0.000001 1.491131 -0.037456
v -0.032441 1.491131 -0.018728
v -0.032441 1.491131 0.018728
v -0.000001 1.491131 0.037456
v -0.035078 1.591299 0.020252
v -0.000001 1.591299 0.000000
v -0.035078 1.591299 -0.020251
v 0.035078 1.591299 -0.020251
v 0.035078 1.591299 0.020252
v -0.000001 1.591299 0.040501
v -0.000001 1.591299 -0.040500
v -0.050003 1.521768 -0.028864
v -0.050003 1.521768 0.028867
v -0.000001 1.521768 0.057732
v 0.050002 1.521768 0.028867
v 0.050002 1.521768 -0.028864
v -0.000001 1.521768 -0.057732
v 0.181803 1.420379 0.104964
v 0.181803 1.420379 -0.104963
v 0.000000 1.420379 -0.209929
v -0.181803 1.420379 -0.104963
v -0.181803 1.420379 0.104964
v 0.000000 1.420379 0.209929
v 0.086307 1.691469 0.049829
v 0.086307 1.691469 -0.049829
v 0.000000 1.691469 -0.099660
v -0.086308 1.691469 -0.049829
v -0.086308 1.691469 0.049829
v 0.000000 1.691469 0.099661
v 0.159267 1.420379 0.091951
v 0.159267 1.420379 -0.091950
v 0.000000 1.420379 -0.183904
v -0.159267 1.420379 -0.091950
v -0.159267 1.420379 0.091951
v 0.000000 1.420379 0.183906
v 0.063828 1.691469 0.036853
v 0.063828 1.691469 -0.036850
v 0.000000 1.691469 -0.073703
v -0.063829 1.691469 -0.036850
v -0.063829 1.691469 0.036853
v 0.000000 1.691469 0.073704
v -0.000001 1.401516 -0.010578
v -0.000001 1.401516 0.010579
v -0.000001 1.423440 0.010579
v -0.000001 1.423440 -0.010578
vt 0.134411 0.298711
vt 0.134411 0.298711
vt 0.134411 0.298711
vt 0.134411 0.298711
vt 0.134411 0.298711
vt 0.134411 0.298711
vt 0.134411 0.298711
vt 0.134411 0.298711
vt 0.101562 0.229634
vt 0.101562 0.229634
vt 0.101562 0.229634
vt 0.101562 0.229634
vt 0.101562 0.229634
vt 0.101562 0.229634
vt 0.101562 0.229634
vt 0.101562 0.229634
vt 0.101562 0.229634
vt 0.101562 0.229634
vt 0.101562 0.229634
vt 0.101562 0.229634
vt 0.101562 0.229634
vt 0.101562 0.229634
vt 0.101562 0.229634
vt 0.101562 0.229634
vt 0.101562 0.229634
vt 0.101562 0.229634
vt 0.101562 0.229634
vt 0.101562 0.229633
vt 0.101562 0.229633
vt 0.101562 0.229633
vt 0.101562 0.229633
vt 0.101562 0.229633
vt 0.101562 0.229633
vt 0.101562 0.229633
vt 0.101562 0.229633
vt 0.101562 0.229633
vt 0.101562 0.229633
vt 0.101562 0.229633
vt 0.101562 0.229633
vt 0.133825 0.306215
vt 0.133825 0.306215
vt 0.133825 0.306215
vt 0.133825 0.306215
vt 0.133825 0.306215
vt 0.133825 0.306215
vt 0.133825 0.306215
vt 0.133825 0.306215
vt 0.133825 0.306215
vt 0.133825 0.306215
vt 0.133825 0.306215
vt 0.133825 0.306215
vt 0.133825 0.306215
vt 0.133825 0.306215
vt 0.133825 0.306215
vt 0.133825 0.306215
vt 0.133825 0.306215
vt 0.133825 0.306215
vt 0.133825 0.306215
vt 0.133825 0.306215
vt 0.133825 0.306215
vt 0.133825 0.306215
vt 0.133825 0.306215
vt 0.133825 0.306215
vt 0.133825 0.306215
vt 0.133825 0.306215
vt 0.133825 0.306215
vt 0.133825 0.306215
vt 0.133825 0.306215
vt 0.133825 0.306215
vt 0.133825 0.306215
vt 0.133825 0.306215
vt 0.133825 0.306215
vt 0.133825 0.306215
vt 0.133825 0.306215
vt 0.133825 0.306215
vt 0.133825 0.306215
vt 0.133825 0.306215
vt 0.133825 0.306215
vt 0.133825 0.306215
vt 0.133825 0.306215
vt 0.133825 0.306215
vt 0.544802 0.041885
vt 0.544802 0.041885
vt 0.544802 0.041885
vt 0.544802 0.041885
vt 0.544802 0.041885
vt 0.544802 0.041885
vt 0.544802 0.041885
vt 0.544802 0.041885
vt 0.544802 0.041885
vt 0.544802 0.041885
vt 0.544802 0.041885
vt 0.544802 0.041885
vt 0.544802 0.041885
vt 0.544802 0.041885
vt 0.544802 0.041885
vt 0.544802 0.041885
vt 0.544802 0.041885
vt 0.544802 0.041885
vt 0.544802 0.041885
vt 0.552708 0.032761
vt 0.552708 0.032761
vt 0.552706 0.032761
vt 0.552706 0.032761
vt 0.552706 0.032761
vt 0.552706 0.032761
vt 0.552708 0.032761
vt 0.552706 0.032761
vt 0.552708 0.032761
vt 0.552706 0.032761
vt 0.552706 0.032761
vt 0.552706 0.032761
vt 0.552706 0.032761
vt 0.552706 0.032761
vt 0.552706 0.032761
vt 0.552707 0.032761
vt 0.552707 0.032761
vt 0.552706 0.032761
vt 0.552706 0.032761
vt 0.552706 0.032761
vt 0.552706 0.032761
vt 0.552706 0.032761
vt 0.552706 0.032761
vt 0.552706 0.032761
vt 0.134411 0.298711
vt 0.134411 0.298711
vt 0.134411 0.298711
vt 0.134411 0.298711
vn 0.6958 0.7182 0.0000
vn -0.6748 -0.7380 0.0000
vn 0.0000 -0.0000 1.0000
vn 0.0000 0.0000 -1.0000
vn 0.9571 0.2896 0.0000
vn 0.4786 0.2897 -0.8289
vn -0.4786 0.2897 -0.8289
vn -0.9571 0.2896 0.0000
vn -0.4786 0.2897 0.8289
vn 0.4786 0.2897 0.8289
vn 0.0000 -1.0000 -0.0000
vn -0.0000 1.0000 0.0000
vn 1.0000 0.0000 0.0000
vn 0.5001 0.0000 -0.8660
vn -0.5001 0.0000 -0.8660
vn -1.0000 0.0000 0.0000
vn -0.5001 -0.0000 0.8660
vn 0.5001 -0.0000 0.8660
vn 0.6272 0.7788 0.0000
vn 0.3137 0.7788 -0.5432
vn -0.3137 0.7788 -0.5432
vn -0.6272 0.7788 0.0000
vn -0.3137 0.7788 0.5432
vn 0.3137 0.7788 0.5432
vn 0.5000 0.0000 -0.8660
vn -0.5000 0.0000 -0.8660
vn -0.5000 -0.0000 0.8660
vn 0.5000 -0.0000 0.8660
vn 0.3304 -0.9438 0.0000
vn 0.1652 -0.9438 -0.2862
vn -0.1652 -0.9438 -0.2862
vn -0.3304 -0.9438 0.0000
vn -0.1652 -0.9438 0.2862
vn 0.1652 -0.9438 0.2862
vn 0.9029 -0.4299 0.0000
vn 0.4514 -0.4299 -0.7820
vn -0.4514 -0.4299 -0.7820
vn -0.9029 -0.4299 0.0000
vn -0.4514 -0.4299 0.7820
vn 0.4514 -0.4299 0.7820
vn 0.4999 0.0000 -0.8661
vn -0.4999 0.0000 -0.8661
vn -0.4999 -0.0000 0.8661
vn 0.4999 -0.0000 0.8661
vn -0.9777 0.2099 0.0000
vn 0.9777 0.2099 0.0000
vn -0.4888 0.2099 0.8468
vn 0.4888 0.2099 0.8468
vn 0.4888 0.2098 -0.8468
vn -0.4888 0.2098 -0.8468
vn -0.8676 -0.4973 0.0000
vn -0.4338 -0.4973 0.7514
vn 0.4337 -0.4973 0.7514
vn 0.8676 -0.4973 0.0000
vn 0.4338 -0.4973 -0.7514
vn -0.4338 -0.4973 -0.7514
vn 0.9432 0.3323 0.0000
vn 0.4716 0.3323 -0.8168
vn -0.4716 0.3323 -0.8168
vn -0.9432 0.3323 0.0000
vn -0.4716 0.3323 0.8168
vn 0.4716 0.3323 0.8168
vn -0.9433 -0.3321 0.0000
vn -0.4716 -0.3321 0.8169
vn 0.4716 -0.3321 0.8169
vn 0.9433 -0.3321 0.0000
vn 0.4716 -0.3321 -0.8169
vn -0.4716 -0.3321 -0.8169
vn 0.6748 -0.7380 0.0000
vn -0.6958 0.7182 0.0000
usemtl lambert14
s 1
f 3/1/1 4/2/1 115/3/1 116/4/1
f 113/5/2 114/6/2 2/7/2 1/8/2
f 2/7/3 114/6/3 115/3/3 4/2/3
f 116/4/4 113/5/4 1/8/4 3/1/4
f 9/9/5 10/10/5 16/11/5 15/12/5
f 10/10/6 11/13/6 17/14/6 16/11/6
f 11/13/7 12/15/7 18/16/7 17/14/7
f 12/15/8 13/17/8 19/18/8 18/16/8
f 13/17/9 14/19/9 20/20/9 19/18/9
f 14/19/10 9/9/10 15/12/10 20/20/10
f 10/10/11 9/9/11 21/21/11
f 11/13/11 10/10/11 21/21/11
f 12/15/11 11/13/11 21/21/11
f 13/17/11 12/15/11 21/21/11
f 14/19/11 13/17/11 21/21/11
f 9/9/11 14/19/11 21/21/11
f 15/12/12 16/11/12 23/22/12 22/23/12
f 16/11/12 17/14/12 24/24/12 23/22/12
f 17/14/12 18/16/12 25/25/12 24/24/12
f 18/16/12 19/18/12 26/26/12 25/25/12
f 19/18/12 20/20/12 27/27/12 26/26/12
f 20/20/12 15/12/12 22/23/12 27/27/12
f 22/23/13 23/22/13 29/28/13 28/29/13
f 23/22/14 24/24/14 30/30/14 29/28/14
f 24/24/15 25/25/15 31/31/15 30/30/15
f 25/25/16 26/26/16 32/32/16 31/31/16
f 26/26/17 27/27/17 33/33/17 32/32/17
f 27/27/18 22/23/18 28/29/18 33/33/18
f 28/29/19 29/28/19 35/34/19 34/35/19
f 29/28/20 30/30/20 36/36/20 35/34/20
f 30/30/21 31/31/21 37/37/21 36/36/21
f 31/31/22 32/32/22 38/38/22 37/37/22
f 32/32/23 33/33/23 39/39/23 38/38/23
f 33/33/24 28/29/24 34/35/24 39/39/24
f 41/40/13 40/41/13 34/42/13 35/43/13
f 36/44/25 42/45/25 41/40/25 35/43/25
f 43/46/26 42/45/26 36/44/26 37/47/26
f 44/48/16 43/46/16 37/47/16 38/49/16
f 45/50/27 44/48/27 38/49/27 39/51/27
f 40/41/28 45/50/28 39/51/28 34/42/28
f 40/41/29 41/40/29 47/52/29 46/53/29
f 41/40/30 42/45/30 48/54/30 47/52/30
f 42/45/31 43/46/31 49/55/31 48/54/31
f 43/46/32 44/48/32 50/56/32 49/55/32
f 44/48/33 45/50/33 51/57/33 50/56/33
f 45/50/34 40/41/34 46/53/34 51/57/34
f 46/53/35 47/52/35 53/58/35 52/59/35
f 47/52/36 48/54/36 54/60/36 53/58/36
f 48/54/37 49/55/37 55/61/37 54/60/37
f 49/55/38 50/56/38 56/62/38 55/61/38
f 50/56/39 51/57/39 57/63/39 56/62/39
f 51/57/40 46/53/40 52/59/40 57/63/40
f 52/59/13 53/58/13 59/64/13 58/65/13
f 53/58/41 54/60/41 60/66/41 59/64/41
f 54/60/42 55/61/42 61/67/42 60/66/42
f 55/61/16 56/62/16 62/68/16 61/67/16
f 56/62/43 57/63/43 63/69/43 62/68/43
f 57/63/44 52/59/44 58/65/44 63/69/44
f 58/65/12 59/64/12 65/70/12 64/71/12
f 59/64/12 60/66/12 66/72/12 65/70/12
f 60/66/12 61/67/12 67/73/12 66/72/12
f 61/67/12 62/68/12 68/74/12 67/73/12
f 62/68/12 63/69/12 69/75/12 68/74/12
f 63/69/12 58/65/12 64/71/12 69/75/12
f 64/71/13 65/70/13 71/76/13 70/77/13
f 65/70/25 66/72/25 72/78/25 71/76/25
f 66/72/26 67/73/26 73/79/26 72/78/26
f 67/73/16 68/74/16 74/80/16 73/79/16
f 68/74/27 69/75/27 75/81/27 74/80/27
f 69/75/28 64/71/28 70/77/28 75/81/28
f 76/82/12 77/83/12 78/84/12
f 79/85/12 77/83/12 80/86/12
f 81/87/12 77/83/12 76/82/12
f 80/86/12 77/83/12 81/87/12
f 79/85/12 82/88/12 77/83/12
f 78/84/12 77/83/12 82/88/12
f 83/89/45 84/90/45 76/82/45 78/84/45
f 86/91/46 87/92/46 79/85/46 80/86/46
f 84/90/47 85/93/47 81/87/47 76/82/47
f 85/93/48 86/91/48 80/86/48 81/87/48
f 87/92/49 88/94/49 82/88/49 79/85/49
f 88/94/50 83/89/50 78/84/50 82/88/50
f 73/95/51 74/96/51 84/90/51 83/89/51
f 74/96/52 75/97/52 85/93/52 84/90/52
f 75/97/53 70/98/53 86/91/53 85/93/53
f 70/98/54 71/99/54 87/92/54 86/91/54
f 71/99/55 72/100/55 88/94/55 87/92/55
f 72/100/56 73/95/56 83/89/56 88/94/56
f 89/101/57 90/102/57 96/103/57 95/104/57
f 90/102/58 91/105/58 97/106/58 96/103/58
f 91/105/59 92/107/59 98/108/59 97/106/59
f 92/107/60 93/109/60 99/110/60 98/108/60
f 93/109/61 94/111/61 100/112/61 99/110/61
f 94/111/62 89/101/62 95/104/62 100/112/62
f 90/102/11 89/101/11 101/113/11 102/114/11
f 91/105/11 90/102/11 102/114/11 103/115/11
f 92/107/11 91/105/11 103/115/11 104/116/11
f 93/109/11 92/107/11 104/116/11 105/117/11
f 94/111/11 93/109/11 105/117/11 106/118/11
f 89/101/11 94/111/11 106/118/11 101/113/11
f 95/104/12 96/103/12 108/119/12 107/120/12
f 96/103/12 97/106/12 109/121/12 108/119/12
f 97/106/12 98/108/12 110/122/12 109/121/12
f 98/108/12 99/110/12 111/123/12 110/122/12
f 99/110/12 100/112/12 112/124/12 111/123/12
f 100/112/12 95/104/12 107/120/12 112/124/12
f 107/120/63 108/119/63 102/114/63 101/113/63
f 108/119/64 109/121/64 103/115/64 102/114/64
f 109/121/65 110/122/65 104/116/65 103/115/65
f 110/122/66 111/123/66 105/117/66 104/116/66
f 111/123/67 112/124/67 106/118/67 105/117/67
f 112/124/68 107/120/68 101/113/68 106/118/68
f 7/125/69 8/126/69 114/6/69 113/5/69
f 115/3/3 114/6/3 8/126/3 6/127/3
f 116/4/70 115/3/70 6/127/70 5/128/70
f 7/125/4 113/5/4 116/4/4 5/128/4
