# This file uses centimeters as units for non-parametric coordinates.

v 0.000732 2.036469 -10.568011
v -0.084351 9.330582 -14.630136
v 0.000732 3.948181 -12.977726
v -12.998560 12.440506 -2.795764
v -10.728903 10.222000 -11.237198
v -11.043213 4.484222 -10.085758
v -12.924273 12.161804 1.004269
v -13.288193 9.122009 -5.706211
v -12.906713 3.836655 -4.751453
v 12.428028 12.440506 -3.025211
v 10.350561 11.185104 -11.672204
v 11.044678 4.484238 -10.085758
v 13.427368 12.161789 1.004269
v 13.192790 9.122009 -5.706211
v 12.843423 3.836639 -4.751453
v -10.111450 11.771683 7.047054
v -11.585327 12.859894 6.404385
v -12.789743 8.882263 2.332607
v -11.453409 9.405472 6.379727
v 12.383982 8.588440 2.324001
v 11.669812 9.220413 6.066326
v -10.032227 8.607941 7.374508
v 10.324829 9.188370 6.747052
v 11.900350 11.886795 6.511768
v 10.847938 3.207169 -8.957828
v 10.142235 5.088684 7.608803
v 10.725386 5.795227 2.058625
v 10.914282 9.841599 1.528107
v 11.364868 11.033188 -3.201375
v 11.426977 8.781219 -5.019775
v 10.870640 2.226288 -2.843623
v -10.846947 3.207169 -8.957828
v -11.363876 11.033188 -3.201375
v -10.913290 9.841599 1.528107
v -11.426033 8.781219 -5.019775
v -10.869648 2.226288 -2.843623
v -10.724394 5.795227 2.058625
v -10.141243 5.088684 7.608803
v 10.494587 11.898819 6.641879
vt 0.242059 0.280381
vt 0.242059 0.280381
vt 0.242059 0.280381
vt 0.242059 0.280381
vt 0.242059 0.280381
vt 0.242059 0.280381
vt 0.242059 0.280381
vt 0.242059 0.280381
vt 0.242059 0.280381
vt 0.242059 0.280381
vt 0.242059 0.280381
vt 0.242059 0.280381
vt 0.242059 0.280381
vt 0.242059 0.280381
vt 0.242059 0.280381
vt 0.242059 0.280381
vt 0.239881 0.376221
vt 0.239881 0.376221
vt 0.239881 0.376221
vt 0.239881 0.376221
vt 0.242059 0.280381
vt 0.242059 0.280381
vt 0.242059 0.280381
vt 0.242059 0.280381
vt 0.242059 0.280381
vt 0.242059 0.280381
vt 0.242059 0.280381
vt 0.242059 0.280381
vt 0.242059 0.280381
vt 0.239881 0.376221
vt 0.239881 0.376221
vt 0.239881 0.376221
vt 0.239881 0.376221
vt 0.239881 0.376221
vt 0.239881 0.376221
vt 0.239881 0.376221
vt 0.239881 0.376221
vt 0.239881 0.376221
vt 0.239881 0.376221
vt 0.239881 0.376221
vt 0.239881 0.376221
vt 0.239881 0.376221
vt 0.239881 0.376221
vn 0.279558 -0.231722 -0.931747
vn 0.279558 -0.231722 -0.931747
vn 0.279558 -0.231722 -0.931747
vn 0.279558 -0.231722 -0.931747
vn 0.867932 0.417448 -0.269130
vn 0.867932 0.417448 -0.269130
vn 0.867932 0.417448 -0.269130
vn 0.918721 -0.056440 -0.390853
vn 0.918721 -0.056440 -0.390853
vn 0.918721 -0.056440 -0.390853
vn 0.918721 -0.056440 -0.390853
vn -0.284809 -0.228839 -0.930869
vn -0.284809 -0.228839 -0.930869
vn -0.284809 -0.228839 -0.930869
vn -0.284809 -0.228839 -0.930869
vn -0.870358 0.365433 -0.330054
vn -0.870358 0.365433 -0.330054
vn -0.870358 0.365433 -0.330054
vn -0.918744 -0.079498 -0.386767
vn -0.918744 -0.079498 -0.386767
vn -0.918744 -0.079498 -0.386767
vn -0.918744 -0.079498 -0.386767
vn 0.191199 -0.734343 -0.651293
vn 0.191199 -0.734343 -0.651293
vn 0.191199 -0.734343 -0.651293
vn 0.191199 -0.734343 -0.651293
vn 0.909937 -0.395821 0.123859
vn 0.909937 -0.395821 0.123859
vn 0.909937 -0.395821 0.123859
vn 0.909937 -0.395821 0.123859
vn 0.704775 -0.691114 -0.160167
vn 0.704775 -0.691114 -0.160167
vn 0.704775 -0.691114 -0.160167
vn 0.704775 -0.691114 -0.160167
vn 0.451646 -0.519084 0.725650
vn 0.451646 -0.519084 0.725650
vn 0.451646 -0.519084 0.725650
vn 0.451646 -0.519084 0.725650
vn 0.492235 0.187140 0.850108
vn 0.492235 0.187140 0.850108
vn 0.492235 0.187140 0.850108
vn 0.492235 0.187140 0.850108
vn 0.664512 -0.717797 -0.207825
vn 0.664512 -0.717797 -0.207825
vn 0.664512 -0.717797 -0.207825
vn 0.664512 -0.717797 -0.207825
vn -0.191196 -0.734333 -0.651306
vn -0.191196 -0.734333 -0.651306
vn -0.191196 -0.734333 -0.651306
vn -0.191196 -0.734333 -0.651306
vn -0.711597 -0.698400 -0.076599
vn -0.711597 -0.698400 -0.076599
vn -0.711597 -0.698400 -0.076599
vn -0.711597 -0.698400 -0.076599
vn -0.354142 -0.592127 0.723857
vn -0.354142 -0.592127 0.723857
vn -0.354142 -0.592127 0.723857
vn -0.354142 -0.592127 0.723857
vn -0.653230 -0.727150 -0.211054
vn -0.653230 -0.727150 -0.211054
vn -0.653230 -0.727150 -0.211054
vn -0.653230 -0.727150 -0.211054
vn -0.476504 0.189283 0.858554
vn -0.476504 0.189283 0.858554
vn -0.476504 0.189283 0.858554
vn -0.476504 0.189283 0.858554
vn -0.904276 -0.390148 0.173405
vn -0.904276 -0.390148 0.173405
vn -0.904276 -0.390148 0.173405
vn -0.904276 -0.390148 0.173405
vn -0.329919 -0.137844 -0.933891
vn -0.329919 -0.137844 -0.933891
vn -0.329919 -0.137844 -0.933891
vn -0.479865 0.024815 0.876992
vn -0.479865 0.024815 0.876992
vn -0.479865 0.024815 0.876992
vn -0.479865 0.024815 0.876992
vn -0.962550 0.014325 0.270724
vn -0.962550 0.014325 0.270724
vn -0.962550 0.014325 0.270724
vn -0.962550 0.014325 0.270724
vn 0.957573 -0.162115 0.238272
vn 0.957573 -0.162115 0.238272
vn 0.957573 -0.162115 0.238272
vn 0.957573 -0.162115 0.238272
vn 0.442200 0.165595 0.881497
vn 0.442200 0.165595 0.881497
vn 0.442200 0.165595 0.881497
vn -0.544309 0.072501 0.835746
vn -0.544309 0.072501 0.835746
vn -0.544309 0.072501 0.835746
vn 0.282348 -0.081510 0.955843
vn 0.282348 -0.081510 0.955843
vn 0.282348 -0.081510 0.955843
vn 0.282348 -0.081510 0.955843
vn 0.378319 -0.137676 -0.915380
vn 0.378319 -0.137676 -0.915380
vn 0.378319 -0.137676 -0.915380
vn 0.164867 -0.383715 -0.908615
vn 0.164867 -0.383715 -0.908615
vn 0.164867 -0.383715 -0.908615
vn -0.196681 -0.375000 -0.905921
vn -0.196681 -0.375000 -0.905921
vn -0.196681 -0.375000 -0.905921
s off
f 11/2/1 12/3/2 3/4/3 2/1/4
f 10/6/5 14/7/6 11/2/7
f 11/2/8 14/7/9 15/8/10 12/3/11
f 5/10/12 2/1/13 3/4/14 6/11/15
f 4/9/16 5/10/17 8/13/18
f 5/10/19 6/11/20 9/14/21 8/13/22
f 25/15/23 1/16/24 3/4/25 12/3/26
f 26/17/27 27/18/28 20/19/29 21/20/30
f 28/21/31 29/22/32 10/6/33 13/5/34
f 29/22/35 30/23/36 14/7/37 10/6/38
f 30/23/39 31/24/40 15/8/41 14/7/42
f 31/24/43 25/15/44 12/3/45 15/8/46
f 1/16/47 32/25/48 6/11/49 3/4/50
f 33/26/51 34/27/52 7/12/53 4/9/54
f 35/28/55 33/26/56 4/9/57 8/13/58
f 32/25/59 36/29/60 9/14/61 6/11/62
f 36/29/63 35/28/64 8/13/65 9/14/66
f 18/30/67 37/31/68 38/32/69 19/33/70
f 18/30/71 34/34/72 37/31/73
f 22/35/74 16/36/75 17/37/76 19/33/77
f 17/37/78 7/38/79 18/30/80 19/33/81
f 13/39/82 24/40/83 21/20/84 20/19/85
f 21/20/86 23/41/87 26/17/88
f 22/35/89 19/33/90 38/32/91
f 24/40/92 39/42/93 23/41/94 21/20/95
f 28/43/96 20/19/97 27/18/98
f 13/39/99 20/19/100 28/43/101
f 34/34/102 18/30/103 7/38/104
