# This file uses centimeters as units for non-parametric coordinates.

v 0.000732 2.036469 -10.568011
v 9.854605 15.594101 7.982505
v -9.466431 15.212479 8.899837
v -0.084351 12.535370 -15.413503
v 0.000732 3.948181 -12.977726
v -5.422729 18.604080 5.886669
v -6.008649 21.195602 1.852700
v -6.117175 21.025635 -6.403385
v -13.499296 19.509476 -5.271323
v -7.869861 21.720581 -6.645054
v -13.322510 10.222000 -12.224734
v -11.043213 4.484222 -10.085758
v -12.695362 18.925720 5.435331
v -8.306098 21.428619 5.254634
v -13.817383 12.440506 -3.025211
v -13.425903 12.161804 1.004269
v -13.841431 9.122009 -5.706211
v -13.492066 3.836655 -4.751453
v 13.080004 20.589432 -4.347022
v 13.239014 11.185104 -12.224734
v 2.608928 23.992874 -8.403976
v 11.044678 4.484238 -10.085758
v 11.189437 17.975952 8.084944
v 1.930610 23.539780 6.716575
v 13.427368 12.161789 1.004269
v 13.818848 12.440506 -3.025211
v 13.842897 9.122009 -5.706211
v 13.493530 3.836639 -4.751453
v -3.396783 22.663681 5.283592
v -3.601881 22.931412 -8.092779
v 3.215035 15.125427 10.726466
v 4.146667 17.179916 12.318026
v 1.301729 19.898010 13.527055
v -11.204834 17.408752 8.634380
v -10.111450 11.771683 7.047054
v -11.585327 12.859894 6.404385
v -13.195312 8.882263 2.332607
v -11.815918 9.405472 6.379727
v 12.789550 8.588440 2.324001
v 12.052368 9.220413 6.066326
v -10.032227 8.607941 7.374508
v 10.324829 9.188370 6.747052
v 11.900350 11.251862 6.511768
v 6.566566 19.698486 5.881954
v 5.971437 17.546494 6.855247
v 8.002116 21.213028 2.216041
v 7.955065 22.243210 -6.510421
v 3.910262 20.688828 11.778852
v 5.198714 19.117767 11.520742
v 10.847938 3.207169 -8.957828
v 0.000256 15.653839 11.791934
v 10.142235 5.088684 7.608803
v 10.725386 5.795227 2.058625
v 10.914282 9.841599 1.528107
v 11.364868 11.033188 -3.201375
v 11.426977 8.781219 -5.019775
v 10.870640 2.226288 -2.843623
v -10.846947 3.207169 -8.957828
v -11.363876 11.033188 -3.201375
v -10.913290 9.841599 1.528107
v -11.426033 8.781219 -5.019775
v -10.869648 2.226288 -2.843623
v -10.724394 5.795227 2.058625
v -10.141243 5.088684 7.608803
v 10.494587 11.263885 6.641879
vt 0.242684 0.280381
vt 0.242684 0.280381
vt 0.242684 0.280381
vt 0.242684 0.280381
vt 0.242684 0.280381
vt 0.242684 0.280381
vt 0.242684 0.349974
vt 0.242684 0.349974
vt 0.242684 0.349974
vt 0.242684 0.280381
vt 0.242684 0.280381
vt 0.242684 0.280381
vt 0.242684 0.280381
vt 0.242684 0.280381
vt 0.242684 0.280381
vt 0.242684 0.280381
vt 0.242684 0.280381
vt 0.242684 0.280381
vt 0.242684 0.280381
vt 0.242684 0.280381
vt 0.242684 0.280381
vt 0.242684 0.280381
vt 0.242684 0.280381
vt 0.242684 0.280381
vt 0.242684 0.280381
vt 0.242684 0.280381
vt 0.242684 0.280381
vt 0.242684 0.380719
vt 0.242684 0.380719
vt 0.242684 0.380719
vt 0.242684 0.380719
vt 0.240505 0.376221
vt 0.240505 0.376221
vt 0.240505 0.376221
vt 0.240505 0.376221
vt 0.242684 0.280381
vt 0.242684 0.280381
vt 0.242684 0.280381
vt 0.242684 0.280381
vt 0.242684 0.280381
vt 0.242684 0.280381
vt 0.242684 0.280381
vt 0.242684 0.280381
vt 0.242684 0.280381
vt 0.242684 0.280381
vt 0.242684 0.280381
vt 0.242684 0.280381
vt 0.242684 0.280381
vt 0.242684 0.349974
vt 0.242684 0.349974
vt 0.242684 0.349974
vt 0.242684 0.349974
vt 0.242684 0.280381
vt 0.242684 0.280381
vt 0.242684 0.280381
vt 0.242684 0.280381
vt 0.242684 0.280381
vt 0.242684 0.349974
vt 0.242684 0.349974
vt 0.242684 0.349974
vt 0.242684 0.349974
vt 0.242684 0.349974
vt 0.242684 0.349974
vt 0.242684 0.349974
vt 0.242684 0.349974
vt 0.242684 0.349974
vt 0.242684 0.349974
vt 0.240505 0.376221
vt 0.240505 0.376221
vt 0.240505 0.376221
vt 0.240505 0.376221
vt 0.240505 0.376221
vt 0.240505 0.376221
vt 0.240505 0.376221
vt 0.240505 0.376221
vt 0.240505 0.376221
vt 0.240505 0.376221
vt 0.240505 0.376221
vt 0.240505 0.376221
vt 0.240505 0.376221
vt 0.242684 0.280381
vt 0.242684 0.280381
vt 0.242684 0.280381
vt 0.240505 0.376221
vt 0.242684 0.280381
vt 0.242684 0.280381
vt 0.242684 0.280381
vt 0.242684 0.280381
vt 0.242684 0.380719
vt 0.242684 0.380719
vt 0.242684 0.380719
vt 0.242684 0.380719
vt 0.242684 0.380719
vt 0.242684 0.380719
vt 0.242684 0.380719
vt 0.242684 0.380719
vt 0.242684 0.280381
vt 0.242684 0.280381
vt 0.242684 0.380719
vt 0.242684 0.380719
vt 0.242684 0.380719
vt 0.242684 0.380719
vt 0.242684 0.380719
vt 0.242684 0.380719
vt 0.242684 0.380719
vt 0.242684 0.380719
vt 0.242684 0.380719
vt 0.242684 0.380719
vn 0.419518 0.399929 -0.814900
vn 0.419518 0.399929 -0.814900
vn 0.419518 0.399929 -0.814900
vn 0.220711 -0.307431 -0.925620
vn 0.220711 -0.307431 -0.925620
vn 0.220711 -0.307431 -0.925620
vn 0.220711 -0.307431 -0.925620
vn 0.386358 0.921254 0.044938
vn 0.386358 0.921254 0.044938
vn 0.386358 0.921254 0.044938
vn 0.976775 0.142093 0.160375
vn 0.976775 0.142093 0.160375
vn 0.976775 0.142093 0.160375
vn 0.976775 0.142093 0.160375
vn 0.994531 0.074803 -0.072892
vn 0.994531 0.074803 -0.072892
vn 0.994531 0.074803 -0.072892
vn 0.994531 0.074803 -0.072892
vn 0.915340 -0.271104 -0.297749
vn 0.915341 -0.271104 -0.297749
vn 0.915340 -0.271104 -0.297749
vn 0.915341 -0.271104 -0.297749
vn -0.317372 0.531569 -0.785309
vn -0.317372 0.531569 -0.785309
vn -0.317372 0.531569 -0.785309
vn -0.317372 0.531569 -0.785309
vn -0.206751 -0.328448 -0.921616
vn -0.206751 -0.328448 -0.921616
vn -0.206751 -0.328448 -0.921616
vn -0.206751 -0.328448 -0.921616
vn -0.420036 0.906537 0.041949
vn -0.420036 0.906537 0.041949
vn -0.420036 0.906537 0.041949
vn -0.420036 0.906537 0.041949
vn -0.994504 0.062074 0.084308
vn -0.994504 0.062074 0.084308
vn -0.994504 0.062074 0.084308
vn -0.994504 0.062074 0.084308
vn -0.997433 0.035457 -0.062206
vn -0.997433 0.035457 -0.062206
vn -0.997433 0.035457 -0.062206
vn -0.997433 0.035457 -0.062206
vn -0.915755 -0.294935 -0.272776
vn -0.915755 -0.294935 -0.272776
vn -0.915755 -0.294935 -0.272776
vn -0.915755 -0.294935 -0.272776
vn 0.191199 -0.734343 -0.651293
vn 0.191199 -0.734343 -0.651293
vn 0.191199 -0.734343 -0.651293
vn 0.191199 -0.734343 -0.651293
vn 0.067709 -0.484613 0.872104
vn 0.067709 -0.484613 0.872104
vn 0.067709 -0.484613 0.872104
vn 0.067709 -0.484613 0.872104
vn 0.870444 -0.477455 0.119846
vn 0.870444 -0.477455 0.119846
vn 0.870444 -0.477455 0.119846
vn 0.870444 -0.477455 0.119846
vn 0.594983 -0.800032 -0.077095
vn 0.594983 -0.800032 -0.077095
vn 0.594983 -0.800032 -0.077095
vn 0.594983 -0.800032 -0.077095
vn 0.292850 -0.598059 0.746032
vn 0.292850 -0.598059 0.746032
vn 0.292850 -0.598059 0.746032
vn 0.292850 -0.598059 0.746032
vn 0.382566 0.208732 0.900041
vn 0.382566 0.208732 0.900041
vn 0.382566 0.208732 0.900041
vn 0.382566 0.208732 0.900041
vn 0.561069 -0.793987 -0.234066
vn 0.561069 -0.793987 -0.234066
vn 0.561069 -0.793987 -0.234066
vn 0.561069 -0.793987 -0.234066
vn -0.191196 -0.734333 -0.651306
vn -0.191196 -0.734333 -0.651306
vn -0.191196 -0.734333 -0.651306
vn -0.191196 -0.734333 -0.651306
vn -0.595060 -0.799977 -0.077078
vn -0.595060 -0.799977 -0.077078
vn -0.595060 -0.799977 -0.077078
vn -0.595060 -0.799977 -0.077078
vn -0.548706 -0.323501 0.770888
vn -0.548706 -0.323501 0.770888
vn -0.548706 -0.323501 0.770888
vn -0.548706 -0.323501 0.770888
vn -0.292904 -0.598046 0.746021
vn -0.292904 -0.598046 0.746021
vn -0.292904 -0.598046 0.746021
vn -0.292904 -0.598047 0.746021
vn -0.561171 -0.793912 -0.234075
vn -0.561171 -0.793912 -0.234075
vn -0.561171 -0.793912 -0.234075
vn -0.561171 -0.793912 -0.234075
vn -0.382633 0.208719 0.900016
vn -0.382633 0.208719 0.900016
vn -0.382633 0.208719 0.900016
vn -0.382633 0.208719 0.900016
vn -0.167660 0.985596 0.022146
vn -0.167660 0.985596 0.022146
vn -0.167660 0.985596 0.022146
vn -0.167660 0.985596 0.022146
vn -0.133908 0.539883 -0.831021
vn -0.133908 0.539883 -0.831021
vn -0.133908 0.539883 -0.831020
vn 0.379093 0.786600 -0.487390
vn 0.379093 0.786600 -0.487390
vn 0.379093 0.786600 -0.487390
vn 0.230460 0.973034 0.009636
vn 0.230460 0.973034 0.009636
vn 0.230460 0.973034 0.009636
vn 0.230460 0.973034 0.009636
vn 0.609955 0.704043 0.363701
vn 0.609955 0.704043 0.363701
vn 0.609955 0.704043 0.363701
vn -0.791438 0.455518 0.407589
vn -0.791438 0.455518 0.407589
vn -0.791438 0.455518 0.407589
vn -0.552449 0.833464 0.011776
vn -0.552449 0.833464 0.011776
vn -0.552449 0.833464 0.011776
vn -0.552449 0.833464 0.011776
vn -0.667659 0.264212 -0.696006
vn -0.667659 0.264212 -0.696006
vn -0.667659 0.264212 -0.696006
vn 0.605569 0.623364 0.494675
vn 0.605569 0.623364 0.494675
vn 0.605569 0.623364 0.494675
vn -0.750821 0.215756 0.624274
vn -0.750821 0.215756 0.624273
vn -0.750821 0.215756 0.624274
vn -0.750821 0.215756 0.624273
vn -0.259140 0.861464 0.436722
vn -0.259140 0.861464 0.436722
vn -0.259140 0.861464 0.436722
vn 0.310783 0.436966 0.844082
vn 0.310783 0.436966 0.844082
vn 0.310783 0.436966 0.844082
vn 0.310783 0.436966 0.844082
vn -0.400643 0.741456 0.538265
vn -0.400643 0.741456 0.538265
vn -0.400643 0.741456 0.538265
vn -0.929982 -0.114373 0.349361
vn -0.929982 -0.114373 0.349361
vn -0.929982 -0.114373 0.349361
vn -0.929982 -0.114373 0.349361
vn -0.869131 -0.464868 0.168848
vn -0.869131 -0.464868 0.168848
vn -0.869131 -0.464868 0.168848
vn -0.869131 -0.464868 0.168848
vn -0.277363 -0.137615 -0.950859
vn -0.277363 -0.137615 -0.950859
vn -0.277363 -0.137615 -0.950859
vn -0.424772 0.051069 0.903859
vn -0.424771 0.051069 0.903859
vn -0.424772 0.051069 0.903859
vn -0.424772 0.051069 0.903859
vn -0.947151 0.060972 0.314942
vn -0.947150 0.060972 0.314942
vn -0.947150 0.060972 0.314942
vn -0.947150 0.060972 0.314942
vn 0.970564 -0.047285 0.236157
vn 0.970564 -0.047285 0.236157
vn 0.970564 -0.047285 0.236157
vn 0.970564 -0.047285 0.236157
vn 0.357995 0.176774 0.916837
vn 0.357995 0.176774 0.916837
vn 0.357995 0.176774 0.916837
vn -0.460624 0.073160 0.884575
vn -0.460624 0.073160 0.884575
vn -0.460624 0.073160 0.884575
vn 0.250189 -0.081016 0.964801
vn 0.250189 -0.081016 0.964801
vn 0.250189 -0.081016 0.964801
vn 0.250189 -0.081016 0.964801
vn 0.961331 0.037816 0.272788
vn 0.961331 0.037816 0.272788
vn 0.961331 0.037816 0.272788
vn 0.205012 -0.225967 0.952318
vn 0.205012 -0.225967 0.952318
vn 0.205012 -0.225967 0.952318
vn 0.205012 -0.225967 0.952318
vn 0.307511 -0.137797 -0.941514
vn 0.307511 -0.137797 -0.941514
vn 0.307511 -0.137797 -0.941514
vn 0.145876 -0.365555 -0.919288
vn 0.145876 -0.365555 -0.919288
vn 0.145876 -0.365555 -0.919288
vn -0.241992 0.281372 0.928585
vn -0.241992 0.281372 0.928585
vn -0.241992 0.281372 0.928585
vn -0.241992 0.281372 0.928585
vn 0.681131 0.707619 0.187981
vn 0.681131 0.707619 0.187981
vn 0.681131 0.707619 0.187981
vn 0.681131 0.707619 0.187981
vn 0.890686 -0.363423 0.273135
vn 0.890686 -0.363423 0.273135
vn 0.890686 -0.363423 0.273135
vn 0.890686 -0.363423 0.273135
vn 0.132785 0.896617 0.422428
vn 0.132785 0.896617 0.422428
vn 0.132785 0.896617 0.422428
vn 0.273274 0.955473 0.111323
vn 0.273274 0.955473 0.111323
vn 0.273274 0.955473 0.111323
vn 0.356196 0.915173 0.188636
vn 0.356196 0.915173 0.188636
vn 0.356196 0.915173 0.188636
vn 0.356196 0.915173 0.188636
vn 0.314071 0.549977 -0.773876
vn 0.314071 0.549977 -0.773876
vn 0.314071 0.549977 -0.773876
vn 0.314071 0.549977 -0.773876
vn 0.051705 0.878668 0.474625
vn 0.051705 0.878668 0.474625
vn 0.051705 0.878668 0.474625
vn 0.477358 0.164786 0.863119
vn 0.477358 0.164786 0.863119
vn 0.477358 0.164786 0.863119
vn 0.477358 0.164786 0.863119
vn 0.893683 -0.413503 0.174203
vn 0.893683 -0.413503 0.174203
vn 0.893683 -0.413503 0.174203
vn -0.161230 -0.380219 -0.910735
vn -0.161230 -0.380219 -0.910735
vn -0.161230 -0.380219 -0.910735
s off
f 47/1/1 4/2/2 21/3/3
f 20/4/4 22/5/5 5/6/6 4/2/7
f 46/7/8 21/8/9 24/9/10
f 23/10/11 25/11/12 26/12/13 19/13/14
f 19/13/15 26/12/16 27/14/17 20/4/18
f 20/4/19 27/14/20 28/15/21 22/5/22
f 9/16/23 10/17/24 4/2/25 11/18/26
f 11/18/27 4/2/28 5/6/29 12/19/30
f 13/20/31 14/21/32 10/17/33 9/16/34
f 13/20/35 9/16/36 15/22/37 16/23/38
f 9/16/39 11/18/40 17/24/41 15/22/42
f 11/18/43 12/19/44 18/25/45 17/24/46
f 50/26/47 1/27/48 5/6/49 22/5/50
f 51/28/51 31/29/52 32/30/53 33/31/54
f 52/32/55 53/33/56 39/34/57 40/35/58
f 54/36/59 55/37/60 26/12/61 25/11/62
f 55/37/63 56/38/64 27/14/65 26/12/66
f 56/38/67 57/39/68 28/15/69 27/14/70
f 57/39/71 50/26/72 22/5/73 28/15/74
f 1/27/75 58/40/76 12/19/77 5/6/78
f 59/41/79 60/42/80 16/23/81 15/22/82
f 35/43/83 3/44/84 34/45/85 36/46/86
f 61/47/87 59/41/88 15/22/89 17/24/90
f 58/40/91 62/48/92 18/25/93 12/19/94
f 62/48/95 61/47/96 17/24/97 18/25/98
f 30/49/99 29/50/100 24/51/101 21/52/102
f 4/2/103 30/53/104 21/3/105
f 8/54/106 4/2/107 10/17/108
f 7/55/109 8/54/110 10/17/111 14/21/112
f 6/56/113 7/55/114 14/21/115
f 7/55/116 6/56/117 29/57/118
f 8/54/119 7/55/120 29/57/121 30/53/122
f 4/2/123 8/54/124 30/53/125
f 44/58/126 46/59/127 24/60/128
f 29/61/129 6/62/130 51/63/131 33/64/132
f 24/65/133 29/66/134 33/67/135
f 6/56/136 14/21/137 34/45/138 3/44/139
f 14/21/140 13/20/141 34/45/142
f 13/20/143 16/23/144 36/46/145 34/45/146
f 37/68/147 63/69/148 64/70/149 38/71/150
f 37/68/151 60/72/152 63/69/153
f 41/73/154 35/74/155 36/75/156 38/71/157
f 36/75/158 16/76/159 37/68/160 38/71/161
f 25/77/162 43/78/163 40/35/164 39/34/165
f 40/35/166 42/79/167 52/32/168
f 41/73/169 38/71/170 64/70/171
f 43/78/172 65/80/173 42/79/174 40/35/175
f 25/11/176 23/10/177 43/81/178
f 23/10/179 2/82/180 65/83/181 43/81/182
f 54/84/183 39/34/184 53/33/185
f 25/77/186 39/34/187 54/84/188
f 44/85/189 45/86/190 2/87/191 23/88/192
f 44/89/193 24/90/194 48/91/195 49/92/196
f 32/93/197 31/94/198 45/95/199 44/96/200
f 23/10/201 46/97/202 44/98/203
f 46/97/204 47/1/205 21/3/206
f 23/10/207 19/13/208 47/1/209 46/97/210
f 19/13/211 20/4/212 4/2/213 47/1/214
f 24/99/215 33/100/216 48/101/217
f 33/102/218 32/103/219 49/104/220 48/105/221
f 32/106/222 44/107/223 49/108/224
f 60/72/225 37/68/226 16/76/227
