# This file uses centimeters as units for non-parametric coordinates.

v -0.000000 7.465790 -24.323889
v -0.000000 15.246506 24.219288
v -0.000000 9.200897 -24.743347
v -0.000000 16.981613 23.799835
v -0.000000 10.112946 0.365448
v -0.000000 9.913803 -15.112979
v -0.000000 15.785416 14.902889
v -0.000000 23.210480 -16.367273
v -0.000000 25.799744 -3.130875
v -0.000000 28.388977 10.105519
v -0.000000 20.107590 12.696464
v -0.000000 14.598541 -15.466141
v -0.000000 19.783783 13.862409
v -0.000000 13.868408 -16.377300
v 11.857819 8.535797 -20.670410
v 17.375458 11.994598 0.136192
v 12.887818 15.837463 22.445099
v 11.413269 10.988647 -21.139475
v 16.930878 14.447449 -0.332871
v 12.443268 18.290329 21.976028
v 11.092800 10.557709 -10.662294
v 14.563321 12.849609 -0.105045
v 11.467685 14.925522 10.507152
v 4.603180 25.537735 -13.165603
v 8.000000 29.199539 -4.248698
v 4.603180 29.199493 5.553452
v 4.636658 29.205444 -4.250125
v 7.124053 20.932739 8.177614
v 10.868652 20.490250 -2.010873
v 7.124053 17.584808 -11.736318
v 9.431979 20.519287 9.046659
v 12.434079 19.915451 -1.871918
v 8.923124 17.100006 -12.390944
v 21.775909 14.066391 -11.644637
v 22.914858 16.150360 0.162586
v 22.101990 18.085617 -0.081926
v 21.025269 15.919968 -11.887076
v 21.891357 17.868927 13.231390
v 21.148102 19.712814 12.989203
v -11.857819 8.535797 -20.670410
v -17.375458 11.994598 0.136192
v -12.887818 15.837463 22.445099
v -11.413269 10.988647 -21.139475
v -16.930878 14.447449 -0.332871
v -12.443268 18.290329 21.976028
v -11.092800 10.557709 -10.662294
v -14.563321 12.849609 -0.105045
v -11.467685 14.925522 10.507152
v -4.603180 25.537735 -13.165603
v -8.000000 29.199539 -4.248698
v -4.603180 29.199493 5.553452
v -4.636658 29.205444 -4.250125
v -7.124053 20.932739 8.177614
v -10.868652 20.490250 -2.010873
v -7.124053 17.584808 -11.736318
v -9.431979 20.519287 9.046659
v -12.434079 19.915451 -1.871918
v -8.923124 17.100006 -12.390944
v -21.775909 14.066391 -11.644637
v -22.914858 16.150360 0.162586
v -22.101990 18.085617 -0.081926
v -21.025269 15.919968 -11.887076
v -21.891357 17.868927 13.231390
v -21.148102 19.712814 12.989203
vt 0.036293 0.375418
vt 0.036293 0.375418
vt 0.036293 0.375418
vt 0.036293 0.375418
vt 0.036293 0.375418
vt 0.036293 0.375418
vt 0.036293 0.375418
vt 0.036293 0.375418
vt 0.036293 0.375418
vt 0.036293 0.375418
vt 0.036293 0.375418
vt 0.036293 0.375418
vt 0.036293 0.375418
vt 0.036293 0.375418
vt 0.036293 0.375418
vt 0.036293 0.375418
vt 0.036293 0.375418
vt 0.036293 0.375418
vt 0.036293 0.375418
vt 0.036293 0.375418
vt 0.036293 0.375418
vt 0.036293 0.375418
vt 0.036293 0.375418
vt 0.036293 0.375418
vt 0.036293 0.375418
vt 0.036293 0.375418
vt 0.036293 0.375418
vt 0.036293 0.375418
vt 0.036293 0.375418
vt 0.036293 0.375418
vt 0.036293 0.375418
vt 0.036293 0.375418
vt 0.036293 0.375418
vt 0.036293 0.375418
vt 0.036293 0.375418
vt 0.036293 0.375418
vt 0.035641 0.331070
vt 0.035641 0.331070
vt 0.035641 0.331070
vt 0.035641 0.331070
vt 0.035641 0.331070
vt 0.035641 0.331070
vt 0.035641 0.331070
vt 0.035641 0.331070
vt 0.035641 0.331070
vt 0.035641 0.331070
vt 0.035641 0.331070
vt 0.035641 0.331070
vt 0.035641 0.331070
vt 0.035641 0.331070
vt 0.035641 0.331070
vt 0.035641 0.331070
vt 0.036293 0.375418
vt 0.036293 0.375418
vt 0.036293 0.375418
vt 0.036293 0.375418
vt 0.036293 0.375418
vt 0.036293 0.375418
vt 0.035641 0.331070
vt 0.035641 0.331070
vt 0.035641 0.331070
vt 0.035641 0.331070
vt 0.035641 0.331070
vt 0.035641 0.331070
vt 0.035641 0.331070
vt 0.035641 0.331070
vt 0.035641 0.331070
vt 0.035641 0.331070
vt 0.035641 0.331070
vt 0.035641 0.331070
vt 0.035641 0.331070
vt 0.035641 0.331070
vt 0.035641 0.331070
vt 0.035641 0.331070
vt 0.036293 0.375418
vt 0.036293 0.375418
vt 0.036293 0.375418
vt 0.036293 0.375418
vt 0.036293 0.375418
vt 0.036293 0.375418
vt 0.036293 0.375418
vt 0.036293 0.375418
vt 0.036293 0.375418
vt 0.036293 0.375418
vt 0.036293 0.375418
vt 0.036293 0.375418
vt 0.036293 0.375418
vt 0.036293 0.375418
vt 0.036293 0.375418
vt 0.036293 0.375418
vt 0.036293 0.375418
vt 0.036293 0.375418
vt 0.036293 0.375418
vt 0.036293 0.375418
vt 0.036293 0.375418
vt 0.036293 0.375418
vt 0.036293 0.375418
vt 0.036293 0.375418
vt 0.036293 0.375418
vt 0.036293 0.375418
vt 0.036293 0.375418
vt 0.036293 0.375418
vt 0.036293 0.375418
vt 0.036293 0.375418
vt 0.036293 0.375418
vt 0.036293 0.375418
vt 0.036293 0.375418
vt 0.036293 0.375418
vt 0.036293 0.375418
vt 0.036293 0.375418
vt 0.036293 0.375418
vt 0.036293 0.375418
vt 0.035641 0.331070
vt 0.035641 0.331070
vt 0.035641 0.331070
vt 0.035641 0.331070
vt 0.035641 0.331070
vt 0.035641 0.331070
vt 0.035641 0.331070
vt 0.035641 0.331070
vt 0.035641 0.331070
vt 0.035641 0.331070
vt 0.035641 0.331070
vt 0.035641 0.331070
vt 0.035641 0.331070
vt 0.035641 0.331070
vt 0.035641 0.331070
vt 0.035641 0.331070
vt 0.036293 0.375418
vt 0.036293 0.375418
vt 0.036293 0.375418
vt 0.036293 0.375418
vt 0.036293 0.375418
vt 0.036293 0.375418
vt 0.035641 0.331070
vt 0.035641 0.331070
vt 0.035641 0.331070
vt 0.035641 0.331070
vt 0.035641 0.331070
vt 0.035641 0.331070
vt 0.035641 0.331070
vt 0.035641 0.331070
vt 0.035641 0.331070
vt 0.035641 0.331070
vt 0.035641 0.331070
vt 0.035641 0.331070
vt 0.035641 0.331070
vt 0.035641 0.331070
vt 0.035641 0.331070
vt 0.035641 0.331070
vt 0.036293 0.375418
vt 0.036293 0.375418
vn 0.338962 -0.160688 -0.926976
vn 0.338962 -0.160688 -0.926976
vn 0.338962 -0.160688 -0.926976
vn 0.338962 -0.160688 -0.926976
vn 0.920457 0.360400 -0.151234
vn 0.920457 0.360400 -0.151234
vn 0.920457 0.360400 -0.151234
vn 0.920457 0.360400 -0.151234
vn 0.923529 0.382962 0.020845
vn 0.923529 0.382962 0.020845
vn 0.923529 0.382962 0.020845
vn 0.923529 0.382962 0.020845
vn 0.121170 0.218304 0.968329
vn 0.121170 0.218304 0.968329
vn 0.121170 0.218304 0.968329
vn 0.121170 0.218304 0.968329
vn 0.205555 -0.960442 0.187878
vn 0.205555 -0.960442 0.187878
vn 0.205555 -0.960442 0.187878
vn 0.108439 -0.984898 0.134970
vn 0.108439 -0.984898 0.134970
vn 0.108439 -0.984898 0.134970
vn 0.108182 -0.975834 0.189856
vn 0.108182 -0.975834 0.189856
vn 0.108182 -0.975834 0.189856
vn 0.073591 -0.974966 0.209822
vn 0.073591 -0.974966 0.209822
vn 0.073591 -0.974966 0.209822
vn -0.340919 0.922607 -0.180475
vn -0.340919 0.922607 -0.180475
vn -0.340919 0.922607 -0.180475
vn -0.610723 0.733103 -0.299295
vn -0.610723 0.733103 -0.299295
vn -0.610723 0.733103 -0.299295
vn -0.592223 0.805772 -0.001535
vn -0.592223 0.805772 -0.001535
vn -0.592223 0.805772 -0.001535
vn -0.340921 0.922606 -0.180475
vn -0.340921 0.922606 -0.180475
vn -0.340921 0.922606 -0.180475
vn -0.159198 0.979060 -0.126877
vn -0.159198 0.979060 -0.126877
vn -0.159198 0.979060 -0.126877
vn -0.159198 0.979060 -0.126877
vn -0.503260 0.864018 -0.014200
vn -0.503260 0.864018 -0.014200
vn -0.503260 0.864018 -0.014200
vn -0.503260 0.864018 -0.014200
vn -0.319785 0.914438 -0.248074
vn -0.319785 0.914438 -0.248074
vn -0.319785 0.914438 -0.248074
vn -0.319785 0.914438 -0.248074
vn -0.077687 0.974913 -0.208592
vn -0.077687 0.974913 -0.208592
vn -0.077687 0.974913 -0.208592
vn -0.077687 0.974912 -0.208592
vn 0.426451 -0.174016 -0.887614
vn 0.426451 -0.174016 -0.887614
vn 0.426451 -0.174016 -0.887614
vn 0.426451 -0.174016 -0.887614
vn 0.910601 0.214088 -0.353514
vn 0.910601 0.214088 -0.353514
vn 0.910601 0.214088 -0.353514
vn 0.910601 0.214088 -0.353514
vn 0.883169 0.377776 0.278025
vn 0.883169 0.377776 0.278025
vn 0.883169 0.377776 0.278025
vn 0.883169 0.377776 0.278025
vn 0.439393 0.312806 0.842073
vn 0.439393 0.312806 0.842073
vn 0.439393 0.312806 0.842073
vn 0.439393 0.312806 0.842073
vn 0.001785 0.924798 -0.380454
vn 0.001785 0.924798 -0.380454
vn 0.001785 0.924798 -0.380454
vn 0.001755 0.999998 0.000611
vn 0.001755 0.999998 0.000611
vn 0.001755 0.999998 0.000611
vn 0.549497 0.326125 0.769217
vn 0.549497 0.326125 0.769217
vn 0.549497 0.326125 0.769217
vn 0.549497 0.326125 0.769217
vn 0.885701 0.355311 0.298810
vn 0.885701 0.355310 0.298810
vn 0.885701 0.355310 0.298810
vn 0.885701 0.355310 0.298810
vn 0.893573 0.186920 -0.408153
vn 0.893573 0.186920 -0.408153
vn 0.893573 0.186920 -0.408153
vn 0.893573 0.186920 -0.408153
vn 0.520285 -0.039530 -0.853077
vn 0.520285 -0.039530 -0.853077
vn 0.520285 -0.039530 -0.853077
vn 0.520285 -0.039530 -0.853077
vn 0.094071 0.946346 0.309162
vn 0.094071 0.946346 0.309162
vn 0.094071 0.946346 0.309162
vn 0.094071 0.946346 0.309162
vn 0.456484 0.886282 0.078279
vn 0.456484 0.886282 0.078279
vn 0.456484 0.886281 0.078279
vn 0.456484 0.886281 0.078279
vn 0.325351 0.873015 -0.363306
vn 0.325351 0.873015 -0.363306
vn 0.325351 0.873015 -0.363306
vn 0.325351 0.873015 -0.363306
vn 0.032001 0.801863 -0.596651
vn 0.032001 0.801863 -0.596651
vn 0.032001 0.801863 -0.596651
vn 0.032001 0.801863 -0.596651
vn 0.664328 0.061301 -0.744924
vn 0.664328 0.061301 -0.744923
vn 0.664328 0.061301 -0.744924
vn 0.664328 0.061301 -0.744924
vn 0.513229 -0.857274 0.040944
vn 0.513229 -0.857274 0.040944
vn 0.513229 -0.857274 0.040944
vn 0.513229 -0.857274 0.040944
vn -0.473629 0.878954 -0.055819
vn -0.473629 0.878954 -0.055819
vn -0.473629 0.878954 -0.055819
vn -0.473629 0.878954 -0.055819
vn 0.491873 -0.845093 0.209474
vn 0.491873 -0.845093 0.209474
vn 0.491873 -0.845092 0.209474
vn 0.491873 -0.845092 0.209474
vn 0.655853 0.296242 0.694333
vn 0.655853 0.296242 0.694332
vn 0.655853 0.296242 0.694333
vn 0.655853 0.296242 0.694332
vn -0.445926 0.871664 -0.203350
vn -0.445926 0.871664 -0.203350
vn -0.445926 0.871664 -0.203350
vn -0.445926 0.871664 -0.203350
vn -0.338962 -0.160688 -0.926976
vn -0.338962 -0.160688 -0.926976
vn -0.338962 -0.160688 -0.926976
vn -0.338962 -0.160688 -0.926976
vn -0.920457 0.360400 -0.151234
vn -0.920457 0.360400 -0.151234
vn -0.920457 0.360400 -0.151234
vn -0.920457 0.360400 -0.151234
vn -0.923529 0.382962 0.020845
vn -0.923529 0.382962 0.020845
vn -0.923529 0.382962 0.020845
vn -0.923529 0.382962 0.020845
vn -0.121170 0.218304 0.968329
vn -0.121170 0.218304 0.968329
vn -0.121170 0.218304 0.968329
vn -0.121170 0.218304 0.968329
vn -0.205555 -0.960442 0.187878
vn -0.205555 -0.960442 0.187878
vn -0.205555 -0.960442 0.187878
vn -0.108439 -0.984898 0.134970
vn -0.108439 -0.984898 0.134970
vn -0.108439 -0.984898 0.134970
vn -0.108182 -0.975834 0.189856
vn -0.108182 -0.975834 0.189856
vn -0.108182 -0.975834 0.189856
vn -0.073591 -0.974966 0.209822
vn -0.073591 -0.974966 0.209822
vn -0.073591 -0.974966 0.209822
vn 0.340919 0.922607 -0.180475
vn 0.340919 0.922607 -0.180475
vn 0.340919 0.922607 -0.180475
vn 0.610723 0.733103 -0.299295
vn 0.610723 0.733103 -0.299295
vn 0.610723 0.733103 -0.299295
vn 0.592223 0.805772 -0.001535
vn 0.592223 0.805772 -0.001535
vn 0.592223 0.805772 -0.001535
vn 0.340921 0.922606 -0.180475
vn 0.340921 0.922606 -0.180475
vn 0.340921 0.922606 -0.180475
vn 0.159198 0.979060 -0.126877
vn 0.159198 0.979060 -0.126877
vn 0.159198 0.979060 -0.126877
vn 0.159198 0.979060 -0.126877
vn 0.503260 0.864018 -0.014200
vn 0.503260 0.864018 -0.014200
vn 0.503260 0.864018 -0.014200
vn 0.503260 0.864018 -0.014200
vn 0.319785 0.914438 -0.248074
vn 0.319785 0.914438 -0.248074
vn 0.319785 0.914438 -0.248074
vn 0.319785 0.914438 -0.248074
vn 0.077687 0.974913 -0.208592
vn 0.077687 0.974912 -0.208592
vn 0.077687 0.974913 -0.208592
vn 0.077687 0.974913 -0.208592
vn -0.426451 -0.174016 -0.887614
vn -0.426451 -0.174016 -0.887614
vn -0.426451 -0.174016 -0.887614
vn -0.426451 -0.174016 -0.887614
vn -0.910601 0.214088 -0.353514
vn -0.910601 0.214088 -0.353514
vn -0.910601 0.214088 -0.353514
vn -0.910601 0.214088 -0.353514
vn -0.883169 0.377776 0.278025
vn -0.883169 0.377776 0.278025
vn -0.883169 0.377776 0.278025
vn -0.883169 0.377776 0.278025
vn -0.439393 0.312806 0.842073
vn -0.439393 0.312806 0.842073
vn -0.439393 0.312806 0.842073
vn -0.439393 0.312806 0.842073
vn -0.001785 0.924798 -0.380454
vn -0.001785 0.924798 -0.380454
vn -0.001785 0.924798 -0.380454
vn -0.001755 0.999998 0.000611
vn -0.001755 0.999998 0.000611
vn -0.001755 0.999998 0.000611
vn -0.549497 0.326125 0.769217
vn -0.549497 0.326125 0.769217
vn -0.549497 0.326125 0.769217
vn -0.549497 0.326125 0.769217
vn -0.885701 0.355311 0.298810
vn -0.885701 0.355310 0.298810
vn -0.885701 0.355310 0.298810
vn -0.885701 0.355310 0.298810
vn -0.893573 0.186920 -0.408153
vn -0.893573 0.186920 -0.408153
vn -0.893573 0.186920 -0.408153
vn -0.893573 0.186920 -0.408153
vn -0.520285 -0.039530 -0.853077
vn -0.520285 -0.039530 -0.853077
vn -0.520285 -0.039530 -0.853077
vn -0.520285 -0.039530 -0.853077
vn -0.094071 0.946346 0.309162
vn -0.094071 0.946346 0.309162
vn -0.094071 0.946346 0.309162
vn -0.094071 0.946346 0.309162
vn -0.456484 0.886282 0.078279
vn -0.456484 0.886281 0.078279
vn -0.456484 0.886281 0.078279
vn -0.456484 0.886282 0.078279
vn -0.325351 0.873015 -0.363306
vn -0.325351 0.873015 -0.363306
vn -0.325351 0.873015 -0.363306
vn -0.325351 0.873015 -0.363306
vn -0.032001 0.801863 -0.596651
vn -0.032001 0.801863 -0.596651
vn -0.032001 0.801863 -0.596651
vn -0.032001 0.801863 -0.596651
vn -0.664328 0.061301 -0.744924
vn -0.664328 0.061301 -0.744924
vn -0.664328 0.061301 -0.744924
vn -0.664328 0.061301 -0.744923
vn -0.513229 -0.857274 0.040944
vn -0.513229 -0.857274 0.040944
vn -0.513229 -0.857274 0.040944
vn -0.513229 -0.857274 0.040944
vn 0.473629 0.878954 -0.055819
vn 0.473629 0.878954 -0.055819
vn 0.473629 0.878954 -0.055819
vn 0.473629 0.878954 -0.055819
vn -0.491873 -0.845093 0.209474
vn -0.491873 -0.845092 0.209474
vn -0.491873 -0.845092 0.209474
vn -0.491873 -0.845093 0.209474
vn -0.655853 0.296242 0.694333
vn -0.655853 0.296242 0.694332
vn -0.655853 0.296242 0.694333
vn -0.655853 0.296242 0.694332
vn 0.445926 0.871664 -0.203350
vn 0.445926 0.871664 -0.203350
vn 0.445926 0.871664 -0.203350
vn 0.445926 0.871664 -0.203350
s off
f 1/1/1 3/4/2 18/3/3 15/2/4
f 34/5/5 37/8/6 36/7/7 35/6/8
f 35/6/9 36/7/10 39/10/11 38/9/12
f 17/11/13 20/14/14 4/13/15 2/12/16
f 15/15/17 5/17/18 1/16/19
f 16/18/20 5/17/21 15/15/22
f 17/19/23 5/17/24 16/18/25
f 2/20/26 5/17/27 17/19/28
f 8/21/29 9/23/30 24/22/31
f 24/22/32 9/23/33 27/24/34
f 27/24/35 9/23/36 26/25/37
f 26/25/38 9/23/39 10/26/40
f 3/27/41 6/30/42 21/29/43 18/28/44
f 18/28/45 21/29/46 22/32/47 19/31/48
f 19/31/49 22/32/50 23/34/51 20/33/52
f 20/33/53 23/34/54 7/36/55 4/35/56
f 6/37/57 14/40/58 33/39/59 21/38/60
f 21/41/61 33/44/62 32/43/63 22/42/64
f 22/45/65 32/48/66 31/47/67 23/46/68
f 23/49/69 31/52/70 13/51/71 7/50/72
f 24/22/73 27/24/74 25/53/75
f 25/53/76 27/24/77 26/25/78
f 28/54/79 26/25/80 10/26/81 11/55/82
f 29/56/83 25/53/84 26/25/85 28/54/86
f 30/57/87 24/22/88 25/53/89 29/56/90
f 12/58/91 8/21/92 24/22/93 30/57/94
f 31/59/95 28/62/96 11/61/97 13/60/98
f 32/63/99 29/66/100 28/65/101 31/64/102
f 33/67/103 30/70/104 29/69/105 32/68/106
f 14/71/107 12/74/108 30/73/109 33/72/110
f 18/3/111 37/8/112 34/5/113 15/2/114
f 16/75/115 15/2/116 34/5/117 35/6/118
f 18/3/119 19/76/120 36/7/121 37/8/122
f 17/11/123 16/75/124 35/6/125 38/9/126
f 20/14/127 17/11/128 38/9/129 39/10/130
f 19/76/131 20/14/132 39/10/133 36/7/134
f 1/77/135 40/78/136 43/79/137 3/80/138
f 59/81/139 60/82/140 61/83/141 62/84/142
f 60/82/143 63/85/144 64/86/145 61/83/146
f 42/87/147 2/88/148 4/89/149 45/90/150
f 40/91/151 1/92/152 5/93/153
f 41/94/154 40/91/155 5/93/156
f 42/95/157 41/94/158 5/93/159
f 2/96/160 42/95/161 5/93/162
f 8/97/163 49/98/164 9/99/165
f 49/98/166 52/100/167 9/99/168
f 52/100/169 51/101/170 9/99/171
f 51/101/172 10/102/173 9/99/174
f 3/103/175 43/104/176 46/105/177 6/106/178
f 43/104/179 44/107/180 47/108/181 46/105/182
f 44/107/183 45/109/184 48/110/185 47/108/186
f 45/109/187 4/111/188 7/112/189 48/110/190
f 6/113/191 46/114/192 58/115/193 14/116/194
f 46/117/195 47/118/196 57/119/197 58/120/198
f 47/121/199 48/122/200 56/123/201 57/124/202
f 48/125/203 7/126/204 13/127/205 56/128/206
f 49/98/207 50/129/208 52/100/209
f 50/129/210 51/101/211 52/100/212
f 53/130/213 11/131/214 10/102/215 51/101/216
f 54/132/217 53/130/218 51/101/219 50/129/220
f 55/133/221 54/132/222 50/129/223 49/98/224
f 12/134/225 55/133/226 49/98/227 8/97/228
f 56/135/229 13/136/230 11/137/231 53/138/232
f 57/139/233 56/140/234 53/141/235 54/142/236
f 58/143/237 57/144/238 54/145/239 55/146/240
f 14/147/241 58/148/242 55/149/243 12/150/244
f 43/79/245 40/78/246 59/81/247 62/84/248
f 41/151/249 60/82/250 59/81/251 40/78/252
f 43/79/253 62/84/254 61/83/255 44/152/256
f 42/87/257 63/85/258 60/82/259 41/151/260
f 45/90/261 64/86/262 63/85/263 42/87/264
f 44/152/265 61/83/266 64/86/267 45/90/268
