# This file uses centimeters as units for non-parametric coordinates.

v -0.417267 21.863478 4.181839
v -0.845001 21.863478 -4.205989
v -0.417267 32.483086 4.181839
v -0.845001 32.483086 -4.205989
v -0.794022 8.361979 4.881642
v -0.845001 8.361979 -4.905792
v -0.417267 39.209297 2.211994
v -0.845001 39.209297 -4.205989
v -0.417267 42.547859 -0.956955
v -0.417267 44.364388 -4.205989
v 0.793533 21.863478 4.181839
v 1.221252 21.863478 -4.205989
v 1.221252 32.483086 -4.205989
v 0.793533 32.483086 4.181839
v 1.170273 8.361979 4.881642
v 1.221252 8.361979 -4.905792
v 1.221252 39.209297 -4.205989
v 0.793533 39.209297 2.211994
v 0.793533 44.364388 -4.205989
v 0.793533 42.547859 -0.956955
v -0.845001 21.133322 -1.962807
v -0.845001 9.048290 -2.288323
v -0.845001 9.048290 2.264173
v -0.845001 21.133322 1.938657
v -2.243439 21.133314 -1.962807
v -2.243439 9.048286 -2.288323
v -2.243439 9.048286 2.264173
v -2.243439 21.133314 1.938657
v -1.347763 5.377647 2.264173
v -1.347763 5.377647 -2.288323
v -2.746201 5.377642 2.264173
v -2.746201 5.377642 -2.288323
v -1.347763 -5.076450 2.264173
v -1.347763 -5.076450 -2.288323
v -2.746201 -5.076457 2.264173
v -2.746201 -5.076457 -2.288323
v 1.139938 -0.411263 2.745618
v 1.139938 -0.411263 -2.632499
v 1.139938 1.975836 2.745618
v 1.139938 1.975836 -2.632499
v -2.593048 1.975836 2.745618
v -2.593048 1.975836 -2.632499
v -2.593048 -0.411263 2.745618
v -2.593048 -0.411263 -2.632499
v 1.680435 -0.411263 2.098263
v 1.680435 -0.411263 -1.985129
v 1.680435 1.975836 -1.985129
v 1.680435 1.975836 2.098263
v -3.133545 1.975836 2.098263
v -3.133545 1.975836 -1.985129
v -3.133545 -0.411263 -1.985129
v -3.133545 -0.411263 2.098263
v 0.856812 39.209297 1.262477
v -0.480560 39.209297 1.262477
v -0.480560 32.483086 2.940891
v -0.480560 21.863478 2.940891
v -0.845001 21.133322 1.361449
v -2.243439 21.133314 1.361449
v -2.243439 9.048286 1.590650
v -2.746201 5.377644 1.590650
v -2.746201 -5.076457 1.590650
v -1.347763 -5.076450 1.590650
v -1.347763 5.377647 1.590650
v -0.845001 9.048290 1.590650
v -0.801559 8.361979 3.433631
v 1.177826 8.361979 3.433631
v 0.856812 21.863478 2.940891
v 0.856812 32.483086 2.940891
v 0.883392 39.121399 0.707986
v -0.507126 39.121399 0.707986
v -0.507126 32.483086 2.419791
v -0.507126 21.863478 2.419791
v -0.845001 21.133322 1.119072
v -2.243439 21.133314 1.119072
v -2.243439 9.048286 1.307828
v -2.746201 5.377644 1.307828
v -2.746201 -5.076457 1.307828
v -1.347763 -5.076450 1.307828
v -1.347763 5.377647 1.307828
v -0.845001 9.048290 1.307828
v -0.804733 8.361979 2.825576
v 1.180984 8.361979 2.825576
v 0.883392 21.863478 2.419791
v 0.883392 32.483086 2.419791
v -0.514984 42.861542 -4.205989
v -0.490936 41.569313 -1.442175
v -0.458160 42.185265 -1.226262
v -0.486282 43.532585 -4.205989
v 0.857071 42.051910 -1.439602
v 0.859390 43.570641 -4.205989
v 0.893295 42.836884 -4.205989
v 0.888458 41.481720 -1.677963
vt 0.014851 0.304258
vt 0.014851 0.304258
vt 0.014851 0.304258
vt 0.014851 0.304258
vt 0.014851 0.304258
vt 0.014851 0.304258
vt 0.014851 0.304258
vt 0.014851 0.304258
vt 0.014851 0.304258
vt 0.014851 0.304258
vt 0.014851 0.304258
vt 0.014851 0.304258
vt 0.014851 0.304258
vt 0.014851 0.304258
vt 0.014851 0.304258
vt 0.014851 0.304258
vt 0.014851 0.304258
vt 0.014851 0.304258
vt 0.014851 0.304258
vt 0.014851 0.304258
vt 0.014851 0.304258
vt 0.014851 0.304258
vt 0.014851 0.304258
vt 0.014851 0.304258
vt 0.014851 0.304258
vt 0.014851 0.304258
vt 0.014851 0.304258
vt 0.014851 0.304258
vt 0.014851 0.304258
vt 0.014851 0.304258
vt 0.014851 0.304258
vt 0.014851 0.304258
vt 0.014851 0.304258
vt 0.014851 0.304258
vt 0.014851 0.304258
vt 0.014851 0.304258
vt 0.014851 0.304258
vt 0.014851 0.304258
vt 0.014851 0.304258
vt 0.014851 0.304258
vt 0.014851 0.304258
vt 0.014851 0.304258
vt 0.014851 0.304258
vt 0.014851 0.304258
vt 0.014851 0.304258
vt 0.014851 0.304258
vt 0.014851 0.304258
vt 0.014851 0.304258
vt 0.014851 0.304258
vt 0.014851 0.304258
vt 0.014851 0.304258
vt 0.014851 0.304258
vt 0.014851 0.304258
vt 0.014851 0.304258
vt 0.014851 0.304258
vt 0.014851 0.304258
vt 0.014851 0.304258
vt 0.014851 0.304258
vt 0.014851 0.304258
vt 0.014851 0.304258
vt 0.014851 0.304258
vt 0.014851 0.304258
vt 0.014851 0.304258
vt 0.014851 0.304258
vt 0.014851 0.304258
vt 0.014851 0.304258
vt 0.014851 0.304258
vt 0.014851 0.304258
vt 0.014851 0.304258
vt 0.014851 0.304258
vt 0.014851 0.304258
vt 0.014851 0.304258
vt 0.014851 0.304258
vt 0.014851 0.304258
vt 0.014851 0.304258
vt 0.014851 0.304258
vt 0.014851 0.304258
vt 0.014851 0.304258
vt 0.014851 0.304258
vt 0.014851 0.304258
vt 0.014851 0.304258
vt 0.014851 0.304258
vt 0.014851 0.304258
vt 0.014851 0.304258
vt 0.014851 0.304258
vt 0.014851 0.304258
vt 0.014851 0.304258
vt 0.014851 0.304258
vt 0.014851 0.304258
vt 0.014851 0.304258
vt 0.014851 0.304258
vt 0.014851 0.304258
vt 0.014851 0.304258
vt 0.014851 0.304258
vt 0.014851 0.304258
vt 0.014851 0.304258
vt 0.014851 0.304258
vt 0.014851 0.304258
vt 0.014851 0.304258
vt 0.014851 0.304258
vt 0.014851 0.304258
vt 0.014851 0.304258
vt 0.014851 0.304258
vt 0.014851 0.304258
vt 0.014851 0.304258
vt 0.014851 0.304258
vt 0.014851 0.304258
vt 0.014851 0.304258
vt 0.014851 0.304258
vt 0.014851 0.304258
vt 0.014851 0.304258
vt 0.014851 0.304258
vt 0.014851 0.304258
vt 0.014851 0.304258
vt 0.014851 0.304258
vt 0.014851 0.304258
vt 0.014851 0.304258
vt 0.014851 0.304258
vt 0.014851 0.304258
vt 0.014851 0.304258
vt 0.014851 0.304258
vt 0.014851 0.304258
vt 0.014851 0.304258
vt 0.014851 0.304258
vt 0.014851 0.304258
vt 0.014851 0.304258
vt 0.014851 0.304258
vt 0.014851 0.304258
vt 0.014851 0.304258
vt 0.014851 0.304258
vt 0.014851 0.304258
vt 0.014851 0.304258
vt 0.014851 0.304258
vt 0.014851 0.304258
vt 0.014851 0.304258
vt 0.014851 0.304258
vt 0.014851 0.304258
vt 0.014851 0.304258
vt 0.014851 0.304258
vt 0.014851 0.304258
vt 0.014851 0.304258
vt 0.014851 0.304258
vt 0.015915 0.355446
vt 0.015915 0.355446
vt 0.015915 0.355446
vt 0.015915 0.355446
vt 0.015915 0.355446
vt 0.015915 0.355446
vt 0.015915 0.355446
vt 0.015915 0.355446
vt 0.015915 0.355446
vt 0.015915 0.355446
vt 0.015915 0.355448
vt 0.015915 0.355448
vt 0.015915 0.355448
vt 0.015915 0.355448
vt 0.015915 0.355448
vt 0.015915 0.355448
vt 0.015915 0.355448
vt 0.015915 0.355448
vt 0.015915 0.355448
vt 0.015915 0.355448
vt 0.015915 0.355448
vt 0.015915 0.355448
vt 0.015915 0.355448
vt 0.015915 0.355448
vt 0.015915 0.355448
vt 0.015915 0.355448
vt 0.015915 0.355446
vt 0.015915 0.355446
vt 0.015915 0.355446
vt 0.015915 0.355446
vt 0.015915 0.355446
vt 0.015915 0.355446
vt 0.015915 0.355446
vt 0.015915 0.355446
vt 0.015915 0.355446
vt 0.015915 0.355446
vt 0.015915 0.355446
vt 0.015915 0.355446
vt 0.015915 0.355446
vt 0.015915 0.355446
vn 0.998703 0.000000 0.050926
vn 0.998702 0.000000 0.050931
vn 0.998702 0.000000 0.050931
vn 0.998703 0.000000 0.050926
vn 0.999315 0.026003 0.026322
vn 0.999289 0.026984 0.026323
vn 0.999289 0.026984 0.026323
vn 0.999314 0.026064 0.026322
vn 0.998213 0.015641 0.057673
vn 0.998367 0.014741 0.055190
vn 0.998432 0.014348 0.054103
vn 0.998213 0.015641 0.057673
vn 0.995782 0.070944 0.058190
vn 0.996983 0.061351 0.047556
vn 0.996620 0.071625 0.040226
vn 0.995512 0.082597 0.046180
vn -0.996544 0.013917 0.081899
vn -0.998702 0.000000 0.050938
vn -0.998702 0.000000 0.050931
vn -0.998379 0.027331 0.049928
vn -1.000000 -0.000000 0.000000
vn -1.000000 -0.000000 0.000000
vn -1.000000 0.000000 0.000000
vn -1.000000 0.000000 0.000000
vn -0.998212 0.015644 0.057687
vn -0.998212 0.015644 0.057687
vn -0.998432 0.014347 0.054101
vn -0.998367 0.014742 0.055193
vn -0.996854 0.055829 0.056263
vn -0.996390 0.065569 0.053922
vn -0.995069 0.078909 0.060095
vn 0.000000 0.029000 -0.999579
vn 0.000000 0.000000 -1.000000
vn 0.000000 0.000000 -1.000000
vn 0.000000 0.029000 -0.999579
vn 0.000000 0.112838 0.993613
vn 0.000000 0.032593 0.999469
vn 0.000000 0.032593 0.999469
vn 0.000000 0.112838 0.993613
vn 0.000000 0.032593 0.999469
vn 0.000000 0.051762 0.998659
vn 0.000000 0.051762 0.998659
vn 0.000000 0.032593 0.999469
vn 0.000000 -1.000000 0.000000
vn 0.000000 -1.000000 -0.000000
vn 0.000000 -1.000000 -0.000000
vn 0.000000 -1.000000 0.000000
vn 0.000000 0.051762 -0.998659
vn 0.000000 0.029000 -0.999579
vn 0.000000 0.029000 -0.999579
vn 0.000000 0.051762 -0.998659
vn 0.000000 0.000000 -1.000000
vn 0.000000 0.000000 -1.000000
vn 0.000000 0.000000 -1.000000
vn 0.000000 0.000000 -1.000000
vn 0.000000 0.454730 0.890629
vn 0.000000 0.112838 0.993613
vn 0.000000 0.112838 0.993613
vn 0.000000 0.454730 0.890629
vn 0.000000 0.000000 -1.000000
vn 0.000000 0.000000 -1.000000
vn 0.000000 0.000000 -1.000000
vn 0.000000 0.000000 -1.000000
vn 0.000000 0.779641 0.626227
vn 0.000000 0.779641 0.626227
vn 0.000000 0.872842 0.488004
vn 0.000000 0.872842 0.488004
vn 0.000000 0.779641 0.626227
vn 0.000000 0.454730 0.890629
vn 0.000000 0.454730 0.890629
vn 0.000000 0.779641 0.626227
vn -0.999305 0.001880 0.037231
vn -1.000000 -0.000797 0.000088
vn -0.999986 -0.005240 0.000579
vn -0.999285 0.037468 0.005138
vn -0.998374 -0.056896 0.003548
vn -0.995080 0.018215 0.097389
vn -0.995393 0.015924 0.094552
vn -0.998569 -0.053351 0.003555
vn -0.995080 0.018215 0.097389
vn -0.996544 0.013917 0.081899
vn -0.994883 0.031922 0.095856
vn -0.995393 0.015924 0.094552
vn -0.996544 0.013917 0.081899
vn -0.998379 0.027331 0.049928
vn -0.920198 0.390140 0.032023
vn -0.994883 0.031922 0.095856
vn -0.000000 0.026926 -0.999637
vn -0.000000 0.026926 -0.999637
vn -0.000000 0.026926 -0.999637
vn -0.000000 0.026926 -0.999637
vn 0.000005 -1.000000 0.000000
vn 0.000005 -1.000000 0.000000
vn 0.000005 -1.000000 0.000000
vn 0.000005 -1.000000 0.000000
vn -0.000000 0.026926 0.999637
vn -0.000000 0.026926 0.999637
vn -0.000000 0.026926 0.999637
vn -0.000000 0.026926 0.999637
vn -0.000005 1.000000 0.000000
vn -0.000005 1.000000 0.000000
vn -0.000005 1.000000 0.000000
vn -0.000005 1.000000 0.000000
vn 0.990750 -0.135701 0.000000
vn 0.990750 -0.135701 0.000000
vn 0.990750 -0.135701 0.000000
vn 0.990750 -0.135701 0.000000
vn 0.000000 0.000000 1.000000
vn 0.000000 0.000000 1.000000
vn 0.000000 0.000000 1.000000
vn 0.000000 0.000000 1.000000
vn -0.990750 0.135701 0.000000
vn -0.990750 0.135701 0.000000
vn -0.990750 0.135701 0.000000
vn -0.990750 0.135701 0.000000
vn 0.000000 0.000000 -1.000000
vn 0.000000 0.000000 -1.000000
vn 0.000000 0.000000 -1.000000
vn 0.000000 0.000000 -1.000000
vn 1.000000 0.000000 0.000000
vn 1.000000 0.000000 0.000000
vn 1.000000 0.000000 0.000000
vn 1.000000 0.000000 0.000000
vn 0.000000 0.000000 1.000000
vn 0.000000 0.000000 1.000000
vn 0.000000 0.000000 1.000000
vn 0.000000 0.000000 1.000000
vn -1.000000 0.000000 0.000000
vn -1.000000 0.000000 0.000000
vn -1.000000 0.000000 0.000000
vn -1.000000 0.000000 0.000000
vn 0.000000 0.000000 -1.000000
vn 0.000000 0.000000 -1.000000
vn 0.000000 0.000000 -1.000000
vn 0.000000 0.000000 -1.000000
vn 1.000000 0.000000 0.000000
vn 1.000000 0.000000 0.000000
vn 1.000000 0.000000 0.000000
vn 1.000000 0.000000 0.000000
vn 0.000000 1.000000 0.000000
vn 0.000000 1.000000 0.000000
vn 0.000000 1.000000 0.000000
vn 0.000000 1.000000 0.000000
vn -1.000000 0.000000 0.000000
vn -1.000000 0.000000 0.000000
vn -1.000000 0.000000 0.000000
vn -1.000000 0.000000 0.000000
vn 0.000000 -1.000000 0.000000
vn 0.000000 -1.000000 0.000000
vn 0.000000 -1.000000 0.000000
vn 0.000000 -1.000000 0.000000
vn 0.000000 0.000000 -1.000000
vn 0.000000 0.000000 -1.000000
vn 0.000000 0.000000 -1.000000
vn 0.000000 0.000000 -1.000000
vn 0.000000 0.000000 1.000000
vn 0.000000 0.000000 1.000000
vn 0.000000 0.000000 1.000000
vn 0.000000 0.000000 1.000000
vn 0.000000 -1.000000 0.000000
vn 0.000000 -1.000000 0.000000
vn 0.000000 -1.000000 0.000000
vn 0.000000 -1.000000 0.000000
vn 0.767625 0.000000 -0.640899
vn 0.767625 0.000000 -0.640899
vn 0.767625 0.000000 -0.640899
vn 0.767625 0.000000 -0.640899
vn 0.000000 1.000000 0.000000
vn 0.000000 1.000000 0.000000
vn 0.000000 1.000000 0.000000
vn 0.000000 1.000000 0.000000
vn 0.767618 0.000000 0.640908
vn 0.767618 0.000000 0.640908
vn 0.767618 0.000000 0.640908
vn 0.767618 0.000000 0.640908
vn 0.000000 1.000000 0.000000
vn 0.000000 1.000000 0.000000
vn 0.000000 1.000000 0.000000
vn 0.000000 1.000000 0.000000
vn -0.767625 0.000000 -0.640899
vn -0.767625 0.000000 -0.640899
vn -0.767625 0.000000 -0.640899
vn -0.767625 0.000000 -0.640899
vn 0.000000 -1.000000 0.000000
vn 0.000000 -1.000000 0.000000
vn 0.000000 -1.000000 0.000000
vn 0.000000 -1.000000 0.000000
vn -0.767618 0.000000 0.640908
vn -0.767618 0.000000 0.640908
vn -0.767618 0.000000 0.640908
vn -0.767618 0.000000 0.640908
vn -0.998367 0.014742 0.055193
vn -0.998432 0.014347 0.054101
vn -0.998298 0.007833 0.057792
vn -0.998323 0.008049 0.057330
vn -0.998379 0.027331 0.049928
vn -0.998702 0.000000 0.050931
vn -0.998702 0.000000 0.050927
vn -0.998700 0.006396 0.050579
vn -0.920198 0.390140 0.032023
vn -0.998379 0.027331 0.049928
vn -0.998700 0.006396 0.050579
vn -0.968103 0.248278 0.033695
vn -0.000005 1.000000 0.000000
vn -0.000005 1.000000 0.000000
vn -0.000005 1.000000 0.000000
vn -0.000005 1.000000 0.000000
vn -1.000000 -0.000000 0.000000
vn -1.000000 -0.000000 0.000000
vn -1.000000 -0.000000 0.000000
vn -1.000000 -0.000000 0.000000
vn -0.990750 0.135701 0.000000
vn -0.990750 0.135701 0.000000
vn -0.990750 0.135701 -0.000000
vn -0.990750 0.135701 -0.000000
vn -1.000000 0.000000 0.000000
vn -1.000000 0.000000 0.000000
vn -1.000000 0.000000 0.000000
vn -1.000000 0.000000 0.000000
vn 0.000005 -1.000000 0.000000
vn 0.000005 -1.000000 0.000000
vn 0.000005 -1.000000 0.000000
vn 0.000005 -1.000000 0.000000
vn 1.000000 0.000000 0.000000
vn 1.000000 0.000000 0.000000
vn 1.000000 0.000000 0.000000
vn 1.000000 0.000000 0.000000
vn 0.990750 -0.135701 0.000000
vn 0.990750 -0.135701 0.000000
vn 0.990750 -0.135701 0.000000
vn 0.990750 -0.135701 0.000000
vn -0.999238 -0.038871 0.003555
vn -0.998374 -0.056896 0.003548
vn -0.998569 -0.053351 0.003555
vn -0.999468 -0.032412 0.003553
vn 0.000000 -1.000000 -0.000000
vn 0.000000 -1.000000 -0.000000
vn 0.000000 -1.000000 -0.000000
vn 0.000000 -1.000000 -0.000000
vn 0.999586 0.011649 0.026326
vn 0.999315 0.026003 0.026322
vn 0.999314 0.026064 0.026322
vn 0.999585 0.011715 0.026326
vn 0.998702 0.000000 0.050931
vn 0.998702 0.000000 0.050931
vn 0.998702 0.000000 0.050927
vn 0.998702 0.000000 0.050927
vn 0.998432 0.014348 0.054103
vn 0.998367 0.014741 0.055190
vn 0.998323 0.008049 0.057331
vn 0.998298 0.007833 0.057791
vn -0.998323 0.008049 0.057330
vn -0.998298 0.007833 0.057792
vn -0.998259 0.007495 0.058514
vn -0.998258 0.007495 0.058514
vn -0.998700 0.006396 0.050579
vn -0.998702 0.000000 0.050927
vn -0.998702 0.000000 0.050928
vn -0.999305 0.001880 0.037231
vn -0.968103 0.248278 0.033695
vn -0.998700 0.006396 0.050579
vn -0.999305 0.001880 0.037231
vn -0.999285 0.037468 0.005138
vn -0.000005 1.000000 0.000000
vn -0.000005 1.000000 0.000000
vn -0.000005 1.000000 0.000000
vn -0.000005 1.000000 0.000000
vn -1.000000 -0.000000 0.000000
vn -1.000000 -0.000000 0.000000
vn -1.000000 -0.000000 0.000000
vn -1.000000 -0.000000 0.000000
vn -0.990750 0.135701 -0.000000
vn -0.990750 0.135701 -0.000000
vn -0.990750 0.135701 -0.000000
vn -0.990750 0.135701 -0.000000
vn -1.000000 0.000000 0.000000
vn -1.000000 0.000000 0.000000
vn -1.000000 0.000000 0.000000
vn -1.000000 0.000000 0.000000
vn 0.000005 -1.000000 0.000000
vn 0.000005 -1.000000 0.000000
vn 0.000005 -1.000000 0.000000
vn 0.000005 -1.000000 0.000000
vn 1.000000 0.000000 0.000000
vn 1.000000 0.000000 0.000000
vn 1.000000 0.000000 0.000000
vn 1.000000 0.000000 0.000000
vn 0.990750 -0.135701 0.000000
vn 0.990750 -0.135701 0.000000
vn 0.990750 -0.135701 0.000000
vn 0.990750 -0.135701 0.000000
vn -1.000000 -0.000797 0.000088
vn -0.999238 -0.038871 0.003555
vn -0.999468 -0.032412 0.003553
vn -0.999986 -0.005240 0.000579
vn 0.000000 -1.000000 -0.000000
vn 0.000000 -1.000000 -0.000000
vn 0.000000 -1.000000 0.000000
vn 0.000000 -1.000000 0.000000
vn 0.999596 0.010730 0.026327
vn 0.999586 0.011649 0.026326
vn 0.999585 0.011715 0.026326
vn 0.999596 0.010730 0.026327
vn 0.998702 0.000000 0.050927
vn 0.998702 0.000000 0.050927
vn 0.998702 0.000000 0.050926
vn 0.998702 0.000000 0.050926
vn 0.998298 0.007833 0.057791
vn 0.998323 0.008049 0.057331
vn 0.998259 0.007494 0.058511
vn 0.998259 0.007494 0.058511
vn -0.996854 0.055829 0.056263
vn -0.996583 0.057318 0.059465
vn -0.997071 0.059943 0.047499
vn -0.996390 0.065569 0.053922
vn -0.996390 0.065569 0.053922
vn -0.997071 0.059943 0.047499
vn -0.996916 0.067662 0.039753
vn -0.996629 0.070646 0.041718
vn -0.995069 0.078909 0.060095
vn -0.996390 0.065569 0.053922
vn -0.996629 0.070646 0.041718
vn -0.997071 0.059943 0.047499
vn -0.996583 0.057318 0.059465
vn -0.995803 0.063006 0.066379
vn -0.995820 0.071559 0.056762
vn -0.996916 0.067662 0.039753
vn -0.997071 0.059943 0.047499
vn -0.995820 0.071559 0.056762
vn -0.995638 0.081295 0.045788
vn 0.995782 0.070944 0.058190
vn 0.995805 0.062992 0.066363
vn 0.996452 0.057959 0.061029
vn 0.996983 0.061351 0.047556
vn 0.996367 0.065969 0.053866
vn 0.996990 0.053998 0.055641
vn 0.995080 0.078531 0.060404
vn 0.996745 0.070292 0.039476
vn 0.996367 0.065969 0.053866
vn 0.995080 0.078531 0.060404
vn 0.000000 0.000000 -1.000000
vn 0.000000 0.000000 -1.000000
vn 0.000000 0.000000 -1.000000
vn 0.000000 0.000000 -1.000000
vn 0.000000 0.000000 -1.000000
vn 0.000000 0.000000 -1.000000
vn 0.000000 0.000000 -1.000000
vn 0.000000 0.000000 -1.000000
vn 0.996620 0.071625 0.040226
vn 0.996983 0.061351 0.047556
vn 0.996367 0.065969 0.053866
vn 0.996745 0.070292 0.039476
vn 0.996983 0.061351 0.047556
vn 0.996452 0.057959 0.061029
vn 0.996990 0.053998 0.055641
vn 0.996367 0.065969 0.053866
s off
f 11/36/1 67/106/2 68/109/3 14/35/4
f 67/107/5 11/37/6 15/38/7 66/105/8
f 14/44/9 68/108/10 53/88/11 18/43/12
f 20/47/13 89/139/14 90/140/15 19/46/16
f 1/17/17 3/20/18 55/91/19 56/94/20
f 58/96/21 59/97/22 27/55/23 28/56/24
f 3/25/25 7/28/26 54/89/27 55/92/28
f 70/113/29 86/135/30 8/30/31
f 2/2/32 4/4/33 13/34/34 12/33/35
f 3/3/36 1/1/37 11/36/38 14/35/39
f 1/6/40 5/7/41 15/38/42 11/37/43
f 5/7/44 65/103/45 66/105/46 15/38/47
f 6/8/48 2/5/49 12/40/50 16/39/51
f 4/10/52 8/11/53 17/42/54 13/41/55
f 7/12/56 3/9/57 14/44/58 18/43/59
f 90/140/60 88/137/61 10/15/62 19/46/63
f 9/16/64 20/47/65 19/46/66 10/15/67
f 9/16/68 7/13/69 18/48/70 20/47/71
f 2/21/72 6/24/73 22/50/74 21/49/75
f 65/104/76 5/23/77 23/51/78 64/102/79
f 5/23/80 1/22/81 24/52/82 23/51/83
f 1/22/84 56/93/85 57/95/86 24/52/87
f 21/49/88 22/50/89 26/54/90 25/53/91
f 62/100/92 33/62/93 35/63/94 61/99/95
f 23/51/96 24/52/97 28/56/98 27/55/99
f 24/52/100 57/95/101 58/96/102 28/56/103
f 64/102/104 23/51/105 29/58/106 63/101/107
f 23/51/108 27/55/109 31/59/110 29/58/111
f 27/55/112 59/97/113 60/98/114 31/59/115
f 26/54/116 22/50/117 30/57/118 32/60/119
f 63/101/120 29/58/121 33/62/122 62/100/123
f 29/58/124 31/59/125 35/63/126 33/62/127
f 31/59/128 60/98/129 61/99/130 35/63/131
f 32/60/132 30/57/133 34/61/134 36/64/135
f 45/65/136 46/66/137 47/67/138 48/68/139
f 39/69/140 40/70/141 42/71/142 41/72/143
f 49/73/144 50/74/145 51/75/146 52/76/147
f 43/77/148 44/78/149 38/79/150 37/80/151
f 38/81/152 44/82/153 42/83/154 40/70/155
f 43/84/156 37/85/157 39/69/158 41/86/159
f 37/85/160 38/81/161 46/66/162 45/65/163
f 38/81/164 40/70/165 47/67/166 46/66/167
f 40/70/168 39/69/169 48/68/170 47/67/171
f 39/69/172 37/85/173 45/65/174 48/68/175
f 41/72/176 42/71/177 50/74/178 49/73/179
f 42/71/180 44/78/181 51/75/182 50/74/183
f 44/78/184 43/77/185 52/76/186 51/75/187
f 43/77/188 41/72/189 49/73/190 52/76/191
f 55/143/192 54/144/193 70/145/194 71/146/195
f 56/147/196 55/143/197 71/146/198 72/148/199
f 57/149/200 56/147/201 72/148/202 73/150/203
f 58/151/204 57/149/205 73/150/206 74/152/207
f 74/152/208 75/153/209 59/154/210 58/151/211
f 60/155/212 59/154/213 75/153/214 76/156/215
f 61/157/216 60/155/217 76/156/218 77/158/219
f 78/159/220 62/160/221 61/157/222 77/158/223
f 79/161/224 63/162/225 62/160/226 78/159/227
f 80/163/228 64/164/229 63/162/230 79/161/231
f 81/165/232 65/166/233 64/164/234 80/163/235
f 66/167/236 65/166/237 81/165/238 82/168/239
f 83/169/240 67/170/241 66/167/242 82/168/243
f 68/171/244 67/170/245 83/169/246 84/172/247
f 53/173/248 68/171/249 84/172/250 69/174/251
f 71/115/252 70/112/253 8/27/254 4/26/255
f 72/117/256 71/114/257 4/19/258 2/18/259
f 73/118/260 72/116/261 2/21/262 21/49/263
f 74/119/264 73/118/265 21/49/266 25/53/267
f 25/53/268 26/54/269 75/120/270 74/119/271
f 76/121/272 75/120/273 26/54/274 32/60/275
f 77/122/276 76/121/277 32/60/278 36/64/279
f 34/61/280 78/123/281 77/122/282 36/64/283
f 30/57/284 79/124/285 78/123/286 34/61/287
f 22/50/288 80/125/289 79/124/290 30/57/291
f 6/24/292 81/127/293 80/125/294 22/50/295
f 82/128/296 81/126/297 6/8/298 16/39/299
f 12/40/300 83/130/301 82/128/302 16/39/303
f 84/132/304 83/129/305 12/33/306 13/34/307
f 69/111/308 84/131/309 13/41/310 17/42/311
f 70/145/312 54/144/313 87/175/314 86/176/315
f 86/176/316 87/175/317 88/177/318 85/178/319
f 8/30/320 86/135/321 85/134/322
f 87/136/323 54/90/324 7/29/325 9/32/326
f 88/138/327 87/136/328 9/32/329 10/31/330
f 20/47/331 18/48/332 53/87/333 89/139/334
f 92/142/335 69/110/336 17/45/337
f 91/141/338 92/142/339 17/45/340
f 8/14/341 85/133/342 91/141/343 17/45/344
f 91/179/345 85/178/346 88/177/347 90/180/348
f 90/180/349 89/181/350 92/182/351 91/179/352
f 89/181/353 53/173/354 69/174/355 92/182/356
